Varta-SemiBold.ufo
<glyph name="plus" format="2">
  <advance width="1028.5185185185185"/>
  <unicode hex="002B"/>
  <outline>
    <contour>
      <point x="439.7654320987654" y="209.49382716049382" type="line"/>
      <point x="587.7530864197531" y="209.49382716049382" type="line"/>
      <point x="587.7530864197531" y="604.9876543209876" type="line"/>
      <point x="958.5185185185185" y="604.9876543209876" type="line"/>
      <point x="958.5185185185185" y="746.0123456790124" type="line"/>
      <point x="587.7530864197531" y="746.0123456790124" type="line"/>
      <point x="587.7530864197531" y="1142.5061728395062" type="line"/>
      <point x="439.7654320987654" y="1142.5061728395062" type="line"/>
      <point x="439.7654320987654" y="746.0123456790124" type="line"/>
      <point x="70.0" y="746.0123456790124" type="line"/>
      <point x="70.0" y="604.9876543209876" type="line"/>
      <point x="439.7654320987654" y="604.9876543209876" type="line"/>
    </contour>
  </outline>
</glyph>
<glyph name="hyphen" format="2">
  <advance width="644.0123456790124"/>
  <unicode hex="002D"/>
  <outline>
    <contour>
      <point x="84.96296296296296" y="442.95061728395063" type="line"/>
      <point x="561.0493827160494" y="442.95061728395063" type="line"/>
      <point x="561.0493827160494" y="585.9753086419753" type="line"/>
      <point x="84.96296296296296" y="585.9753086419753" type="line"/>
    </contour>
  </outline>
</glyph>
<glyph name="less" format="2">
  <advance width="1028.5185185185185"/>
  <unicode hex="003C"/>
  <outline>
    <contour>
      <point x="958.5185185185185" y="258.7530864197531" type="line"/>
      <point x="958.5185185185185" y="421.9753086419753" type="line"/>
      <point x="264.3086419753086" y="676.0" type="line"/>
      <point x="264.3086419753086" y="684.0" type="line"/>
      <point x="958.5185185185185" y="938.0246913580247" type="line"/>
      <point x="958.5185185185185" y="1101.2469135802469" type="line"/>
      <point x="70.0" y="754.0493827160494" type="line"/>
      <point x="70.0" y="605.9506172839506" type="line"/>
    </contour>
  </outline>
</glyph>
<glyph name="E" format="2">
  <advance width="1076.9382716049383"/>
  <unicode hex="0045"/>
  <anchor x="538.4691358024692" y="0.0" name="bottom"/>
  <anchor x="968.9753086419753" y="10.0" name="ogonek"/>
  <anchor x="565.3827160493827" y="1342.0740740740741" name="top"/>
  <anchor x="20.0" y="1342.0740740740741" name="topleft"/>
  <outline>
    <contour>
      <point x="174.83950617283952" y="0.0" type="line"/>
      <point x="980.358024691358" y="0.0" type="line"/>
      <point x="980.358024691358" y="163.4938271604938" type="line"/>
      <point x="368.4938271604938" y="163.4938271604938" type="line"/>
      <point x="368.4938271604938" y="621.5555555555555" type="line"/>
      <point x="867.2469135802469" y="621.5555555555555" type="line"/>
      <point x="867.2469135802469" y="783.7407407407408" type="line"/>
      <point x="368.4938271604938" y="783.7407407407408" type="line"/>
      <point x="368.4938271604938" y="1180.2345679012346" type="line"/>
      <point x="959.358024691358" y="1180.2345679012346" type="line"/>
      <point x="959.358024691358" y="1342.0740740740741" type="line"/>
      <point x="174.83950617283952" y="1342.0740740740741" type="line"/>
    </contour>
  </outline>
</glyph>
<glyph name="F" format="2">
  <advance width="1013.1358024691358"/>
  <unicode hex="0046"/>
  <anchor x="506.7407407407407" y="0.0" name="bottom"/>
  <anchor x="506.7407407407407" y="1342.0740740740741" name="top"/>
  <outline>
    <contour>
      <point x="174.83950617283952" y="0.0" type="line"/>
      <point x="368.4938271604938" y="0.0" type="line"/>
      <point x="368.4938271604938" y="587.6296296296297" type="line"/>
      <point x="871.5555555555555" y="587.6296296296297" type="line"/>
      <point x="871.5555555555555" y="749.4691358024692" type="line"/>
      <point x="368.4938271604938" y="749.4691358024692" type="line"/>
      <point x="368.4938271604938" y="1180.2345679012346" type="line"/>
      <point x="961.320987654321" y="1180.2345679012346" type="line"/>
      <point x="961.320987654321" y="1342.0740740740741" type="line"/>
      <point x="174.83950617283952" y="1342.0740740740741" type="line"/>
    </contour>
  </outline>
</glyph>
<glyph name="H" format="2">
  <advance width="1332.9382716049383"/>
  <unicode hex="0048"/>
  <anchor x="666.4691358024692" y="0.0" name="bottom"/>
  <anchor x="666.4691358024692" y="671.0370370370371" name="center"/>
  <anchor x="666.4691358024692" y="1342.0740740740741" name="top"/>
  <anchor x="20.0" y="1342.0740740740741" name="topleft"/>
  <outline>
    <contour>
      <point x="174.83950617283952" y="0.0" type="line"/>
      <point x="368.4938271604938" y="0.0" type="line"/>
      <point x="368.4938271604938" y="620.2469135802469" type="line"/>
      <point x="966.0987654320987" y="620.2469135802469" type="line"/>
      <point x="966.0987654320987" y="0.0" type="line"/>
      <point x="1157.7530864197531" y="0.0" type="line"/>
      <point x="1157.7530864197531" y="1342.0740740740741" type="line"/>
      <point x="966.0987654320987" y="1342.0740740740741" type="line"/>
      <point x="966.0987654320987" y="787.358024691358" type="line"/>
      <point x="368.4938271604938" y="787.358024691358" type="line"/>
      <point x="368.4938271604938" y="1342.0740740740741" type="line"/>
      <point x="174.83950617283952" y="1342.0740740740741" type="line"/>
    </contour>
  </outline>
</glyph>
<glyph name="I" format="2">
  <advance width="542.3333333333333"/>
  <unicode hex="0049"/>
  <anchor x="271.66666666666663" y="0.0" name="bottom"/>
  <anchor x="488.0617283950617" y="10.0" name="ogonek"/>
  <anchor x="271.66666666666663" y="1342.0740740740741" name="top"/>
  <anchor x="20.0" y="1342.0740740740741" name="topleft"/>
  <outline>
    <contour>
      <point x="174.83950617283952" y="0.0" type="line"/>
      <point x="368.4938271604938" y="0.0" type="line"/>
      <point x="368.4938271604938" y="1342.0740740740741" type="line"/>
      <point x="174.83950617283952" y="1342.0740740740741" type="line"/>
    </contour>
  </outline>
</glyph>
<glyph name="L" format="2">
  <advance width="996.4444444444445"/>
  <unicode hex="004C"/>
  <anchor x="498.39506172839504" y="0.0" name="bottom"/>
  <anchor x="498.39506172839504" y="671.0370370370371" name="center"/>
  <anchor x="498.39506172839504" y="1342.0740740740741" name="top"/>
  <anchor x="976.4444444444445" y="1342.0740740740741" name="topright"/>
  <outline>
    <contour>
      <point x="174.83950617283952" y="0.0" type="line"/>
      <point x="944.283950617284" y="0.0" type="line"/>
      <point x="944.283950617284" y="163.4938271604938" type="line"/>
      <point x="368.4938271604938" y="163.4938271604938" type="line"/>
      <point x="368.4938271604938" y="1342.0740740740741" type="line"/>
      <point x="174.83950617283952" y="1342.0740740740741" type="line"/>
    </contour>
  </outline>
</glyph>
<glyph name="O" format="2">
  <advance width="1358.2839506172838"/>
  <unicode hex="004F"/>
  <anchor x="679.4691358024692" y="0.0" name="bottom"/>
  <anchor x="679.4691358024692" y="671.0370370370371" name="center"/>
  <anchor x="1222.320987654321" y="10.0" name="ogonek"/>
  <anchor x="679.4691358024692" y="1342.0740740740741" name="top"/>
  <anchor x="20.0" y="1342.0740740740741" name="topleft"/>
  <anchor x="1338.2839506172838" y="1342.0740740740741" name="topright"/>
  <outline>
    <contour>
      <point x="677.8148148148148" y="-25.0" type="curve" smooth="yes"/>
      <point x="1028.5925925925926" y="-25.0"/>
      <point x="1257.9012345679012" y="231.45679012345678"/>
      <point x="1257.9012345679012" y="675.3456790123457" type="curve" smooth="yes"/>
      <point x="1257.9012345679012" y="1115.9259259259259"/>
      <point x="1028.5925925925926" y="1366.7283950617284"/>
      <point x="677.8148148148148" y="1366.7283950617284" type="curve" smooth="yes"/>
      <point x="326.69135802469134" y="1366.7283950617284"/>
      <point x="98.72839506172839" y="1117.5802469135801"/>
      <point x="98.72839506172839" y="675.3456790123457" type="curve" smooth="yes"/>
      <point x="98.72839506172839" y="231.45679012345678"/>
      <point x="326.69135802469134" y="-25.0"/>
    </contour>
    <contour>
      <point x="677.8148148148148" y="143.4938271604938" type="curve" smooth="yes"/>
      <point x="439.0617283950617" y="143.4938271604938"/>
      <point x="297.037037037037" y="342.2098765432099"/>
      <point x="297.037037037037" y="675.3456790123457" type="curve" smooth="yes"/>
      <point x="297.037037037037" y="1006.1728395061729"/>
      <point x="439.0617283950617" y="1199.2345679012346"/>
      <point x="677.8148148148148" y="1199.2345679012346" type="curve" smooth="yes"/>
      <point x="914.5679012345679" y="1199.2345679012346"/>
      <point x="1059.5925925925926" y="1006.1728395061729"/>
      <point x="1059.5925925925926" y="675.3456790123457" type="curve" smooth="yes"/>
      <point x="1059.5925925925926" y="342.2098765432099"/>
      <point x="914.5679012345679" y="143.4938271604938"/>
    </contour>
  </outline>
</glyph>
<glyph name="Q" format="2">
  <advance width="1358.2839506172838"/>
  <unicode hex="0051"/>
  <anchor x="679.4691358024692" y="0.0" name="bottom"/>
  <anchor x="679.4691358024692" y="1342.0740740740741" name="top"/>
  <outline>
    <contour>
      <point x="1033.6666666666667" y="-340.4320987654321" type="curve" smooth="yes"/>
      <point x="1117.4814814814815" y="-340.4320987654321"/>
      <point x="1199.0246913580247" y="-323.4691358024691"/>
      <point x="1240.9506172839506" y="-307.5432098765432" type="curve"/>
      <point x="1204.4444444444443" y="-160.2098765432099" type="line"/>
      <point x="1167.79012345679" y="-170.8641975308642"/>
      <point x="1114.20987654321" y="-181.51851851851853"/>
      <point x="1054.8641975308642" y="-181.51851851851853" type="curve" smooth="yes"/>
      <point x="950.4320987654321" y="-181.51851851851853"/>
      <point x="815.7901234567901" y="-157.64197530864197"/>
      <point x="788.8765432098766" y="-13.111111111111114" type="curve"/>
      <point x="1069.4074074074074" y="39.66666666666666"/>
      <point x="1255.2839506172838" y="285.1975308641975"/>
      <point x="1255.2839506172838" y="677.0370370370371" type="curve" smooth="yes"/>
      <point x="1255.2839506172838" y="1115.2716049382716"/>
      <point x="1025.6296296296296" y="1366.7283950617284"/>
      <point x="674.5061728395061" y="1366.7283950617284" type="curve" smooth="yes"/>
      <point x="324.38271604938274" y="1366.7283950617284"/>
      <point x="95.41975308641976" y="1117.2716049382716"/>
      <point x="95.41975308641976" y="677.0370370370371" type="curve" smooth="yes"/>
      <point x="95.41975308641976" y="276.61728395061726"/>
      <point x="290.87654320987656" y="27.12345679012345"/>
      <point x="581.9135802469136" y="-16.7283950617284" type="curve"/>
      <point x="634.0246913580247" y="-238.8148148148148"/>
      <point x="816.0987654320987" y="-340.4320987654321"/>
    </contour>
    <contour>
      <point x="674.5061728395061" y="143.4938271604938" type="curve" smooth="yes"/>
      <point x="438.4074074074074" y="143.4938271604938"/>
      <point x="294.074074074074" y="345.55555555555554"/>
      <point x="294.074074074074" y="677.0370370370371" type="curve" smooth="yes"/>
      <point x="294.074074074074" y="1006.5185185185186"/>
      <point x="438.4074074074074" y="1199.2345679012346"/>
      <point x="674.5061728395061" y="1199.2345679012346" type="curve" smooth="yes"/>
      <point x="910.604938271605" y="1199.2345679012346"/>
      <point x="1055.283950617284" y="1006.5185185185186"/>
      <point x="1055.283950617284" y="677.0370370370371" type="curve" smooth="yes"/>
      <point x="1055.283950617284" y="345.55555555555554"/>
      <point x="910.604938271605" y="143.4938271604938"/>
    </contour>
  </outline>
</glyph>
<glyph name="T" format="2">
  <advance width="1095.6296296296296"/>
  <unicode hex="0054"/>
  <anchor x="547.8148148148148" y="0.0" name="bottom"/>
  <anchor x="547.8148148148148" y="671.0370370370371" name="center"/>
  <anchor x="547.8148148148148" y="1342.0740740740741" name="top"/>
  <outline>
    <contour>
      <point x="451.98765432098764" y="0.0" type="line"/>
      <point x="643.9876543209876" y="0.0" type="line"/>
      <point x="643.9876543209876" y="1180.2345679012346" type="line"/>
      <point x="1044.2839506172838" y="1180.2345679012346" type="line"/>
      <point x="1044.2839506172838" y="1342.0740740740741" type="line"/>
      <point x="50.69135802469136" y="1342.0740740740741" type="line"/>
      <point x="50.69135802469136" y="1180.2345679012346" type="line"/>
      <point x="451.98765432098764" y="1180.2345679012346" type="line"/>
    </contour>
  </outline>
</glyph>
<glyph name="Z" format="2">
  <advance width="1096.2345679012346"/>
  <unicode hex="005A"/>
  <anchor x="548.6172839506173" y="0.0" name="bottom"/>
  <anchor x="548.6172839506173" y="671.0370370370371" name="center"/>
  <anchor x="548.6172839506173" y="1342.0740740740741" name="top"/>
  <outline>
    <contour>
      <point x="83.76543209876543" y="0.0" type="line"/>
      <point x="1016.4691358024692" y="0.0" type="line"/>
      <point x="1016.4691358024692" y="163.4938271604938" type="line"/>
      <point x="321.88888888888886" y="163.4938271604938" type="line"/>
      <point x="1010.7777777777777" y="1228.0123456790125" type="line"/>
      <point x="1010.7777777777777" y="1342.0740740740741" type="line"/>
      <point x="146.1851851851852" y="1342.0740740740741" type="line"/>
      <point x="146.1851851851852" y="1180.2345679012346" type="line"/>
      <point x="772.6913580246915" y="1180.2345679012346" type="line"/>
      <point x="83.76543209876543" y="115.71604938271602" type="line"/>
    </contour>
  </outline>
</glyph>
<glyph name="bracketleft" format="2">
  <advance width="634.679012345679"/>
  <unicode hex="005B"/>
  <outline>
    <contour>
      <point x="190.11111111111111" y="-311.0" type="line"/>
      <point x="566.9382716049382" y="-311.0" type="line"/>
      <point x="566.9382716049382" y="-204.4814814814815" type="line"/>
      <point x="333.3703703703703" y="-204.4814814814815" type="line"/>
      <point x="333.3703703703703" y="1341.1358024691358" type="line"/>
      <point x="566.9382716049382" y="1341.1358024691358" type="line"/>
      <point x="566.9382716049382" y="1450.0" type="line"/>
      <point x="190.11111111111111" y="1450.0" type="line"/>
    </contour>
  </outline>
</glyph>
<glyph name="backslash" format="2">
  <advance width="713.1851851851852"/>
  <unicode hex="005C"/>
  <outline>
    <contour>
      <point x="555.4691358024692" y="-328.0" type="line"/>
      <point x="691.5679012345679" y="-328.0" type="line"/>
      <point x="167.53086419753083" y="1454.0" type="line"/>
      <point x="33.43209876543209" y="1454.0" type="line"/>
    </contour>
  </outline>
</glyph>
<glyph name="underscore" format="2">
  <advance width="1024.0"/>
  <unicode hex="005F"/>
  <outline>
    <contour>
      <point x="5.3703703703703844" y="-262.77777777777777" type="line"/>
      <point x="1025.1728395061727" y="-262.77777777777777" type="line"/>
      <point x="1025.1728395061727" y="-140.22222222222223" type="line"/>
      <point x="5.3703703703703844" y="-140.22222222222223" type="line"/>
    </contour>
  </outline>
</glyph>
<glyph name="e" format="2">
  <advance width="1023.320987654321"/>
  <unicode hex="0065"/>
  <anchor x="519.0740740740741" y="0.0" name="bottom"/>
  <anchor x="841.358024691358" y="10.0" name="ogonek"/>
  <anchor x="525.9876543209876" y="998.5061728395061" name="top"/>
  <outline>
    <contour>
      <point x="573.5432098765432" y="-25.0" type="curve" smooth="yes"/>
      <point x="707.3086419753087" y="-25.0"/>
      <point x="817.0864197530864" y="17.037037037037038"/>
      <point x="905.6296296296296" y="74.58024691358024" type="curve"/>
      <point x="839.9259259259259" y="196.37037037037035" type="line"/>
      <point x="765.9259259259259" y="149.33333333333331"/>
      <point x="689.1975308641976" y="126.25925925925924"/>
      <point x="598.0493827160494" y="126.25925925925924" type="curve" smooth="yes"/>
      <point x="416.29629629629625" y="126.25925925925924"/>
      <point x="289.8024691358024" y="245.46913580246914"/>
      <point x="277.53086419753083" y="454.91358024691357" type="curve"/>
      <point x="939.0123456790124" y="454.91358024691357" type="line"/>
      <point x="943.0123456790124" y="479.2592592592593"/>
      <point x="945.9753086419753" y="514.8024691358024"/>
      <point x="945.9753086419753" y="553.0" type="curve" smooth="yes"/>
      <point x="945.9753086419753" y="842.7283950617284"/>
      <point x="811.9753086419753" y="1023.8518518518518"/>
      <point x="541.5802469135803" y="1023.8518518518518" type="curve" smooth="yes"/>
      <point x="301.03703703703707" y="1023.8518518518518"/>
      <point x="90.14814814814815" y="832.8148148148148"/>
      <point x="90.14814814814815" y="498.58024691358025" type="curve" smooth="yes"/>
      <point x="90.14814814814815" y="164.30864197530863"/>
      <point x="303.7283950617284" y="-25.0"/>
    </contour>
    <contour>
      <point x="275.8765432098765" y="578.358024691358" type="line"/>
      <point x="294.8765432098765" y="772.4567901234568"/>
      <point x="408.2098765432099" y="874.2469135802469"/>
      <point x="546.2345679012345" y="874.2469135802469" type="curve" smooth="yes"/>
      <point x="701.4938271604939" y="874.2469135802469"/>
      <point x="780.1358024691358" y="772.679012345679"/>
      <point x="780.1358024691358" y="578.358024691358" type="curve"/>
    </contour>
  </outline>
</glyph>
<glyph name="f" format="2">
  <advance width="614.5679012345679"/>
  <unicode hex="0066"/>
  <anchor x="307.28395061728395" y="0.0" name="bottom"/>
  <anchor x="312.7037037037037" y="1342.0740740740741" name="top"/>
  <outline>
    <contour>
      <point x="194.41975308641975" y="0.0" type="line"/>
      <point x="384.72839506172835" y="0.0" type="line"/>
      <point x="384.72839506172835" y="844.9382716049383" type="line"/>
      <point x="589.9506172839506" y="844.9382716049383" type="line"/>
      <point x="589.9506172839506" y="998.5061728395061" type="line"/>
      <point x="384.72839506172835" y="998.5061728395061" type="line"/>
      <point x="384.72839506172835" y="1142.2469135802469" type="line"/>
      <point x="384.72839506172835" y="1266.0864197530864"/>
      <point x="429.7654320987654" y="1325.6172839506173"/>
      <point x="519.9135802469135" y="1325.6172839506173" type="curve" smooth="yes"/>
      <point x="556.2592592592592" y="1325.6172839506173"/>
      <point x="594.9506172839506" y="1316.6172839506173"/>
      <point x="631.6419753086419" y="1301.5802469135804" type="curve"/>
      <point x="671.4938271604938" y="1445.530864197531" type="line"/>
      <point x="626.4938271604938" y="1463.2222222222222"/>
      <point x="564.604938271605" y="1479.1851851851852"/>
      <point x="498.7901234567901" y="1479.1851851851852" type="curve" smooth="yes"/>
      <point x="288.03703703703707" y="1479.1851851851852"/>
      <point x="194.41975308641975" y="1346.20987654321"/>
      <point x="194.41975308641975" y="1140.9753086419753" type="curve" smooth="yes"/>
      <point x="194.41975308641975" y="997.8518518518518" type="line"/>
      <point x="58.76543209876544" y="988.1975308641976" type="line"/>
      <point x="58.76543209876544" y="844.9382716049383" type="line"/>
      <point x="194.41975308641975" y="844.9382716049383" type="line"/>
    </contour>
  </outline>
</glyph>
<glyph name="h" format="2">
  <advance width="1122.9012345679012"/>
  <unicode hex="0068"/>
  <anchor x="561.7777777777777" y="0.0" name="bottom"/>
  <anchor x="561.7777777777777" y="929.2222222222222" name="center"/>
  <anchor x="256.4691358024691" y="1368.8024691358025" name="top"/>
  <outline>
    <contour>
      <point x="162.25925925925927" y="0.0" type="line"/>
      <point x="352.25925925925924" y="0.0" type="line"/>
      <point x="352.25925925925924" y="715.2592592592592" type="line"/>
      <point x="446.5185185185185" y="809.5555555555555"/>
      <point x="513.358024691358" y="859.0123456790124"/>
      <point x="610.8888888888889" y="859.0123456790124" type="curve" smooth="yes"/>
      <point x="737.9135802469136" y="859.0123456790124"/>
      <point x="788.3703703703704" y="787.7530864197531"/>
      <point x="788.3703703703704" y="607.4567901234568" type="curve" smooth="yes"/>
      <point x="788.3703703703704" y="0.0" type="line"/>
      <point x="978.679012345679" y="0.0" type="line"/>
      <point x="978.679012345679" y="633.0" type="line"/>
      <point x="978.679012345679" y="887.0"/>
      <point x="888.0246913580247" y="1023.5061728395061"/>
      <point x="673.4444444444445" y="1023.5061728395061" type="curve" smooth="yes"/>
      <point x="535.7901234567901" y="1023.5061728395061"/>
      <point x="435.4444444444444" y="949.8148148148148"/>
      <point x="344.98765432098764" y="863.320987654321" type="curve"/>
      <point x="352.25925925925924" y="1064.1604938271605" type="line"/>
      <point x="352.25925925925924" y="1454.8395061728395" type="line"/>
      <point x="162.25925925925927" y="1454.8395061728395" type="line"/>
    </contour>
  </outline>
</glyph>
<glyph name="j" format="2">
  <advance width="516.5185185185185"/>
  <unicode hex="006A"/>
  <anchor x="150.0864197530864" y="-234.56790123456796" name="btm"/>
  <anchor x="188.4567901234568" y="886.4197530864199" name="top"/>
  <outline>
    <contour>
      <point x="66.92592592592592" y="-436.98765432098764" type="curve" smooth="yes"/>
      <point x="277.98765432098764" y="-436.98765432098764"/>
      <point x="354.25925925925924" y="-302.4320987654321"/>
      <point x="354.25925925925924" y="-96.58024691358028" type="curve" smooth="yes"/>
      <point x="354.25925925925924" y="998.5061728395061" type="line"/>
      <point x="163.9135802469136" y="998.5061728395061" type="line"/>
      <point x="163.9135802469136" y="-97.5061728395062" type="line"/>
      <point x="163.9135802469136" y="-216.8888888888889"/>
      <point x="138.95061728395063" y="-283.4197530864198"/>
      <point x="43.802469135802475" y="-283.4197530864198" type="curve" smooth="yes"/>
      <point x="9.419753086419757" y="-283.4197530864198"/>
      <point x="-23.308641975308642" y="-275.7283950617284"/>
      <point x="-47.96296296296296" y="-267.7283950617284" type="curve"/>
      <point x="-85.1604938271605" y="-410.67901234567904" type="line"/>
      <point x="-49.5432098765432" y="-424.98765432098764"/>
      <point x="1.7654320987654355" y="-436.98765432098764"/>
    </contour>
    <contour>
      <point x="261.08641975308643" y="1194.6049382716049" type="curve" smooth="yes"/>
      <point x="330.48148148148147" y="1194.6049382716049"/>
      <point x="385.98765432098764" y="1242.7654320987654"/>
      <point x="385.98765432098764" y="1310.888888888889" type="curve" smooth="yes"/>
      <point x="385.98765432098764" y="1381.358024691358"/>
      <point x="330.48148148148147" y="1427.8641975308642"/>
      <point x="261.08641975308643" y="1427.8641975308642" type="curve" smooth="yes"/>
      <point x="189.03703703703704" y="1427.8641975308642"/>
      <point x="134.53086419753086" y="1381.358024691358"/>
      <point x="134.53086419753086" y="1310.888888888889" type="curve" smooth="yes"/>
      <point x="134.53086419753086" y="1242.7654320987654"/>
      <point x="189.03703703703704" y="1194.6049382716049"/>
    </contour>
  </outline>
</glyph>
<glyph name="k" format="2">
  <advance width="1031.8395061728395"/>
  <unicode hex="006B"/>
  <anchor x="516.2469135802469" y="0.0" name="bottom"/>
  <anchor x="516.2469135802469" y="1858.0987654320986" name="top"/>
  <outline>
    <contour>
      <point x="162.25925925925927" y="0.0" type="line"/>
      <point x="348.9506172839506" y="0.0" type="line"/>
      <point x="348.9506172839506" y="259.41975308641975" type="line"/>
      <point x="525.7407407407408" y="464.6296296296297" type="line"/>
      <point x="806.5308641975308" y="0.0" type="line"/>
      <point x="1014.1111111111111" y="0.0" type="line"/>
      <point x="634.4938271604938" y="596.3086419753087" type="line"/>
      <point x="972.3086419753085" y="998.5061728395061" type="line"/>
      <point x="762.7283950617284" y="998.5061728395061" type="line"/>
      <point x="355.6049382716049" y="494.5802469135802" type="line"/>
      <point x="348.9506172839506" y="494.5802469135802" type="line"/>
      <point x="348.9506172839506" y="1454.8395061728395" type="line"/>
      <point x="162.25925925925927" y="1454.8395061728395" type="line"/>
    </contour>
  </outline>
</glyph>
<glyph name="t" format="2">
  <advance width="707.2962962962963"/>
  <unicode hex="0074"/>
  <anchor x="413.9753086419753" y="0.0" name="bottom"/>
  <anchor x="554.716049382716" y="997.1975308641976" name="car"/>
  <anchor x="353.9753086419753" y="499.58024691358025" name="center"/>
  <anchor x="297.08641975308643" y="1193.0" name="top"/>
  <anchor x="518.3086419753085" y="998.5061728395061" name="topright"/>
  <outline>
    <contour>
      <point x="488.01234567901236" y="-25.0" type="curve" smooth="yes"/>
      <point x="557.0617283950617" y="-25.0"/>
      <point x="624.3333333333333" y="-5.691358024691359"/>
      <point x="679.679012345679" y="12.0" type="curve"/>
      <point x="644.1358024691358" y="154.29629629629628" type="line"/>
      <point x="612.7530864197531" y="142.6049382716049"/>
      <point x="569.0246913580247" y="128.91358024691357"/>
      <point x="534.3333333333333" y="128.91358024691357" type="curve" smooth="yes"/>
      <point x="425.72839506172835" y="128.91358024691357"/>
      <point x="384.8395061728395" y="194.75308641975306"/>
      <point x="384.8395061728395" y="316.1358024691358" type="curve" smooth="yes"/>
      <point x="384.8395061728395" y="844.9382716049383" type="line"/>
      <point x="649.3703703703703" y="844.9382716049383" type="line"/>
      <point x="649.3703703703703" y="998.5061728395061" type="line"/>
      <point x="384.8395061728395" y="998.5061728395061" type="line"/>
      <point x="384.8395061728395" y="1276.5802469135801" type="line"/>
      <point x="225.0" y="1276.5802469135801" type="line"/>
      <point x="202.11111111111111" y="998.5061728395061" type="line"/>
      <point x="46.76543209876544" y="988.1975308641976" type="line"/>
      <point x="46.76543209876544" y="844.9382716049383" type="line"/>
      <point x="193.1851851851852" y="844.9382716049383" type="line"/>
      <point x="193.1851851851852" y="317.8641975308642" type="line"/>
      <point x="193.1851851851852" y="114.1604938271605"/>
      <point x="268.96296296296293" y="-25.0"/>
    </contour>
  </outline>
</glyph>
<glyph name="u" format="2">
  <advance width="1121.9382716049383"/>
  <unicode hex="0075"/>
  <anchor x="561.4691358024692" y="0.0" name="bottom"/>
  <anchor x="1020.0123456790124" y="10.0" name="ogonek"/>
  <anchor x="551.4691358024692" y="998.5061728395061" name="top"/>
  <anchor x="1101.9382716049383" y="998.5061728395061" name="topright"/>
  <outline>
    <contour>
      <point x="455.4938271604938" y="-25.0" type="curve" smooth="yes"/>
      <point x="598.8024691358024" y="-25.0"/>
      <point x="690.8395061728395" y="45.7283950617284"/>
      <point x="781.5679012345679" y="153.11111111111111" type="curve"/>
      <point x="788.2222222222223" y="153.11111111111111" type="line"/>
      <point x="803.4938271604939" y="0.0" type="line"/>
      <point x="960.3333333333333" y="0.0" type="line"/>
      <point x="960.3333333333333" y="998.5061728395061" type="line"/>
      <point x="770.0246913580247" y="998.5061728395061" type="line"/>
      <point x="770.0246913580247" y="298.2469135802469" type="line"/>
      <point x="681.4197530864197" y="187.29629629629628"/>
      <point x="620.8888888888889" y="139.4938271604938"/>
      <point x="517.358024691358" y="139.4938271604938" type="curve" smooth="yes"/>
      <point x="387.02469135802465" y="139.4938271604938"/>
      <point x="340.2222222222222" y="211.4074074074074"/>
      <point x="340.2222222222222" y="391.04938271604937" type="curve" smooth="yes"/>
      <point x="340.2222222222222" y="998.5061728395061" type="line"/>
      <point x="148.9135802469136" y="998.5061728395061" type="line"/>
      <point x="148.9135802469136" y="365.5061728395062" type="line"/>
      <point x="148.9135802469136" y="111.50617283950616"/>
      <point x="236.9135802469136" y="-25.0"/>
    </contour>
  </outline>
</glyph>
<glyph name="z" format="2">
  <advance width="881.4444444444445"/>
  <unicode hex="007A"/>
  <anchor x="441.04938271604937" y="0.0" name="bottom"/>
  <anchor x="441.04938271604937" y="499.58024691358025" name="center"/>
  <anchor x="441.04938271604937" y="998.5061728395061" name="top"/>
  <outline>
    <contour>
      <point x="65.88888888888889" y="0.0" type="line"/>
      <point x="829.7530864197531" y="0.0" type="line"/>
      <point x="829.7530864197531" y="153.91358024691357" type="line"/>
      <point x="305.9753086419753" y="153.91358024691357" type="line"/>
      <point x="814.0617283950617" y="897.0617283950618" type="line"/>
      <point x="814.0617283950617" y="998.5061728395061" type="line"/>
      <point x="121.96296296296296" y="998.5061728395061" type="line"/>
      <point x="121.96296296296296" y="844.9382716049383" type="line"/>
      <point x="573.9753086419753" y="844.9382716049383" type="line"/>
      <point x="65.88888888888889" y="101.7901234567901" type="line"/>
    </contour>
  </outline>
</glyph>
<glyph name="bar" format="2">
  <advance width="503.2469135802469"/>
  <unicode hex="007C"/>
  <outline>
    <contour>
      <point x="185.76543209876544" y="-512.0" type="line"/>
      <point x="317.82716049382714" y="-512.0" type="line"/>
      <point x="317.82716049382714" y="1536.0" type="line"/>
      <point x="185.76543209876544" y="1536.0" type="line"/>
    </contour>
  </outline>
</glyph>
<glyph name="brokenbar" format="2">
  <advance width="503.2469135802469"/>
  <unicode hex="00A6"/>
  <outline>
    <contour>
      <point x="185.76543209876544" y="-512.0" type="line"/>
      <point x="317.82716049382714" y="-512.0" type="line"/>
      <point x="317.82716049382714" y="434.4938271604938" type="line"/>
      <point x="185.76543209876544" y="434.4938271604938" type="line"/>
    </contour>
    <contour>
      <point x="185.76543209876544" y="603.0123456790124" type="line"/>
      <point x="317.82716049382714" y="603.0123456790124" type="line"/>
      <point x="317.82716049382714" y="1536.0" type="line"/>
      <point x="185.76543209876544" y="1536.0" type="line"/>
    </contour>
  </outline>
</glyph>
<glyph name="dieresis" format="2">
  <advance width="1114.469135802469"/>
  <unicode hex="00A8"/>
  <outline>
    <contour>
      <point x="376.7654320987654" y="1198.6049382716049" type="curve" smooth="yes"/>
      <point x="438.88888888888886" y="1198.6049382716049"/>
      <point x="483.77777777777777" y="1244.4567901234568"/>
      <point x="483.77777777777777" y="1306.2716049382716" type="curve" smooth="yes"/>
      <point x="483.77777777777777" y="1366.7407407407406"/>
      <point x="438.88888888888886" y="1412.9382716049383"/>
      <point x="376.7654320987654" y="1412.9382716049383" type="curve" smooth="yes"/>
      <point x="314.641975308642" y="1412.9382716049383"/>
      <point x="269.7530864197531" y="1366.7407407407406"/>
      <point x="269.7530864197531" y="1306.2716049382716" type="curve" smooth="yes"/>
      <point x="269.7530864197531" y="1244.4567901234568"/>
      <point x="314.641975308642" y="1198.6049382716049"/>
    </contour>
    <contour>
      <point x="738.358024691358" y="1198.6049382716049" type="curve" smooth="yes"/>
      <point x="801.8271604938271" y="1198.6049382716049"/>
      <point x="845.3703703703703" y="1244.4567901234568"/>
      <point x="845.3703703703703" y="1306.2716049382716" type="curve" smooth="yes"/>
      <point x="845.3703703703703" y="1366.7407407407406"/>
      <point x="801.8271604938271" y="1412.9382716049383"/>
      <point x="738.358024691358" y="1412.9382716049383" type="curve" smooth="yes"/>
      <point x="676.2345679012345" y="1412.9382716049383"/>
      <point x="632.0370370370371" y="1366.7407407407406"/>
      <point x="632.0370370370371" y="1306.2716049382716" type="curve" smooth="yes"/>
      <point x="632.0370370370371" y="1244.4567901234568"/>
      <point x="676.2345679012345" y="1198.6049382716049"/>
    </contour>
  </outline>
</glyph>
<glyph name="macron" format="2">
  <advance width="1114.469135802469"/>
  <unicode hex="00AF"/>
  <outline>
    <contour>
      <point x="301.8024691358025" y="1227.8024691358025" type="line"/>
      <point x="814.320987654321" y="1227.8024691358025" type="line"/>
      <point x="814.320987654321" y="1356.9012345679012" type="line"/>
      <point x="301.8024691358025" y="1356.9012345679012" type="line"/>
    </contour>
  </outline>
</glyph>
<glyph name="acute" format="2">
  <advance width="1114.469135802469"/>
  <unicode hex="00B4"/>
  <outline>
    <contour>
      <point x="379.2345679012346" y="1174.3086419753085" type="line"/>
      <point x="523.5308641975308" y="1174.3086419753085" type="line"/>
      <point x="758.0370370370371" y="1465.5061728395062" type="line"/>
      <point x="563.5802469135803" y="1465.5061728395062" type="line"/>
    </contour>
  </outline>
</glyph>
<glyph name="Hbar" format="2">
  <advance width="1406.8641975308642"/>
  <unicode hex="0126"/>
  <outline>
    <contour>
      <point x="211.80246913580248" y="0.0" type="line"/>
      <point x="403.8024691358024" y="0.0" type="line"/>
      <point x="403.8024691358024" y="620.2469135802469" type="line"/>
      <point x="1001.0617283950618" y="620.2469135802469" type="line"/>
      <point x="1001.0617283950618" y="0.0" type="line"/>
      <point x="1195.0617283950617" y="0.0" type="line"/>
      <point x="1195.0617283950617" y="1005.4197530864197" type="line"/>
      <point x="1346.79012345679" y="1005.4197530864197" type="line"/>
      <point x="1346.79012345679" y="1110.0493827160494" type="line"/>
      <point x="1195.0617283950617" y="1110.0493827160494" type="line"/>
      <point x="1195.0617283950617" y="1342.0740740740741" type="line"/>
      <point x="1001.0617283950618" y="1342.0740740740741" type="line"/>
      <point x="1001.0617283950618" y="1110.0493827160494" type="line"/>
      <point x="403.8024691358024" y="1110.0493827160494" type="line"/>
      <point x="403.8024691358024" y="1342.0740740740741" type="line"/>
      <point x="211.80246913580248" y="1342.0740740740741" type="line"/>
      <point x="211.80246913580248" y="1110.0493827160494" type="line"/>
      <point x="58.76543209876544" y="1106.5925925925926" type="line"/>
      <point x="58.76543209876544" y="1005.4197530864197" type="line"/>
      <point x="211.80246913580248" y="1005.4197530864197" type="line"/>
    </contour>
    <contour>
      <point x="403.8024691358024" y="787.358024691358" type="line"/>
      <point x="403.8024691358024" y="1005.4197530864197" type="line"/>
      <point x="1001.0617283950618" y="1005.4197530864197" type="line"/>
      <point x="1001.0617283950618" y="787.358024691358" type="line"/>
    </contour>
  </outline>
</glyph>
<glyph name="tbar" format="2">
  <advance width="707.2962962962963"/>
  <unicode hex="0167"/>
  <anchor x="413.9753086419753" y="0.0" name="bottom"/>
  <anchor x="554.716049382716" y="997.1975308641976" name="car"/>
  <anchor x="353.9753086419753" y="499.58024691358025" name="center"/>
  <anchor x="297.08641975308643" y="1193.0" name="top"/>
  <anchor x="518.3086419753085" y="998.5061728395061" name="topright"/>
  <outline>
    <contour>
      <point x="48.76543209876544" y="501.5555555555556" type="line"/>
      <point x="648.9506172839506" y="501.5555555555556" type="line"/>
      <point x="648.9506172839506" y="654.4320987654321" type="line"/>
      <point x="48.76543209876544" y="654.4320987654321" type="line"/>
    </contour>
    <component base="t"/>
  </outline>
</glyph>
<glyph name="Ohorn" format="2">
  <advance width="1358.2839506172838"/>
  <unicode hex="01A0"/>
  <anchor x="679.8148148148148" y="0.0" name="bottom"/>
  <anchor x="682.0864197530864" y="-234.56790123456796" name="btm"/>
  <anchor x="679.8148148148148" y="1340.0" name="top"/>
  <outline>
    <contour>
      <point x="679.1604938271605" y="-25.0" type="curve" smooth="yes"/>
      <point x="1019.9753086419753" y="-25.0"/>
      <point x="1258.2469135802469" y="244.7283950617284"/>
      <point x="1258.2469135802469" y="677.0370370370371" type="curve" smooth="yes"/>
      <point x="1258.2469135802469" y="921.1851851851852"/>
      <point x="1180.4814814814815" y="1109.641975308642"/>
      <point x="1052.3703703703704" y="1228.2962962962963" type="curve"/>
      <point x="1180.3333333333333" y="1260.2592592592594"/>
      <point x="1261.9506172839506" y="1329.1851851851852"/>
      <point x="1261.9506172839506" y="1448.7283950617284" type="curve" smooth="yes"/>
      <point x="1261.9506172839506" y="1502.2716049382716"/>
      <point x="1241.0246913580247" y="1549.8148148148148"/>
      <point x="1213.716049382716" y="1586.8148148148148" type="curve"/>
      <point x="1078.037037037037" y="1522.7283950617284" type="line"/>
      <point x="1095.3827160493827" y="1496.3827160493827"/>
      <point x="1107.6913580246915" y="1467.7654320987654"/>
      <point x="1107.6913580246915" y="1436.8024691358025" type="curve" smooth="yes"/>
      <point x="1107.6913580246915" y="1360.4567901234568"/>
      <point x="1056.2716049382716" y="1321.7283950617284"/>
      <point x="948.6666666666666" y="1301.7283950617284" type="curve"/>
      <point x="870.0493827160494" y="1344.7283950617284"/>
      <point x="779.4320987654321" y="1366.7283950617284"/>
      <point x="679.1604938271605" y="1366.7283950617284" type="curve" smooth="yes"/>
      <point x="338.30864197530866" y="1366.7283950617284"/>
      <point x="98.72839506172839" y="1108.3086419753085"/>
      <point x="98.72839506172839" y="677.0370370370371" type="curve" smooth="yes"/>
      <point x="98.72839506172839" y="244.7283950617284"/>
      <point x="338.30864197530866" y="-25.0"/>
    </contour>
    <contour>
      <point x="679.1604938271605" y="143.4938271604938" type="curve" smooth="yes"/>
      <point x="448.3703703703703" y="143.4938271604938"/>
      <point x="297.037037037037" y="352.5185185185185"/>
      <point x="297.037037037037" y="677.0370370370371" type="curve" smooth="yes"/>
      <point x="297.037037037037" y="1000.2098765432099"/>
      <point x="448.3703703703703" y="1199.2345679012346"/>
      <point x="679.1604938271605" y="1199.2345679012346" type="curve" smooth="yes"/>
      <point x="909.2592592592592" y="1199.2345679012346"/>
      <point x="1059.5925925925926" y="1000.2098765432099"/>
      <point x="1059.5925925925926" y="677.0370370370371" type="curve" smooth="yes"/>
      <point x="1059.5925925925926" y="352.5185185185185"/>
      <point x="909.2592592592592" y="143.4938271604938"/>
    </contour>
  </outline>
</glyph>
<glyph name="commaturnedmod" format="2">
  <advance width="300.9506172839506"/>
  <unicode hex="02BB"/>
  <outline>
    <contour>
      <point x="149.82716049382714" y="845.4074074074075" type="curve" smooth="yes"/>
      <point x="216.95061728395058" y="845.4074074074075"/>
      <point x="266.45679012345676" y="892.9135802469136"/>
      <point x="266.45679012345676" y="967.6543209876544" type="curve" smooth="yes"/>
      <point x="266.45679012345676" y="1039.1234567901236"/>
      <point x="209.95061728395058" y="1079.6296296296296"/>
      <point x="149.82716049382714" y="1079.6296296296296" type="curve" smooth="yes"/>
      <point x="143.82716049382714" y="1079.6296296296296"/>
      <point x="136.1728395061728" y="1079.6296296296296"/>
      <point x="130.5185185185185" y="1077.6296296296296" type="curve"/>
      <point x="130.5185185185185" y="1194.9382716049383"/>
      <point x="184.44444444444443" y="1266.20987654321"/>
      <point x="290.9506172839506" y="1332.9382716049383" type="curve"/>
      <point x="239.09876543209873" y="1420.530864197531" type="line"/>
      <point x="88.85185185185185" y="1336.641975308642"/>
      <point x="10.0" y="1213.20987654321"/>
      <point x="10.0" y="1044.432098765432" type="curve" smooth="yes"/>
      <point x="10.0" y="917.4938271604939"/>
      <point x="60.197530864197525" y="845.4074074074075"/>
    </contour>
  </outline>
</glyph>
<glyph name="apostrophemod" format="2">
  <advance width="301.9506172839506"/>
  <unicode hex="02BC"/>
  <outline>
    <contour>
      <point x="60.197530864197525" y="855.9135802469136" type="line"/>
      <point x="211.09876543209873" y="940.1111111111112"/>
      <point x="291.9506172839506" y="1062.2345679012346"/>
      <point x="291.9506172839506" y="1230.6666666666667" type="curve" smooth="yes"/>
      <point x="291.9506172839506" y="1358.2592592592594"/>
      <point x="239.44444444444443" y="1431.037037037037"/>
      <point x="151.77777777777777" y="1431.037037037037" type="curve" smooth="yes"/>
      <point x="84.0" y="1431.037037037037"/>
      <point x="35.49382716049384" y="1384.530864197531"/>
      <point x="35.49382716049384" y="1307.4444444444446" type="curve" smooth="yes"/>
      <point x="35.49382716049384" y="1236.9753086419753"/>
      <point x="89.69135802469135" y="1196.469135802469"/>
      <point x="151.77777777777777" y="1196.469135802469" type="curve" smooth="yes"/>
      <point x="157.77777777777777" y="1196.469135802469"/>
      <point x="162.77777777777777" y="1196.469135802469"/>
      <point x="169.4320987654321" y="1199.469135802469" type="curve"/>
      <point x="169.4320987654321" y="1079.5061728395062"/>
      <point x="115.50617283950616" y="1009.2345679012346"/>
      <point x="10.0" y="942.5061728395062" type="curve"/>
    </contour>
  </outline>
</glyph>
<glyph name="ringhalfright" format="2">
  <advance width="253.7037037037037"/>
  <unicode hex="02BE"/>
  <outline>
    <contour>
      <point x="10.0" y="1112.5802469135801" type="line"/>
      <point x="162.0864197530864" y="1107.2716049382716"/>
      <point x="243.7037037037037" y="1185.1604938271605"/>
      <point x="243.7037037037037" y="1305.0864197530864" type="curve" smooth="yes"/>
      <point x="243.7037037037037" y="1424.0123456790122"/>
      <point x="162.0864197530864" y="1502.2469135802469"/>
      <point x="10.0" y="1496.9382716049383" type="curve"/>
      <point x="10.0" y="1417.888888888889" type="line"/>
      <point x="103.03703703703704" y="1417.888888888889"/>
      <point x="139.11111111111111" y="1371.5061728395062"/>
      <point x="139.11111111111111" y="1305.0864197530864" type="curve" smooth="yes"/>
      <point x="139.11111111111111" y="1238.0123456790122"/>
      <point x="103.03703703703704" y="1191.9382716049383"/>
      <point x="10.0" y="1191.9382716049383" type="curve"/>
    </contour>
  </outline>
</glyph>
<glyph name="circumflex" format="2">
  <advance width="1114.469135802469"/>
  <unicode hex="02C6"/>
  <outline>
    <contour>
      <point x="285.641975308642" y="1174.3086419753085" type="line"/>
      <point x="421.01234567901236" y="1174.3086419753085" type="line"/>
      <point x="553.2345679012345" y="1356.1851851851852" type="line"/>
      <point x="561.2345679012345" y="1356.1851851851852" type="line"/>
      <point x="694.1111111111111" y="1174.3086419753085" type="line"/>
      <point x="829.8271604938271" y="1174.3086419753085" type="line"/>
      <point x="635.5185185185185" y="1465.5061728395062" type="line"/>
      <point x="478.95061728395063" y="1465.5061728395062" type="line"/>
    </contour>
  </outline>
</glyph>
<glyph name="verticallinemod" format="2">
  <advance width="179.6049382716049"/>
  <unicode hex="02C8"/>
  <outline>
    <contour>
      <point x="22.34567901234568" y="1093.888888888889" type="line"/>
      <point x="157.6049382716049" y="1093.888888888889" type="line"/>
      <point x="169.6049382716049" y="1474.2839506172838" type="line"/>
      <point x="10.0" y="1474.2839506172838" type="line"/>
    </contour>
  </outline>
</glyph>
<glyph name="secondtonechinese" format="2">
  <advance width="399.8024691358024"/>
  <unicode hex="02CA"/>
  <outline>
    <contour>
      <point x="10.0" y="1174.3086419753085" type="line"/>
      <point x="154.29629629629628" y="1174.3086419753085" type="line"/>
      <point x="389.8024691358024" y="1465.5061728395062" type="line"/>
      <point x="194.69135802469137" y="1465.5061728395062" type="line"/>
    </contour>
  </outline>
</glyph>
<glyph name="fourthtonechinese" format="2">
  <advance width="398.8024691358024"/>
  <unicode hex="02CB"/>
  <outline>
    <contour>
      <point x="244.8148148148148" y="1174.3086419753085" type="line"/>
      <point x="388.8024691358024" y="1174.3086419753085" type="line"/>
      <point x="204.76543209876542" y="1465.5061728395062" type="line"/>
      <point x="10.0" y="1465.5061728395062" type="line"/>
    </contour>
  </outline>
</glyph>
<glyph name="verticallinelowmod" format="2">
  <advance width="154.0864197530864"/>
  <unicode hex="02CC"/>
  <outline>
    <contour>
      <point x="10.0" y="-514.0" type="line"/>
      <point x="144.0864197530864" y="-514.0" type="line"/>
      <point x="132.0864197530864" y="-149.0" type="line"/>
      <point x="23.0" y="-149.0" type="line"/>
    </contour>
  </outline>
</glyph>
<glyph name="dotaccent" format="2">
  <advance width="1114.469135802469"/>
  <unicode hex="02D9"/>
  <outline>
    <contour>
      <point x="557.2345679012345" y="1194.6049382716049" type="curve" smooth="yes"/>
      <point x="625.9753086419753" y="1194.6049382716049"/>
      <point x="677.1358024691358" y="1242.7654320987654"/>
      <point x="677.1358024691358" y="1313.5802469135801" type="curve" smooth="yes"/>
      <point x="677.1358024691358" y="1381.358024691358"/>
      <point x="625.9753086419753" y="1430.8641975308642"/>
      <point x="557.2345679012345" y="1430.8641975308642" type="curve" smooth="yes"/>
      <point x="488.4938271604938" y="1430.8641975308642"/>
      <point x="436.98765432098764" y="1381.358024691358"/>
      <point x="436.98765432098764" y="1313.5802469135801" type="curve" smooth="yes"/>
      <point x="436.98765432098764" y="1242.7654320987654"/>
      <point x="488.4938271604938" y="1194.6049382716049"/>
    </contour>
  </outline>
</glyph>
<glyph name="hungarumlaut" format="2">
  <advance width="1114.469135802469"/>
  <unicode hex="02DD"/>
  <outline>
    <contour>
      <point x="346.98765432098764" y="1169.962962962963" type="line"/>
      <point x="471.77777777777777" y="1169.962962962963" type="line"/>
      <point x="654.320987654321" y="1465.5061728395062" type="line"/>
      <point x="492.0246913580247" y="1465.5061728395062" type="line"/>
    </contour>
    <contour>
      <point x="656.6172839506173" y="1169.962962962963" type="line"/>
      <point x="781.0617283950617" y="1169.962962962963" type="line"/>
      <point x="962.9506172839506" y="1465.5061728395062" type="line"/>
      <point x="801.3086419753087" y="1465.5061728395062" type="line"/>
    </contour>
  </outline>
</glyph>
<glyph name="acutecomb" format="2">
  <unicode hex="0301"/>
  <anchor x="116.81481481481481" y="998.5061728395061" name="_top"/>
  <anchor x="191.0864197530864" y="1360.0864197530864" name="top"/>
  <outline>
    <contour>
      <point x="10.0" y="1174.3086419753085" type="line"/>
      <point x="153.98765432098764" y="1174.3086419753085" type="line"/>
      <point x="389.1481481481481" y="1465.5061728395062" type="line"/>
      <point x="194.03703703703704" y="1465.5061728395062" type="line"/>
    </contour>
  </outline>
</glyph>
<glyph name="tildecomb" format="2">
  <unicode hex="0303"/>
  <anchor x="304.2469135802469" y="998.5061728395061" name="_top"/>
  <anchor x="304.2469135802469" y="1410.9382716049383" name="top"/>
  <outline>
    <contour>
      <point x="10.0" y="1184.7283950617284" type="curve"/>
      <point x="115.20987654320986" y="1184.7283950617284" type="line"/>
      <point x="127.5185185185185" y="1253.4197530864199"/>
      <point x="149.20987654320987" y="1286.4938271604938"/>
      <point x="189.2469135802469" y="1286.4938271604938" type="curve" smooth="yes"/>
      <point x="257.9753086419753" y="1286.4938271604938"/>
      <point x="319.2098765432099" y="1184.7283950617284"/>
      <point x="424.5185185185185" y="1184.7283950617284" type="curve" smooth="yes"/>
      <point x="526.1358024691358" y="1184.7283950617284"/>
      <point x="585.5679012345679" y="1278.0740740740741"/>
      <point x="598.4938271604938" y="1410.9382716049383" type="curve"/>
      <point x="493.28395061728395" y="1410.9382716049383" type="line"/>
      <point x="480.9753086419753" y="1342.5925925925926"/>
      <point x="459.28395061728395" y="1308.8271604938273"/>
      <point x="419.2469135802469" y="1308.8271604938273" type="curve" smooth="yes"/>
      <point x="353.8641975308642" y="1308.8271604938273"/>
      <point x="289.28395061728395" y="1410.9382716049383"/>
      <point x="183.9753086419753" y="1410.9382716049383" type="curve" smooth="yes"/>
      <point x="82.35802469135801" y="1410.9382716049383"/>
      <point x="22.925925925925924" y="1318.2469135802469"/>
    </contour>
  </outline>
</glyph>
<glyph name="hookabovecomb" format="2">
  <unicode hex="0309"/>
  <anchor x="166.87654320987653" y="998.5061728395061" name="_top"/>
  <anchor x="166.87654320987653" y="1496.9382716049383" name="top"/>
  <outline>
    <contour>
      <point x="86.85185185185185" y="1134.2716049382716" type="line"/>
      <point x="211.2469135802469" y="1152.6913580246915"/>
      <point x="323.75308641975306" y="1205.2716049382716"/>
      <point x="323.75308641975306" y="1327.7777777777778" type="curve" smooth="yes"/>
      <point x="323.75308641975306" y="1433.0864197530864"/>
      <point x="221.64197530864195" y="1490.9382716049383"/>
      <point x="30.888888888888886" y="1496.9382716049383" type="curve"/>
      <point x="10.0" y="1390.6913580246915" type="line"/>
      <point x="123.65432098765432" y="1385.037037037037"/>
      <point x="178.7283950617284" y="1358.3086419753085"/>
      <point x="178.7283950617284" y="1307.1975308641975" type="curve" smooth="yes"/>
      <point x="178.7283950617284" y="1257.7777777777778"/>
      <point x="130.65432098765433" y="1235.358024691358"/>
      <point x="67.5432098765432" y="1218.6296296296296" type="curve"/>
    </contour>
  </outline>
</glyph>
<glyph name="dblgravecomb" format="2">
  <unicode hex="030F"/>
  <anchor x="318.3086419753086" y="998.5061728395061" name="_top"/>
  <anchor x="318.3086419753086" y="1465.5061728395062" name="top"/>
  <outline>
    <contour>
      <point x="192.88888888888889" y="1169.962962962963" type="line"/>
      <point x="317.98765432098764" y="1169.962962962963" type="line"/>
      <point x="173.29629629629628" y="1465.5061728395062" type="line"/>
      <point x="10.0" y="1465.5061728395062" type="line"/>
    </contour>
    <contour>
      <point x="502.1728395061728" y="1169.962962962963" type="line"/>
      <point x="626.6172839506172" y="1169.962962962963" type="line"/>
      <point x="483.5802469135802" y="1465.5061728395062" type="line"/>
      <point x="319.6296296296296" y="1465.5061728395062" type="line"/>
    </contour>
  </outline>
</glyph>
<glyph name="horncomb" format="2">
  <unicode hex="031B"/>
  <anchor x="-10.0" y="998.5061728395061" name="_topright"/>
  <anchor x="350.8641975308642" y="1263.9382716049383" name="topright"/>
  <outline>
    <contour>
      <point x="27.2716049382716" y="888.4567901234568" type="line"/>
      <point x="198.4320987654321" y="903.8395061728395"/>
      <point x="330.8641975308642" y="972.4197530864197"/>
      <point x="330.8641975308642" y="1125.5061728395062" type="curve" smooth="yes"/>
      <point x="330.8641975308642" y="1180.0493827160494"/>
      <point x="308.9382716049383" y="1226.9382716049383"/>
      <point x="281.6296296296296" y="1263.9382716049383" type="curve"/>
      <point x="145.95061728395063" y="1199.5061728395062" type="line"/>
      <point x="162.2962962962963" y="1173.8148148148148"/>
      <point x="176.25925925925927" y="1143.8518518518517"/>
      <point x="176.25925925925927" y="1112.5802469135801" type="curve" smooth="yes"/>
      <point x="176.25925925925927" y="1029.2716049382716"/>
      <point x="118.56790123456791" y="993.8518518518518"/>
      <point x="10.0" y="978.5061728395061" type="curve"/>
    </contour>
  </outline>
</glyph>
<glyph name="dotbelowcomb" format="2">
  <unicode hex="0323"/>
  <anchor x="129.9012345679012" y="0.0" name="_bottom"/>
  <anchor x="129.9012345679012" y="-429.01234567901236" name="bottom"/>
  <outline>
    <contour>
      <point x="129.9012345679012" y="-429.01234567901236" type="curve" smooth="yes"/>
      <point x="198.98765432098764" y="-429.01234567901236"/>
      <point x="249.80246913580243" y="-380.5061728395062"/>
      <point x="249.80246913580243" y="-310.03703703703707" type="curve" smooth="yes"/>
      <point x="249.80246913580243" y="-241.9135802469136"/>
      <point x="198.98765432098764" y="-193.40740740740742"/>
      <point x="129.9012345679012" y="-193.40740740740742" type="curve" smooth="yes"/>
      <point x="60.81481481481481" y="-193.40740740740742"/>
      <point x="10.0" y="-241.9135802469136"/>
      <point x="10.0" y="-310.03703703703707" type="curve" smooth="yes"/>
      <point x="10.0" y="-380.5061728395062"/>
      <point x="60.81481481481481" y="-429.01234567901236"/>
    </contour>
  </outline>
</glyph>
<glyph name="dieresisbelowcomb" format="2">
  <unicode hex="0324"/>
  <anchor x="298.1358024691358" y="0.0" name="_bottom"/>
  <anchor x="298.1358024691358" y="-416.08641975308643" name="bottom"/>
  <outline>
    <contour>
      <point x="478.6049382716049" y="-416.08641975308643" type="curve" smooth="yes"/>
      <point x="542.074074074074" y="-416.08641975308643"/>
      <point x="586.2716049382716" y="-368.88888888888886"/>
      <point x="586.2716049382716" y="-308.41975308641975" type="curve" smooth="yes"/>
      <point x="586.2716049382716" y="-248.25925925925927"/>
      <point x="542.074074074074" y="-201.7530864197531"/>
      <point x="478.6049382716049" y="-201.7530864197531" type="curve" smooth="yes"/>
      <point x="417.1358024691358" y="-201.7530864197531"/>
      <point x="371.59259259259255" y="-248.25925925925927"/>
      <point x="371.59259259259255" y="-308.41975308641975" type="curve" smooth="yes"/>
      <point x="371.59259259259255" y="-368.88888888888886"/>
      <point x="417.1358024691358" y="-416.08641975308643"/>
    </contour>
    <contour>
      <point x="117.66666666666666" y="-416.08641975308643" type="curve" smooth="yes"/>
      <point x="179.1358024691358" y="-416.08641975308643"/>
      <point x="224.67901234567898" y="-368.88888888888886"/>
      <point x="224.67901234567898" y="-308.41975308641975" type="curve" smooth="yes"/>
      <point x="224.67901234567898" y="-248.25925925925927"/>
      <point x="179.1358024691358" y="-201.7530864197531"/>
      <point x="117.66666666666666" y="-201.7530864197531" type="curve" smooth="yes"/>
      <point x="54.197530864197525" y="-201.7530864197531"/>
      <point x="10.0" y="-248.25925925925927"/>
      <point x="10.0" y="-308.41975308641975" type="curve" smooth="yes"/>
      <point x="10.0" y="-368.88888888888886"/>
      <point x="54.197530864197525" y="-416.08641975308643"/>
    </contour>
  </outline>
</glyph>
<glyph name="commaaccentcomb" format="2">
  <unicode hex="0326"/>
  <anchor x="174.03086419753086" y="0.0" name="_bottom"/>
  <anchor x="174.03086419753086" y="-441.2345679012346" name="bottom"/>
  <outline>
    <contour>
      <point x="28.61728395061728" y="-441.2345679012346" type="line"/>
      <point x="190.62962962962962" y="-429.5432098765432"/>
      <point x="338.0617283950617" y="-372.9259259259259"/>
      <point x="338.0617283950617" y="-249.76543209876544" type="curve" smooth="yes"/>
      <point x="338.0617283950617" y="-155.53086419753086"/>
      <point x="277.4074074074074" y="-108.9135802469136"/>
      <point x="129.46913580246914" y="-88.87654320987654" type="curve"/>
      <point x="87.96296296296296" y="-173.6172839506173" type="line"/>
      <point x="147.6172839506173" y="-187.92592592592592"/>
      <point x="189.45679012345678" y="-210.6172839506173"/>
      <point x="189.45679012345678" y="-261.0740740740741" type="curve" smooth="yes"/>
      <point x="189.45679012345678" y="-312.4567901234568"/>
      <point x="115.41975308641976" y="-337.5308641975309"/>
      <point x="10.0" y="-351.22222222222223" type="curve"/>
    </contour>
  </outline>
</glyph>
<glyph name="cedillacomb" format="2">
  <unicode hex="0327"/>
  <anchor x="172.39506172839506" y="0.0" name="_bottom"/>
  <anchor x="172.39506172839506" y="-438.5432098765432" name="bottom"/>
  <outline>
    <contour>
      <point x="27.962962962962962" y="-438.5432098765432" type="line"/>
      <point x="189.320987654321" y="-425.5061728395062"/>
      <point x="334.7901234567901" y="-368.88888888888886"/>
      <point x="334.7901234567901" y="-246.7283950617284" type="curve" smooth="yes"/>
      <point x="334.7901234567901" y="-162.7283950617284"/>
      <point x="281.4074074074074" y="-122.76543209876543"/>
      <point x="214.09876543209873" y="-100.11111111111111" type="curve"/>
      <point x="264.5185185185185" y="6.308641975308641" type="line"/>
      <point x="143.69135802469137" y="6.308641975308641" type="line"/>
      <point x="61.69135802469136" y="-154.30864197530863" type="line"/>
      <point x="146.30864197530863" y="-174.96296296296296"/>
      <point x="190.11111111111111" y="-201.96296296296296"/>
      <point x="190.11111111111111" y="-251.41975308641975" type="curve" smooth="yes"/>
      <point x="190.11111111111111" y="-306.7654320987654"/>
      <point x="116.07407407407408" y="-335.4567901234568"/>
      <point x="10.0" y="-348.4938271604938" type="curve"/>
    </contour>
  </outline>
</glyph>
<glyph name="ogonekcomb" format="2">
  <unicode hex="0328"/>
  <anchor x="369.0617283950617" y="5.691358024691359" name="_ogonek"/>
  <outline>
    <contour>
      <point x="199.74074074074073" y="-423.2716049382716" type="curve" smooth="yes"/>
      <point x="252.9753086419753" y="-423.2716049382716"/>
      <point x="327.82716049382714" y="-397.96296296296293"/>
      <point x="369.0617283950617" y="-366.03703703703707" type="curve"/>
      <point x="321.2098765432099" y="-273.7530864197531" type="line"/>
      <point x="298.82716049382714" y="-289.1358024691358"/>
      <point x="272.1728395061728" y="-299.44444444444446"/>
      <point x="240.7901234567901" y="-299.44444444444446" type="curve" smooth="yes"/>
      <point x="192.75308641975306" y="-299.44444444444446"/>
      <point x="148.06172839506172" y="-270.71604938271605"/>
      <point x="148.06172839506172" y="-207.64197530864197" type="curve" smooth="yes"/>
      <point x="148.06172839506172" y="-131.83950617283952"/>
      <point x="196.5185185185185" y="-58.03703703703704"/>
      <point x="282.28395061728395" y="5.691358024691359" type="curve"/>
      <point x="155.0" y="5.691358024691359" type="line"/>
      <point x="90.23456790123457" y="-42.41975308641975"/>
      <point x="10.0" y="-134.76543209876544"/>
      <point x="10.0" y="-247.03703703703704" type="curve" smooth="yes"/>
      <point x="10.0" y="-362.96296296296293"/>
      <point x="94.5432098765432" y="-423.2716049382716"/>
    </contour>
  </outline>
</glyph>
<glyph name="brevebelowcomb" format="2">
  <unicode hex="032E"/>
  <anchor x="272.4691358024691" y="0.0" name="_bottom"/>
  <anchor x="272.4691358024691" y="-423.2716049382716" name="bottom"/>
  <outline>
    <contour>
      <point x="272.4691358024691" y="-423.2716049382716" type="curve" smooth="yes"/>
      <point x="450.7037037037037" y="-423.2716049382716"/>
      <point x="526.9012345679013" y="-285.2345679012346"/>
      <point x="534.9382716049382" y="-159.45679012345678" type="curve"/>
      <point x="420.41975308641975" y="-159.45679012345678" type="line"/>
      <point x="410.0740740740741" y="-237.22222222222223"/>
      <point x="364.30864197530866" y="-309.0617283950617"/>
      <point x="272.4691358024691" y="-309.0617283950617" type="curve" smooth="yes"/>
      <point x="180.62962962962962" y="-309.0617283950617"/>
      <point x="134.86419753086417" y="-237.22222222222223"/>
      <point x="124.5185185185185" y="-159.45679012345678" type="curve"/>
      <point x="10.0" y="-159.45679012345678" type="line"/>
      <point x="18.037037037037038" y="-285.2345679012346"/>
      <point x="94.23456790123457" y="-423.2716049382716"/>
    </contour>
  </outline>
</glyph>
<glyph name="macronbelowcomb" format="2">
  <unicode hex="0331"/>
  <anchor x="267.75925925925924" y="0.0" name="_bottom"/>
  <anchor x="267.75925925925924" y="-356.04938271604937" name="bottom"/>
  <outline>
    <contour>
      <point x="10.0" y="-356.04938271604937" type="line"/>
      <point x="525.5185185185185" y="-356.04938271604937" type="line"/>
      <point x="525.5185185185185" y="-224.95061728395063" type="line"/>
      <point x="10.0" y="-224.95061728395063" type="line"/>
    </contour>
  </outline>
</glyph>
<glyph name="candraBindu-deva" format="2">
  <unicode hex="0901"/>
  <anchor x="272.34567901234567" y="1273.1728395061727" name="_candra"/>
  <anchor x="272.0" y="1273.1728395061727" name="_top"/>
  <anchor x="267.2716049382716" y="1939.6049382716049" name="top"/>
  <outline>
    <contour>
      <point x="269.34567901234567" y="1499.7037037037037" type="curve" smooth="yes"/>
      <point x="412.7037037037037" y="1499.7037037037037"/>
      <point x="514.283950617284" y="1574.5925925925926"/>
      <point x="576.8641975308642" y="1709.716049382716" type="curve"/>
      <point x="474.11111111111114" y="1768.4938271604938" type="line"/>
      <point x="436.0740740740741" y="1707.4197530864196"/>
      <point x="384.9259259259259" y="1641.7654320987654"/>
      <point x="274.9259259259259" y="1641.7654320987654" type="curve" smooth="yes"/>
      <point x="172.19753086419752" y="1641.7654320987654"/>
      <point x="112.50617283950616" y="1697.4567901234568"/>
      <point x="72.46913580246913" y="1765.1851851851852" type="curve"/>
      <point x="-35.2469135802469" y="1701.4444444444443" type="line"/>
      <point x="8.7530864197531" y="1597.2469135802469"/>
      <point x="106.25925925925927" y="1499.7037037037037"/>
    </contour>
    <contour>
      <point x="267.61728395061726" y="1731.4197530864196" type="curve" smooth="yes"/>
      <point x="335.4320987654321" y="1731.4197530864196"/>
      <point x="363.358024691358" y="1758.6913580246912"/>
      <point x="363.358024691358" y="1824.1975308641975" type="curve" smooth="yes"/>
      <point x="363.358024691358" y="1890.358024691358"/>
      <point x="335.4320987654321" y="1918.2839506172838"/>
      <point x="267.61728395061726" y="1918.2839506172838" type="curve" smooth="yes"/>
      <point x="200.14814814814815" y="1918.2839506172838"/>
      <point x="171.87654320987656" y="1890.358024691358"/>
      <point x="171.87654320987656" y="1824.1975308641975" type="curve" smooth="yes"/>
      <point x="171.87654320987656" y="1758.6913580246912"/>
      <point x="200.14814814814815" y="1731.4197530864196"/>
    </contour>
  </outline>
</glyph>
<glyph name="anusvara-deva" format="2">
  <unicode hex="0902"/>
  <anchor x="271.96296296296293" y="1273.1728395061727" name="_top"/>
  <outline>
    <contour>
      <point x="271.96296296296293" y="1438.0493827160494" type="curve" smooth="yes"/>
      <point x="345.66666666666663" y="1438.0493827160494"/>
      <point x="376.8641975308642" y="1468.5925925925926"/>
      <point x="376.8641975308642" y="1541.2962962962963" type="curve" smooth="yes"/>
      <point x="376.8641975308642" y="1614.6543209876543"/>
      <point x="345.66666666666663" y="1645.1975308641975"/>
      <point x="271.96296296296293" y="1645.1975308641975" type="curve" smooth="yes"/>
      <point x="198.60493827160494" y="1645.1975308641975"/>
      <point x="167.06172839506175" y="1614.6543209876543"/>
      <point x="167.06172839506175" y="1541.2962962962963" type="curve" smooth="yes"/>
      <point x="167.06172839506175" y="1468.5925925925926"/>
      <point x="198.60493827160494" y="1438.0493827160494"/>
    </contour>
  </outline>
</glyph>
<glyph name="i-deva" format="2">
  <advance width="1032.3456790123457"/>
  <unicode hex="0907"/>
  <anchor x="559.7777777777777" y="1273.1728395061727" name="candra"/>
  <anchor x="749.2469135802469" y="1273.1728395061727" name="top"/>
  <outline>
    <contour>
      <point x="547.4074074074074" y="-8.444444444444425" type="curve"/>
      <point x="794.8888888888888" y="-8.444444444444425"/>
      <point x="968.7283950617284" y="106.9135802469136"/>
      <point x="968.7283950617284" y="337.0740740740741" type="curve" smooth="yes"/>
      <point x="968.7283950617284" y="559.1604938271605"/>
      <point x="816.2592592592592" y="596.9259259259259"/>
      <point x="656.7901234567901" y="596.5802469135803" type="curve" smooth="yes"/>
      <point x="534.2098765432098" y="596.2345679012345"/>
      <point x="341.48148148148147" y="575.5802469135803"/>
      <point x="279.7901234567901" y="561.1975308641976" type="curve"/>
      <point x="305.55555555555554" y="551.0864197530864" type="line"/>
      <point x="282.8395061728395" y="584.0740740740741"/>
      <point x="264.45679012345676" y="644.0987654320987"/>
      <point x="264.45679012345676" y="699.1728395061729" type="curve" smooth="yes"/>
      <point x="264.45679012345676" y="773.2098765432099"/>
      <point x="294.41975308641975" y="807.1234567901234"/>
      <point x="418.25925925925924" y="807.1234567901234" type="curve" smooth="yes"/>
      <point x="772.5185185185185" y="807.1234567901234" type="line"/>
      <point x="751.9753086419753" y="968.1975308641976" type="line"/>
      <point x="382.641975308642" y="968.1975308641976" type="line" smooth="yes"/>
      <point x="182.41975308641975" y="968.1975308641976"/>
      <point x="101.65432098765432" y="887.3827160493827"/>
      <point x="101.65432098765432" y="748.2222222222223" type="curve" smooth="yes"/>
      <point x="101.65432098765432" y="626.8641975308642"/>
      <point x="158.16049382716048" y="484.8518518518519"/>
      <point x="224.320987654321" y="430.1975308641976" type="curve" smooth="yes"/>
      <point x="254.44444444444443" y="405.6543209876544"/>
      <point x="277.82716049382714" y="400.4320987654321"/>
      <point x="310.59259259259255" y="404.46913580246917" type="curve" smooth="yes"/>
      <point x="371.1358024691358" y="411.5061728395062"/>
      <point x="558.3703703703703" y="432.5061728395062"/>
      <point x="646.1358024691358" y="432.5061728395062" type="curve" smooth="yes"/>
      <point x="768.0864197530864" y="432.5061728395062"/>
      <point x="802.0370370370371" y="390.5925925925926"/>
      <point x="800.0" y="315.4567901234568" type="curve" smooth="yes"/>
      <point x="797.6172839506173" y="226.320987654321"/>
      <point x="739.716049382716" y="150.320987654321"/>
      <point x="536.7901234567901" y="150.320987654321" type="curve" smooth="yes"/>
      <point x="451.4938271604938" y="150.320987654321"/>
      <point x="364.1111111111111" y="161.74074074074073"/>
      <point x="249.320987654321" y="213.62962962962962" type="curve"/>
      <point x="351.6543209876543" y="127.8395061728395" type="line"/>
      <point x="252.4938271604938" y="319.34567901234567" type="line"/>
      <point x="96.50617283950616" y="289.61728395061726" type="line"/>
      <point x="92.19753086419753" y="263.41975308641975"/>
      <point x="89.5432098765432" y="232.95061728395063"/>
      <point x="89.5432098765432" y="214.0246913580247" type="curve" smooth="yes"/>
      <point x="89.5432098765432" y="84.39506172839509"/>
      <point x="200.55555555555554" y="38.70370370370373"/>
      <point x="324.25925925925924" y="3.395061728395085" type="curve"/>
      <point x="332.41975308641975" y="33.66666666666669" type="line"/>
      <point x="400.074074074074" y="4.9012345679012554"/>
      <point x="470.9506172839506" y="-8.444444444444425"/>
    </contour>
    <contour>
      <point x="452.28395061728395" y="-307.1358024691358" type="line"/>
      <point x="598.8148148148148" y="-224.19753086419752" type="line"/>
      <point x="319.5679012345679" y="157.7037037037037" type="line"/>
      <point x="212.19753086419752" y="146.28395061728395" type="line"/>
    </contour>
    <contour>
      <point x="-16.580246913580243" y="1117.4814814814815" type="line"/>
      <point x="1049.2716049382716" y="1117.4814814814815" type="line"/>
      <point x="1049.2716049382716" y="1273.1728395061727" type="line"/>
      <point x="-16.580246913580243" y="1273.1728395061727" type="line"/>
    </contour>
    <contour>
      <point x="660.4938271604939" y="807.1234567901234" type="line"/>
      <point x="839.1481481481482" y="807.1234567901234" type="line"/>
      <point x="839.1481481481482" y="1205.469135802469" type="line"/>
      <point x="660.4938271604939" y="1205.469135802469" type="line"/>
    </contour>
  </outline>
</glyph>
<glyph name="nga-deva" format="2">
  <advance width="1151.8765432098764"/>
  <unicode hex="0919"/>
  <anchor x="574.2716049382716" y="-83.02469135802467" name="bottom"/>
  <anchor x="723.7777777777777" y="1273.5185185185185" name="candra"/>
  <anchor x="745.395061728395" y="1273.1728395061727" name="top"/>
  <anchor x="549.679012345679" y="-232.7037037037037" name="nukta"/>
  <outline>
    <contour>
      <point x="1020.5308641975308" y="794.4074074074074" type="curve" smooth="yes"/>
      <point x="944.5555555555555" y="794.4074074074074"/>
      <point x="911.7037037037037" y="763.2098765432098"/>
      <point x="911.7037037037037" y="687.8888888888889" type="curve" smooth="yes"/>
      <point x="911.7037037037037" y="613.2222222222223"/>
      <point x="944.5555555555555" y="581.3703703703704"/>
      <point x="1020.5308641975308" y="581.3703703703704" type="curve" smooth="yes"/>
      <point x="1096.1975308641975" y="581.3703703703704"/>
      <point x="1128.7037037037037" y="613.2222222222223"/>
      <point x="1128.7037037037037" y="687.8888888888889" type="curve" smooth="yes"/>
      <point x="1128.7037037037037" y="763.2098765432098"/>
      <point x="1096.1975308641975" y="794.4074074074074"/>
    </contour>
    <contour>
      <point x="1168.8024691358025" y="1273.1728395061727" type="line"/>
      <point x="860.679012345679" y="1273.1728395061727" type="line"/>
      <point x="860.679012345679" y="1117.4814814814815" type="line"/>
      <point x="1168.8024691358025" y="1117.4814814814815" type="line"/>
    </contour>
    <component base="dda-deva"/>
  </outline>
</glyph>
<glyph name="ja-deva" format="2">
  <advance width="1420.6172839506173"/>
  <unicode hex="091C"/>
  <anchor x="1145.6172839506173" y="0.0" name="bottom"/>
  <anchor x="1027.0" y="1273.1728395061727" name="candra"/>
  <anchor x="135.76543209876544" y="83.0864197530864" name="nukta"/>
  <anchor x="1144.3456790123457" y="1273.1728395061727" name="top"/>
  <outline>
    <contour>
      <point x="527.0370370370371" y="168.03703703703704" type="curve" smooth="yes"/>
      <point x="730.7283950617284" y="168.03703703703704"/>
      <point x="864.1975308641976" y="284.7654320987654"/>
      <point x="864.1975308641976" y="466.7283950617284" type="curve" smooth="yes"/>
      <point x="864.1975308641976" y="613.5679012345679"/>
      <point x="794.0493827160494" y="692.1728395061729"/>
      <point x="653.1234567901234" y="765.8271604938271" type="curve"/>
      <point x="567.8888888888889" y="870.7407407407408" type="line"/>
      <point x="509.5679012345679" y="744.8271604938271" type="line"/>
      <point x="629.3703703703704" y="688.0246913580247"/>
      <point x="686.5061728395062" y="610.2592592592592"/>
      <point x="686.5061728395062" y="504.6296296296296" type="curve" smooth="yes"/>
      <point x="686.5061728395062" y="402.98765432098764"/>
      <point x="628.6296296296297" y="338.72839506172835"/>
      <point x="516.1851851851852" y="337.72839506172835" type="curve" smooth="yes"/>
      <point x="265.96296296296293" y="335.72839506172835"/>
      <point x="220.86419753086417" y="665.0493827160493"/>
      <point x="196.5185185185185" y="861.8641975308642" type="curve"/>
      <point x="51.91358024691359" y="841.9753086419753" type="line"/>
      <point x="74.02469135802471" y="453.77777777777777"/>
      <point x="195.79012345679013" y="168.03703703703704"/>
    </contour>
    <contour>
      <point x="636.6296296296296" y="710.0123456790124" type="line"/>
      <point x="1163.8518518518517" y="710.0123456790124" type="line"/>
      <point x="1163.8518518518517" y="870.7407407407408" type="line"/>
      <point x="568.2345679012345" y="870.7407407407408" type="line"/>
    </contour>
    <contour>
      <point x="1051.1728395061727" y="0.0" type="line"/>
      <point x="1232.1358024691358" y="0.0" type="line"/>
      <point x="1232.1358024691358" y="1196.2345679012346" type="line"/>
      <point x="1051.1728395061727" y="1196.2345679012346" type="line"/>
    </contour>
    <contour>
      <point x="-16.580246913580243" y="1117.4814814814815" type="line"/>
      <point x="1437.5432098765432" y="1117.4814814814815" type="line"/>
      <point x="1437.5432098765432" y="1273.1728395061727" type="line"/>
      <point x="-16.580246913580243" y="1273.1728395061727" type="line"/>
    </contour>
  </outline>
</glyph>
<glyph name="jha-deva" format="2">
  <advance width="1535.3456790123457"/>
  <unicode hex="091D"/>
  <anchor x="130.88888888888889" y="-181.1358024691358" name="nukta"/>
  <anchor x="1256.3827160493827" y="0.0" name="bottom"/>
  <anchor x="559.7777777777777" y="1273.1728395061727" name="candra_1"/>
  <anchor x="1183.1728395061727" y="1273.1728395061727" name="candra_2"/>
  <anchor x="749.2469135802469" y="1273.1728395061727" name="top_1"/>
  <anchor x="1256.0740740740741" y="1273.1728395061727" name="top_2"/>
  <outline>
    <contour>
      <point x="877.3333333333333" y="407.17283950617286" type="line"/>
      <point x="983.3333333333333" y="390.24691358024694"/>
      <point x="1170.716049382716" y="430.5925925925926"/>
      <point x="1234.716049382716" y="490.5925925925926" type="curve"/>
      <point x="1209.9382716049383" y="653.7777777777777" type="line"/>
      <point x="1093.5925925925926" y="565.7407407407408"/>
      <point x="935.5925925925926" y="527.1604938271605"/>
      <point x="816.9382716049382" y="539.7777777777777" type="curve"/>
    </contour>
    <component base="i-deva"/>
    <component base="aaMatra-deva" xOffset="976.7654320987654"/>
  </outline>
</glyph>
<glyph name="ttha-deva" format="2">
  <advance width="1174.9259259259259"/>
  <unicode hex="0920"/>
  <anchor x="592.7283950617284" y="-54.67901234567903" name="bottom"/>
  <anchor x="688.3703703703704" y="1273.1728395061727" name="candra"/>
  <anchor x="574.3086419753087" y="-203.9012345679012" name="nukta"/>
  <anchor x="772.3827160493827" y="1273.1728395061727" name="top"/>
  <outline>
    <contour>
      <point x="-16.580246913580243" y="1117.4814814814815" type="line"/>
      <point x="1191.8518518518517" y="1117.4814814814815" type="line"/>
      <point x="1191.8518518518517" y="1273.1728395061727" type="line"/>
      <point x="-16.580246913580243" y="1273.1728395061727" type="line"/>
    </contour>
    <contour>
      <point x="860.6296296296296" y="853.3086419753087" type="line"/>
      <point x="860.6296296296296" y="1164.3333333333333" type="line"/>
      <point x="681.6296296296297" y="1164.3333333333333" type="line"/>
      <point x="681.283950617284" y="879.0123456790124" type="line"/>
    </contour>
    <contour>
      <point x="596.1975308641976" y="16.024691358024704" type="curve" smooth="yes"/>
      <point x="923.8518518518518" y="16.024691358024704"/>
      <point x="1097.3950617283951" y="158.64197530864197"/>
      <point x="1097.3950617283951" y="456.14814814814815" type="curve" smooth="yes"/>
      <point x="1097.3950617283951" y="670.716049382716"/>
      <point x="1006.2098765432098" y="833.8024691358024"/>
      <point x="798.1975308641976" y="885.6172839506173" type="curve" smooth="yes"/>
      <point x="728.1975308641976" y="900.6172839506173"/>
      <point x="664.8641975308642" y="905.5802469135803"/>
      <point x="583.0864197530864" y="905.5802469135803" type="curve" smooth="yes"/>
      <point x="271.4074074074074" y="905.5802469135803"/>
      <point x="77.53086419753087" y="796.5185185185185"/>
      <point x="77.53086419753087" y="481.61728395061726" type="curve" smooth="yes"/>
      <point x="77.53086419753087" y="177.60493827160494"/>
      <point x="256.8024691358025" y="16.024691358024704"/>
    </contour>
    <contour>
      <point x="587.0" y="178.7901234567901" type="curve" smooth="yes"/>
      <point x="356.2098765432099" y="178.7901234567901"/>
      <point x="267.45679012345676" y="265.77777777777777"/>
      <point x="267.45679012345676" y="456.87654320987656" type="curve" smooth="yes"/>
      <point x="267.45679012345676" y="669.716049382716"/>
      <point x="371.41975308641975" y="743.1604938271605"/>
      <point x="587.395061728395" y="743.1604938271605" type="curve" smooth="yes"/>
      <point x="678.1358024691358" y="743.1604938271605"/>
      <point x="757.0123456790124" y="735.5802469135803"/>
      <point x="814.3086419753087" y="700.6172839506173" type="curve" smooth="yes"/>
      <point x="879.7901234567902" y="660.2345679012346"/>
      <point x="910.1234567901234" y="584.9753086419753"/>
      <point x="908.4691358024692" y="460.4567901234568" type="curve" smooth="yes"/>
      <point x="904.8518518518518" y="266.39506172839504"/>
      <point x="804.5185185185186" y="178.7901234567901"/>
    </contour>
  </outline>
</glyph>
<glyph name="dda-deva" format="2">
  <advance width="1031.8024691358025"/>
  <unicode hex="0921"/>
  <anchor x="544.4444444444445" y="-85.61728395061728" name="bottom"/>
  <anchor x="660.4197530864197" y="1273.1728395061727" name="candra"/>
  <anchor x="549.679012345679" y="-232.7037037037037" name="nukta"/>
  <anchor x="748.283950617284" y="1273.1728395061727" name="top"/>
  <outline>
    <contour>
      <point x="-16.580246913580243" y="1117.4814814814815" type="line"/>
      <point x="1048.7283950617284" y="1117.4814814814815" type="line"/>
      <point x="1048.7283950617284" y="1273.1728395061727" type="line"/>
      <point x="-16.580246913580243" y="1273.1728395061727" type="line"/>
    </contour>
    <contour>
      <point x="656.8765432098766" y="806.7530864197531" type="line"/>
      <point x="835.5308641975308" y="806.7530864197531" type="line"/>
      <point x="835.5308641975308" y="1182.0740740740741" type="line"/>
      <point x="656.8765432098766" y="1182.0740740740741" type="line"/>
    </contour>
    <contour>
      <point x="543.7901234567901" y="-11.12345679012345" type="curve" smooth="yes"/>
      <point x="791.5802469135803" y="-11.12345679012345"/>
      <point x="965.1111111111111" y="106.5432098765432"/>
      <point x="965.1111111111111" y="336.7037037037037" type="curve" smooth="yes"/>
      <point x="965.1111111111111" y="558.7901234567901"/>
      <point x="812.2962962962963" y="596.5555555555555"/>
      <point x="653.4814814814814" y="596.2098765432098" type="curve" smooth="yes"/>
      <point x="530.9012345679013" y="595.8641975308642"/>
      <point x="338.5185185185185" y="575.2098765432098"/>
      <point x="276.82716049382714" y="560.8271604938271" type="curve"/>
      <point x="302.59259259259255" y="550.716049382716" type="line"/>
      <point x="278.8765432098765" y="583.7037037037037"/>
      <point x="261.4938271604938" y="643.7283950617284"/>
      <point x="261.4938271604938" y="698.8024691358024" type="curve" smooth="yes"/>
      <point x="261.4938271604938" y="772.8395061728395"/>
      <point x="290.8024691358024" y="806.7530864197531"/>
      <point x="414.641975308642" y="806.7530864197531" type="curve" smooth="yes"/>
      <point x="768.9012345679013" y="806.7530864197531" type="line"/>
      <point x="749.0123456790124" y="967.8271604938271" type="line"/>
      <point x="379.02469135802465" y="967.8271604938271" type="line" smooth="yes"/>
      <point x="178.80246913580248" y="967.8271604938271"/>
      <point x="98.69135802469135" y="887.0123456790124"/>
      <point x="98.69135802469135" y="747.8518518518518" type="curve" smooth="yes"/>
      <point x="98.69135802469135" y="626.4938271604939"/>
      <point x="155.19753086419752" y="485.1358024691358"/>
      <point x="220.7037037037037" y="429.8271604938272" type="curve" smooth="yes"/>
      <point x="250.1728395061728" y="405.28395061728395"/>
      <point x="274.5185185185185" y="400.0617283950617"/>
      <point x="306.6296296296296" y="404.0987654320988" type="curve" smooth="yes"/>
      <point x="368.1728395061728" y="411.7901234567901"/>
      <point x="555.0617283950617" y="432.1358024691358"/>
      <point x="643.1728395061729" y="432.1358024691358" type="curve" smooth="yes"/>
      <point x="764.4691358024692" y="432.1358024691358"/>
      <point x="798.0740740740741" y="390.22222222222223"/>
      <point x="797.0370370370371" y="315.08641975308643" type="curve" smooth="yes"/>
      <point x="796.0" y="225.95061728395058"/>
      <point x="736.7530864197531" y="148.29629629629628"/>
      <point x="530.8271604938271" y="148.29629629629628" type="curve" smooth="yes"/>
      <point x="342.55555555555554" y="148.29629629629628"/>
      <point x="241.64197530864195" y="219.5185185185185"/>
      <point x="130.71604938271602" y="304.04938271604937" type="curve"/>
      <point x="56.66666666666666" y="194.0987654320988" type="line"/>
      <point x="174.12345679012344" y="73.4567901234568"/>
      <point x="336.9382716049383" y="-11.12345679012345"/>
    </contour>
  </outline>
</glyph>
<glyph name="nna-deva" format="2">
  <advance width="1531.0987654320988"/>
  <unicode hex="0923"/>
  <anchor x="1252.8271604938273" y="0.0" name="bottom"/>
  <anchor x="1137.5432098765432" y="1273.1728395061727" name="candra"/>
  <anchor x="502.2469135802469" y="61.66666666666666" name="nukta"/>
  <anchor x="1252.1358024691358" y="1273.1728395061727" name="top"/>
  <outline>
    <contour>
      <point x="500.9753086419753" y="308.0246913580247" type="curve" smooth="yes"/>
      <point x="748.3333333333333" y="308.0246913580247"/>
      <point x="881.1111111111111" y="445.91358024691357"/>
      <point x="881.1111111111111" y="700.2345679012345" type="curve" smooth="yes"/>
      <point x="881.1111111111111" y="1168.2222222222222" type="line"/>
      <point x="700.1481481481482" y="1168.2222222222222" type="line"/>
      <point x="700.1481481481482" y="691.0" type="line" smooth="yes"/>
      <point x="700.1481481481482" y="550.358024691358"/>
      <point x="650.3456790123457" y="470.4074074074074"/>
      <point x="498.32098765432096" y="470.4074074074074" type="curve" smooth="yes"/>
      <point x="356.91358024691357" y="470.4074074074074"/>
      <point x="309.72839506172835" y="547.283950617284"/>
      <point x="309.72839506172835" y="687.4197530864197" type="curve" smooth="yes"/>
      <point x="309.72839506172835" y="1168.2222222222222" type="line"/>
      <point x="128.76543209876544" y="1168.2222222222222" type="line"/>
      <point x="128.76543209876544" y="701.9629629629629" type="line" smooth="yes"/>
      <point x="128.76543209876544" y="447.1851851851852"/>
      <point x="252.0" y="308.0246913580247"/>
    </contour>
    <contour>
      <point x="1161.6543209876543" y="0.0" type="line"/>
      <point x="1342.6172839506173" y="0.0" type="line"/>
      <point x="1342.6172839506173" y="1209.0864197530864" type="line"/>
      <point x="1161.6543209876543" y="1209.0864197530864" type="line"/>
    </contour>
    <contour>
      <point x="-16.580246913580243" y="1117.4814814814815" type="line"/>
      <point x="1548.0246913580247" y="1117.4814814814815" type="line"/>
      <point x="1548.0246913580247" y="1273.1728395061727" type="line"/>
      <point x="-16.580246913580243" y="1273.1728395061727" type="line"/>
    </contour>
  </outline>
</glyph>
<glyph name="ta-deva" format="2">
  <advance width="1108.3086419753085"/>
  <unicode hex="0924"/>
  <anchor x="828.6913580246913" y="0.0" name="bottom"/>
  <anchor x="717.4691358024692" y="1273.1728395061727" name="candra"/>
  <anchor x="15.123456790123484" y="45.77777777777777" name="nukta"/>
  <anchor x="834.6543209876543" y="1273.1728395061727" name="top"/>
  <outline>
    <contour>
      <point x="325.2098765432099" y="-35.23456790123456" type="curve"/>
      <point x="467.4320987654321" y="59.93827160493826" type="line"/>
      <point x="314.4320987654321" y="284.02469135802465"/>
      <point x="253.56790123456787" y="429.66666666666663"/>
      <point x="253.56790123456787" y="540.2222222222223" type="curve" smooth="yes"/>
      <point x="253.56790123456787" y="653.7407407407408"/>
      <point x="313.55555555555554" y="678.9753086419753"/>
      <point x="440.03703703703707" y="678.9753086419753" type="curve" smooth="yes"/>
      <point x="854.0123456790124" y="678.9753086419753" type="line"/>
      <point x="812.5061728395061" y="847.6296296296296" type="line"/>
      <point x="413.12345679012344" y="847.6296296296296" type="line" smooth="yes"/>
      <point x="189.44444444444443" y="847.9753086419753"/>
      <point x="68.60493827160495" y="737.2098765432098"/>
      <point x="68.60493827160495" y="567.3827160493827" type="curve" smooth="yes"/>
      <point x="68.60493827160495" y="365.34567901234567"/>
      <point x="196.62962962962965" y="130.65432098765433"/>
    </contour>
    <contour>
      <point x="738.2098765432099" y="0.0" type="line"/>
      <point x="919.1728395061729" y="0.0" type="line"/>
      <point x="919.1728395061729" y="1196.2345679012346" type="line"/>
      <point x="738.2098765432099" y="1196.2345679012346" type="line"/>
    </contour>
    <contour>
      <point x="-16.580246913580243" y="1117.4814814814815" type="line"/>
      <point x="1125.2345679012346" y="1117.4814814814815" type="line"/>
      <point x="1125.2345679012346" y="1273.1728395061727" type="line"/>
      <point x="-16.580246913580243" y="1273.1728395061727" type="line"/>
    </contour>
  </outline>
</glyph>
<glyph name="pa-deva" format="2">
  <advance width="1172.1975308641975"/>
  <unicode hex="092A"/>
  <anchor x="893.5802469135803" y="0.0" name="bottom"/>
  <anchor x="776.7530864197531" y="1273.1728395061727" name="candra"/>
  <anchor x="286.58024691358025" y="104.44444444444446" name="nukta"/>
  <anchor x="893.8888888888889" y="1273.1728395061727" name="top"/>
  <outline>
    <contour>
      <point x="508.03703703703707" y="296.0617283950617" type="curve" smooth="yes"/>
      <point x="650.9382716049382" y="296.0617283950617"/>
      <point x="794.9753086419753" y="368.4567901234568"/>
      <point x="877.7777777777777" y="490.65432098765433" type="curve"/>
      <point x="842.1481481481482" y="660.9506172839506" type="line"/>
      <point x="759.8518518518518" y="529.9135802469135"/>
      <point x="645.358024691358" y="461.09876543209873"/>
      <point x="518.6172839506173" y="460.09876543209873" type="curve" smooth="yes"/>
      <point x="378.98765432098764" y="459.09876543209873"/>
      <point x="339.41975308641975" y="525.5432098765432"/>
      <point x="339.41975308641975" y="666.3456790123457" type="curve" smooth="yes"/>
      <point x="339.41975308641975" y="1148.5555555555557" type="line"/>
      <point x="155.49382716049382" y="1148.5555555555557" type="line"/>
      <point x="155.49382716049382" y="678.4567901234568" type="line" smooth="yes"/>
      <point x="155.49382716049382" y="426.60493827160496"/>
      <point x="275.65432098765433" y="296.0617283950617"/>
    </contour>
    <contour>
      <point x="802.0987654320987" y="0.0" type="line"/>
      <point x="983.716049382716" y="0.0" type="line"/>
      <point x="983.716049382716" y="1196.2345679012346" type="line"/>
      <point x="802.0987654320987" y="1196.2345679012346" type="line"/>
    </contour>
    <contour>
      <point x="-17.580246913580243" y="1117.4814814814815" type="line"/>
      <point x="1189.1234567901236" y="1117.4814814814815" type="line"/>
      <point x="1189.1234567901236" y="1273.1728395061727" type="line"/>
      <point x="-17.580246913580243" y="1273.1728395061727" type="line"/>
    </contour>
  </outline>
</glyph>
<glyph name="bha-deva" format="2">
  <advance width="1232.6666666666667"/>
  <unicode hex="092D"/>
  <anchor x="954.0493827160494" y="0.0" name="bottom"/>
  <anchor x="809.8271604938271" y="1273.1728395061727" name="candra"/>
  <anchor x="374.5308641975309" y="68.86419753086417" name="nukta"/>
  <anchor x="954.0493827160494" y="1273.1728395061727" name="top"/>
  <outline>
    <contour>
      <point x="285.0246913580247" y="549.0370370370371" type="line"/>
      <point x="465.98765432098764" y="549.0370370370371" type="line"/>
      <point x="465.98765432098764" y="1033.7283950617284" type="line" smooth="yes"/>
      <point x="465.98765432098764" y="1159.7037037037037"/>
      <point x="446.02469135802465" y="1293.8641975308642"/>
      <point x="231.74074074074073" y="1293.8641975308642" type="curve" smooth="yes"/>
      <point x="170.92592592592592" y="1293.8641975308642"/>
      <point x="130.92592592592592" y="1284.8271604938273"/>
      <point x="91.96296296296296" y="1267.8641975308642" type="curve"/>
      <point x="122.58024691358024" y="1117.4444444444446" type="line"/>
      <point x="143.65432098765433" y="1124.4444444444446"/>
      <point x="170.0" y="1131.8271604938273"/>
      <point x="198.03703703703704" y="1131.8271604938273" type="curve" smooth="yes"/>
      <point x="253.98765432098767" y="1131.8271604938273"/>
      <point x="285.0246913580247" y="1110.4074074074074"/>
      <point x="285.0246913580247" y="1037.0740740740741" type="curve" smooth="yes"/>
    </contour>
    <contour>
      <point x="317.7283950617284" y="295.91358024691357" type="line"/>
      <point x="439.7901234567901" y="296.95061728395063"/>
      <point x="464.98765432098764" y="358.38271604938274"/>
      <point x="464.98765432098764" y="430.77777777777777" type="curve" smooth="yes"/>
      <point x="464.98765432098764" y="643.0246913580247" type="line"/>
      <point x="318.34567901234567" y="643.0246913580247" type="line"/>
      <point x="137.9135802469136" y="621.716049382716" type="line"/>
      <point x="137.9135802469136" y="496.03703703703707" type="line"/>
    </contour>
    <contour>
      <point x="290.3703703703704" y="477.22222222222223" type="line"/>
      <point x="1006.2962962962963" y="477.22222222222223" type="line"/>
      <point x="1006.2962962962963" y="637.6419753086419" type="line"/>
      <point x="290.3703703703704" y="637.6419753086419" type="line"/>
    </contour>
    <contour>
      <point x="863.5679012345679" y="0.0" type="line"/>
      <point x="1044.530864197531" y="0.0" type="line"/>
      <point x="1044.530864197531" y="1209.0864197530864" type="line"/>
      <point x="863.5679012345679" y="1209.0864197530864" type="line"/>
    </contour>
    <contour>
      <point x="683.3086419753087" y="1117.4814814814815" type="line"/>
      <point x="1250.2469135802469" y="1117.4814814814815" type="line"/>
      <point x="1250.2469135802469" y="1273.1728395061727" type="line"/>
      <point x="683.3086419753087" y="1273.1728395061727" type="line"/>
    </contour>
  </outline>
</glyph>
<glyph name="ya-deva" format="2">
  <advance width="1155.358024691358"/>
  <unicode hex="092F"/>
  <anchor x="876.0864197530864" y="0.0" name="bottom"/>
  <anchor x="761.2962962962963" y="1273.1728395061727" name="candra"/>
  <anchor x="196.0" y="44.37037037037038" name="nukta"/>
  <anchor x="876.0864197530864" y="1273.1728395061727" name="top"/>
  <outline>
    <contour>
      <point x="503.9012345679012" y="248.71604938271605" type="curve" smooth="yes"/>
      <point x="625.5925925925926" y="248.71604938271605"/>
      <point x="756.4691358024692" y="300.44444444444446"/>
      <point x="836.2345679012345" y="417.60493827160496" type="curve"/>
      <point x="843.1604938271605" y="645.4197530864197" type="line"/>
      <point x="751.5802469135803" y="478.2098765432099"/>
      <point x="631.4320987654321" y="413.4444444444444"/>
      <point x="495.9753086419753" y="413.4444444444444" type="curve" smooth="yes"/>
      <point x="361.4074074074074" y="413.4444444444444"/>
      <point x="277.75308641975306" y="475.66666666666663"/>
      <point x="219.02469135802465" y="648.6913580246913" type="curve"/>
      <point x="185.80246913580243" y="563.9876543209876" type="line"/>
      <point x="359.14814814814815" y="626.6296296296297"/>
      <point x="482.29629629629625" y="730.5802469135803"/>
      <point x="482.29629629629625" y="880.9135802469136" type="curve" smooth="yes"/>
      <point x="482.29629629629625" y="961.1851851851852"/>
      <point x="447.91358024691357" y="1038.4814814814815"/>
      <point x="368.91358024691357" y="1139.7160493827162" type="curve"/>
      <point x="174.679012345679" y="1137.679012345679" type="line"/>
      <point x="249.679012345679" y="1055.3703703703704"/>
      <point x="293.40740740740745" y="960.2222222222223"/>
      <point x="293.40740740740745" y="898.8395061728395" type="curve" smooth="yes"/>
      <point x="293.40740740740745" y="803.641975308642"/>
      <point x="221.17283950617286" y="742.9259259259259"/>
      <point x="51.7283950617284" y="677.8518518518518" type="curve"/>
      <point x="101.80246913580247" y="390.17283950617286"/>
      <point x="283.1358024691358" y="248.71604938271605"/>
    </contour>
    <contour>
      <point x="785.604938271605" y="0.0" type="line"/>
      <point x="966.5679012345679" y="0.0" type="line"/>
      <point x="966.5679012345679" y="1219.2839506172838" type="line"/>
      <point x="785.604938271605" y="1219.2839506172838" type="line"/>
    </contour>
    <contour>
      <point x="-12.654320987654321" y="1117.4814814814815" type="line"/>
      <point x="1172.2839506172838" y="1117.4814814814815" type="line"/>
      <point x="1172.2839506172838" y="1273.1728395061727" type="line"/>
      <point x="-12.654320987654321" y="1273.1728395061727" type="line"/>
    </contour>
  </outline>
</glyph>
<glyph name="ha-deva" format="2">
  <advance width="1017.7901234567901"/>
  <unicode hex="0939"/>
  <anchor x="797.320987654321" y="-154.33333333333334" name="bottom"/>
  <anchor x="657.5679012345679" y="1273.1728395061727" name="candra"/>
  <anchor x="154.48148148148147" y="-209.2469135802469" name="nukta"/>
  <anchor x="758.5432098765432" y="1273.1728395061727" name="top"/>
  <outline>
    <contour>
      <point x="796.6296296296296" y="-282.48148148148147" type="curve"/>
      <point x="837.0617283950617" y="-140.25925925925927" type="line"/>
      <point x="651.0" y="-87.51851851851853"/>
      <point x="282.96296296296293" y="16.975308641975296"/>
      <point x="275.69135802469134" y="265.0987654320988" type="curve" smooth="yes"/>
      <point x="272.3827160493827" y="384.03703703703707"/>
      <point x="341.7407407407407" y="468.8888888888889"/>
      <point x="552.320987654321" y="468.8888888888889" type="curve" smooth="yes"/>
      <point x="695.9259259259259" y="468.8888888888889"/>
      <point x="767.2222222222223" y="426.1604938271605"/>
      <point x="767.2222222222223" y="351.67901234567904" type="curve" smooth="yes"/>
      <point x="767.2222222222223" y="281.0740740740741"/>
      <point x="692.9135802469136" y="247.16049382716048"/>
      <point x="612.0370370370371" y="229.50617283950618" type="curve"/>
      <point x="666.283950617284" y="87.62962962962965" type="line"/>
      <point x="812.5555555555555" y="109.51851851851853"/>
      <point x="924.0617283950617" y="208.8271604938272"/>
      <point x="924.0617283950617" y="352.95061728395063" type="curve" smooth="yes"/>
      <point x="924.0617283950617" y="538.8395061728395"/>
      <point x="773.5555555555555" y="629.0"/>
      <point x="550.0493827160494" y="629.0" type="curve" smooth="yes"/>
      <point x="341.65432098765433" y="629.0"/>
      <point x="94.07407407407408" y="553.5308641975308"/>
      <point x="94.07407407407408" y="290.1851851851852" type="curve" smooth="yes"/>
      <point x="94.07407407407408" y="85.22222222222223"/>
      <point x="275.30864197530866" y="-164.7901234567901"/>
    </contour>
    <contour>
      <point x="274.9382716049383" y="470.90123456790127" type="curve"/>
      <point x="387.41975308641975" y="515.2962962962963" type="line"/>
      <point x="333.45679012345676" y="604.8765432098766"/>
      <point x="302.96296296296293" y="682.2962962962963"/>
      <point x="304.6543209876543" y="736.6296296296297" type="curve" smooth="yes"/>
      <point x="306.3456790123456" y="785.5802469135803"/>
      <point x="337.679012345679" y="817.4691358024692"/>
      <point x="428.1358024691358" y="817.4691358024692" type="curve" smooth="yes"/>
      <point x="849.3703703703703" y="817.4691358024692" type="line"/>
      <point x="849.3703703703703" y="1164.2962962962963" type="line"/>
      <point x="668.0617283950618" y="1164.2962962962963" type="line"/>
      <point x="668.0617283950618" y="978.1975308641976" type="line"/>
      <point x="400.1728395061728" y="978.1975308641976" type="line" smooth="yes"/>
      <point x="208.25925925925927" y="978.1975308641976"/>
      <point x="121.11111111111111" y="895.679012345679"/>
      <point x="120.41975308641976" y="778.679012345679" type="curve" smooth="yes"/>
      <point x="119.72839506172839" y="682.0246913580247"/>
      <point x="175.88888888888889" y="587.716049382716"/>
    </contour>
    <contour>
      <point x="-16.580246913580243" y="1117.4814814814815" type="line"/>
      <point x="1034.716049382716" y="1117.4814814814815" type="line"/>
      <point x="1034.716049382716" y="1273.1728395061727" type="line"/>
      <point x="-16.580246913580243" y="1273.1728395061727" type="line"/>
    </contour>
  </outline>
</glyph>
<glyph name="ooeMatra-deva" format="2">
  <advance width="558.5802469135803"/>
  <unicode hex="093B"/>
  <anchor x="279.61728395061726" y="0.0" name="bottom"/>
  <anchor x="206.4074074074074" y="1273.1728395061727" name="candra"/>
  <anchor x="279.30864197530866" y="1273.1728395061727" name="top"/>
  <outline>
    <contour>
      <point x="189.13580246913583" y="1098.6049382716049" type="line"/>
      <point x="369.75308641975306" y="1098.6049382716049" type="line"/>
      <point x="369.75308641975306" y="1533.9012345679012" type="line"/>
      <point x="189.13580246913583" y="1533.9012345679012" type="line"/>
    </contour>
    <component base="aaMatra-deva"/>
  </outline>
</glyph>
<glyph name="nukta-deva" format="2">
  <unicode hex="093C"/>
  <anchor x="273.0740740740741" y="-198.45679012345676" name="_nukta"/>
  <anchor x="269.14814814814815" y="-406.5185185185185" name="bottom"/>
  <outline>
    <contour>
      <point x="272.41975308641975" y="-93.2469135802469" type="curve" smooth="yes"/>
      <point x="198.40740740740742" y="-93.2469135802469"/>
      <point x="166.2098765432099" y="-124.44444444444443"/>
      <point x="166.2098765432099" y="-198.45679012345676" type="curve" smooth="yes"/>
      <point x="166.2098765432099" y="-271.4691358024691"/>
      <point x="198.40740740740742" y="-302.66666666666663"/>
      <point x="272.41975308641975" y="-302.66666666666663" type="curve" smooth="yes"/>
      <point x="346.4320987654321" y="-302.66666666666663"/>
      <point x="378.28395061728395" y="-271.4691358024691"/>
      <point x="378.28395061728395" y="-198.45679012345676" type="curve" smooth="yes"/>
      <point x="378.28395061728395" y="-124.44444444444443"/>
      <point x="346.4320987654321" y="-93.2469135802469"/>
    </contour>
  </outline>
</glyph>
<glyph name="aaMatra-deva" format="2">
  <advance width="558.5802469135803"/>
  <unicode hex="093E"/>
  <anchor x="279.61728395061726" y="0.0" name="bottom"/>
  <anchor x="206.4074074074074" y="1273.1728395061727" name="candra"/>
  <anchor x="279.30864197530866" y="1273.1728395061727" name="top"/>
  <outline>
    <contour>
      <point x="188.4814814814815" y="0.0" type="line"/>
      <point x="369.7901234567901" y="0.0" type="line"/>
      <point x="369.7901234567901" y="1202.8148148148148" type="line"/>
      <point x="188.4814814814815" y="1202.8148148148148" type="line"/>
    </contour>
    <contour>
      <point x="-16.580246913580243" y="1117.4814814814815" type="line"/>
      <point x="575.5061728395061" y="1117.4814814814815" type="line"/>
      <point x="575.5061728395061" y="1273.1728395061727" type="line"/>
      <point x="-16.580246913580243" y="1273.1728395061727" type="line"/>
    </contour>
  </outline>
</glyph>
<glyph name="iMatra-deva" format="2">
  <advance width="558.2345679012345"/>
  <unicode hex="093F"/>
  <anchor x="1385.8765432098764" y="1426.9753086419753" name="candra"/>
  <anchor x="1402.7037037037037" y="1453.148148148148" name="imatra"/>
  <anchor x="1380.037037037037" y="1450.8395061728395" name="top"/>
  <outline>
    <contour>
      <point x="266.5061728395062" y="1195.962962962963" type="curve"/>
      <point x="421.61728395061726" y="1201.2345679012346" type="line"/>
      <point x="293.02469135802465" y="1336.5061728395062"/>
      <point x="267.02469135802465" y="1398.0"/>
      <point x="267.02469135802465" y="1472.2345679012346" type="curve" smooth="yes"/>
      <point x="267.02469135802465" y="1574.9135802469136"/>
      <point x="325.66666666666663" y="1627.1358024691358"/>
      <point x="509.1604938271605" y="1627.1358024691358" type="curve" smooth="yes"/>
      <point x="800.1234567901234" y="1627.1358024691358"/>
      <point x="1070.4567901234568" y="1523.4074074074074"/>
      <point x="1362.148148148148" y="1348.3950617283951" type="curve"/>
      <point x="1423.5432098765432" y="1453.148148148148" type="line"/>
      <point x="1105.3333333333333" y="1675.9876543209875"/>
      <point x="784.1851851851851" y="1793.1358024691358"/>
      <point x="484.38271604938274" y="1793.1358024691358" type="curve" smooth="yes"/>
      <point x="261.66666666666663" y="1793.1358024691358"/>
      <point x="81.13580246913583" y="1719.567901234568"/>
      <point x="81.13580246913583" y="1512.9382716049383" type="curve" smooth="yes"/>
      <point x="81.13580246913583" y="1400.5802469135801"/>
      <point x="134.49382716049382" y="1303.962962962963"/>
    </contour>
    <contour>
      <point x="188.4814814814815" y="0.6543209876543206" type="line"/>
      <point x="369.4444444444444" y="0.6543209876543206" type="line"/>
      <point x="369.4444444444444" y="1207.320987654321" type="line"/>
      <point x="188.4814814814815" y="1207.320987654321" type="line"/>
    </contour>
    <contour>
      <point x="-16.580246913580243" y="1117.4814814814815" type="line"/>
      <point x="580.4691358024692" y="1117.4814814814815" type="line"/>
      <point x="580.4691358024692" y="1273.1728395061727" type="line"/>
      <point x="-16.580246913580243" y="1273.1728395061727" type="line"/>
    </contour>
  </outline>
</glyph>
<glyph name="uMatra-deva" format="2">
  <unicode hex="0941"/>
  <anchor x="213.85185185185185" y="0.0" name="_bottom"/>
  <outline>
    <contour>
      <point x="181.92592592592592" y="-543.0246913580247" type="curve" smooth="yes"/>
      <point x="390.9382716049383" y="-543.0246913580247"/>
      <point x="507.1728395061728" y="-421.5185185185185"/>
      <point x="507.1728395061728" y="-259.7037037037037" type="curve" smooth="yes"/>
      <point x="507.1728395061728" y="-110.61728395061728"/>
      <point x="406.28395061728395" y="11.925925925925924"/>
      <point x="213.85185185185185" y="11.925925925925924" type="curve" smooth="yes"/>
      <point x="153.3827160493827" y="11.925925925925924"/>
      <point x="69.33333333333334" y="-1.3456790123456794"/>
      <point x="-5.938271604938258" y="-38.96296296296296" type="curve"/>
      <point x="42.111111111111114" y="-178.4938271604938" type="line"/>
      <point x="105.4567901234568" y="-153.14814814814812"/>
      <point x="160.07407407407408" y="-139.91358024691357"/>
      <point x="214.50617283950618" y="-139.91358024691357" type="curve" smooth="yes"/>
      <point x="292.0740740740741" y="-139.91358024691357"/>
      <point x="340.0617283950617" y="-168.98765432098764"/>
      <point x="340.0617283950617" y="-259.7037037037037" type="curve" smooth="yes"/>
      <point x="340.0617283950617" y="-335.69135802469134"/>
      <point x="289.1851851851852" y="-385.91358024691357"/>
      <point x="179.96296296296296" y="-385.91358024691357" type="curve" smooth="yes"/>
      <point x="70.28395061728394" y="-385.91358024691357"/>
      <point x="-44.716049382716065" y="-344.2592592592593"/>
      <point x="-217.98765432098767" y="-151.49382716049382" type="curve"/>
      <point x="-307.8148148148148" y="-237.39506172839506" type="line"/>
      <point x="-113.30864197530865" y="-482.5185185185185"/>
      <point x="40.23456790123456" y="-543.0246913580247"/>
    </contour>
  </outline>
</glyph>
<glyph name="uuMatra-deva" format="2">
  <unicode hex="0942"/>
  <anchor x="267.9259259259259" y="0.0" name="_bottom"/>
  <outline>
    <contour>
      <point x="264.03703703703707" y="-534.4074074074074" type="curve" smooth="yes"/>
      <point x="324.1975308641975" y="-534.4074074074074"/>
      <point x="407.9012345679012" y="-521.4814814814814"/>
      <point x="483.1728395061728" y="-483.8641975308642" type="curve"/>
      <point x="435.77777777777777" y="-346.95061728395063" type="line"/>
      <point x="372.12345679012344" y="-372.2962962962963"/>
      <point x="317.5061728395062" y="-385.5308641975309"/>
      <point x="263.38271604938274" y="-385.5308641975309" type="curve" smooth="yes"/>
      <point x="185.16049382716048" y="-385.5308641975309"/>
      <point x="137.1728395061728" y="-356.8024691358025"/>
      <point x="137.1728395061728" y="-263.12345679012344" type="curve" smooth="yes"/>
      <point x="137.1728395061728" y="-186.7901234567901"/>
      <point x="188.39506172839506" y="-136.56790123456787"/>
      <point x="297.2716049382716" y="-136.56790123456787" type="curve" smooth="yes"/>
      <point x="407.2962962962963" y="-136.56790123456787"/>
      <point x="521.9506172839506" y="-178.2222222222222"/>
      <point x="695.5679012345679" y="-370.98765432098764" type="curve"/>
      <point x="785.7037037037037" y="-285.4320987654321" type="line"/>
      <point x="591.1975308641976" y="-40.30864197530864"/>
      <point x="437.0" y="19.888888888888886"/>
      <point x="295.96296296296293" y="19.888888888888886" type="curve" smooth="yes"/>
      <point x="86.64197530864199" y="19.888888888888886"/>
      <point x="-29.28395061728394" y="-101.61728395061728"/>
      <point x="-29.28395061728394" y="-263.4320987654321" type="curve" smooth="yes"/>
      <point x="-29.28395061728394" y="-412.2098765432099"/>
      <point x="71.2962962962963" y="-534.4074074074074"/>
    </contour>
  </outline>
</glyph>
<glyph name="rVocalicMatra-deva" format="2">
  <unicode hex="0943"/>
  <anchor x="252.88888888888889" y="0.0" name="_bottom"/>
  <outline>
    <contour>
      <point x="249.07407407407408" y="-428.44444444444446" type="curve" smooth="yes"/>
      <point x="357.11111111111114" y="-428.44444444444446"/>
      <point x="458.0740740740741" y="-389.3703703703704"/>
      <point x="534.3456790123457" y="-332.40740740740745" type="curve"/>
      <point x="473.5679012345679" y="-210.38271604938274" type="line"/>
      <point x="409.95061728395063" y="-251.76543209876547"/>
      <point x="333.8024691358025" y="-285.4938271604939"/>
      <point x="262.30864197530866" y="-286.1851851851852" type="curve" smooth="yes"/>
      <point x="184.74074074074073" y="-286.87654320987656"/>
      <point x="142.37037037037035" y="-248.76543209876547"/>
      <point x="142.37037037037035" y="-188.01234567901236" type="curve" smooth="yes"/>
      <point x="142.37037037037035" y="-113.2962962962963"/>
      <point x="193.8148148148148" y="-62.25925925925927"/>
      <point x="345.39506172839504" y="-13.481481481481499" type="curve"/>
      <point x="283.7283950617284" y="107.54320987654317" type="line"/>
      <point x="99.34567901234568" y="63.999999999999964"/>
      <point x="-22.43209876543209" y="-39.037037037037074"/>
      <point x="-22.43209876543209" y="-193.62962962962965" type="curve"/>
      <point x="-22.43209876543209" y="-337.4320987654321"/>
      <point x="103.40740740740742" y="-428.44444444444446"/>
    </contour>
  </outline>
</glyph>
<glyph name="rrVocalicMatra-deva" format="2">
  <unicode hex="0944"/>
  <anchor x="279.61728395061726" y="0.0" name="_bottom"/>
  <outline>
    <contour>
      <point x="326.9259259259259" y="-726.6913580246915" type="curve" smooth="yes"/>
      <point x="434.58024691358025" y="-726.6913580246915"/>
      <point x="540.1975308641976" y="-690.6543209876544"/>
      <point x="617.0864197530864" y="-633.3827160493828" type="curve"/>
      <point x="556.6543209876543" y="-511.3580246913581" type="line"/>
      <point x="491.38271604938274" y="-555.7777777777778"/>
      <point x="409.2345679012346" y="-585.7777777777778"/>
      <point x="339.4320987654321" y="-585.7777777777778" type="curve" smooth="yes"/>
      <point x="264.09876543209873" y="-585.7777777777778"/>
      <point x="231.56790123456787" y="-553.9382716049383"/>
      <point x="231.56790123456787" y="-494.33333333333337" type="curve" smooth="yes"/>
      <point x="231.56790123456787" y="-428.7283950617284"/>
      <point x="287.02469135802465" y="-388.6913580246914"/>
      <point x="432.28395061728395" y="-372.3456790123457" type="curve"/>
      <point x="414.4320987654321" y="-241.0864197530865" type="line"/>
      <point x="148.50617283950618" y="-256.46913580246917"/>
      <point x="67.14814814814815" y="-384.13580246913585"/>
      <point x="67.14814814814815" y="-494.9135802469136" type="curve" smooth="yes"/>
      <point x="67.14814814814815" y="-628.0740740740741"/>
      <point x="168.6172839506173" y="-726.6913580246915"/>
    </contour>
    <contour>
      <point x="271.03703703703707" y="-349.2222222222223" type="curve"/>
      <point x="353.4444444444444" y="-280.86419753086426" type="line"/>
      <point x="202.5185185185185" y="-256.59259259259267"/>
      <point x="163.64197530864195" y="-197.93827160493834"/>
      <point x="163.64197530864195" y="-139.7160493827161" type="curve" smooth="yes"/>
      <point x="163.64197530864195" y="-61.29629629629635"/>
      <point x="243.1975308641975" y="-31.617283950617313"/>
      <point x="364.55555555555554" y="-29.38271604938275" type="curve"/>
      <point x="364.55555555555554" y="110.5308641975308" type="line"/>
      <point x="350.6296296296296" y="111.5308641975308"/>
      <point x="341.4320987654321" y="112.5308641975308"/>
      <point x="327.5061728395062" y="112.5308641975308" type="curve" smooth="yes"/>
      <point x="177.19753086419752" y="112.5308641975308"/>
      <point x="-8.703703703703694" y="39.259259259259196"/>
      <point x="-8.703703703703694" y="-114.24691358024697" type="curve" smooth="yes"/>
      <point x="-8.703703703703694" y="-187.1728395061729"/>
      <point x="9.296296296296306" y="-308.20987654320993"/>
    </contour>
  </outline>
</glyph>
<glyph name="eCandraMatra-deva" format="2">
  <unicode hex="0945"/>
  <anchor x="273.0" y="1273.1728395061727" name="_candra"/>
  <anchor x="272.0" y="1273.1728395061727" name="_top"/>
  <anchor x="272.0" y="1557.2469135802469" name="candra"/>
  <anchor x="274.0" y="1566.938271604938" name="top"/>
  <outline>
    <contour>
      <point x="269.7654320987654" y="1415.679012345679" type="curve" smooth="yes"/>
      <point x="428.9753086419753" y="1415.679012345679"/>
      <point x="540.4814814814814" y="1497.7654320987654"/>
      <point x="610.3333333333333" y="1647.2839506172838" type="curve"/>
      <point x="496.03703703703707" y="1712.6049382716049" type="line"/>
      <point x="454.03703703703707" y="1645.641975308642"/>
      <point x="397.58024691358025" y="1573.4444444444443"/>
      <point x="276.0" y="1573.4444444444443" type="curve" smooth="yes"/>
      <point x="162.34567901234567" y="1573.4444444444443"/>
      <point x="96.38271604938272" y="1634.3703703703702"/>
      <point x="52.03703703703704" y="1708.641975308642" type="curve"/>
      <point x="-67.87654320987652" y="1637.7037037037037" type="line"/>
      <point x="-18.913580246913554" y="1523.037037037037"/>
      <point x="88.51851851851853" y="1415.679012345679"/>
    </contour>
  </outline>
</glyph>
<glyph name="eShortMatra-deva" format="2">
  <unicode hex="0946"/>
  <anchor x="254.76543209876544" y="1273.1728395061727" name="_top"/>
  <anchor x="449.3827160493827" y="1504.679012345679" name="candra"/>
  <anchor x="448.074074074074" y="1507.3703703703704" name="top"/>
  <outline>
    <contour>
      <point x="292.58024691358025" y="1190.358024691358" type="line"/>
      <point x="322.08641975308643" y="1264.0617283950617"/>
      <point x="345.6296296296296" y="1337.7283950617284"/>
      <point x="345.6296296296296" y="1422.4197530864196" type="curve" smooth="yes"/>
      <point x="345.6296296296296" y="1553.5432098765432"/>
      <point x="285.39506172839504" y="1639.2345679012346"/>
      <point x="143.1728395061728" y="1673.6172839506173" type="curve" smooth="yes"/>
      <point x="90.55555555555554" y="1686.2716049382716" type="line" smooth="yes"/>
      <point x="-26.543209876543237" y="1714.3827160493827"/>
      <point x="-62.271604938271636" y="1753.3086419753085"/>
      <point x="-62.271604938271636" y="1787.8765432098764" type="curve" smooth="yes"/>
      <point x="-62.271604938271636" y="1800.9135802469136"/>
      <point x="-60.61728395061731" y="1815.530864197531"/>
      <point x="-59.271604938271636" y="1829.4938271604938" type="curve"/>
      <point x="-175.87654320987656" y="1846.037037037037" type="line"/>
      <point x="-195.76543209876544" y="1805.2222222222222"/>
      <point x="-201.41975308641975" y="1773.2962962962963"/>
      <point x="-201.41975308641975" y="1742.3333333333333" type="curve" smooth="yes"/>
      <point x="-201.41975308641975" y="1663.0987654320988"/>
      <point x="-128.9135802469136" y="1580.7407407407406"/>
      <point x="35.35802469135801" y="1533.5432098765432" type="curve" smooth="yes"/>
      <point x="96.58024691358024" y="1516.1975308641975" type="line" smooth="yes"/>
      <point x="192.0987654320988" y="1489.469135802469"/>
      <point x="199.4814814814815" y="1449.0987654320988"/>
      <point x="199.4814814814815" y="1330.6049382716049" type="curve" smooth="yes"/>
      <point x="199.4814814814815" y="1298.8765432098764"/>
      <point x="194.13580246913583" y="1262.2592592592591"/>
      <point x="188.79012345679013" y="1219.5555555555554" type="curve"/>
    </contour>
  </outline>
</glyph>
<glyph name="eMatra-deva" format="2">
  <unicode hex="0947"/>
  <anchor x="260.7654320987654" y="1273.1728395061727" name="_top"/>
  <anchor x="479.0" y="1378.716049382716" name="candra"/>
  <anchor x="465.59259259259255" y="1273.1728395061727" name="top"/>
  <outline>
    <contour>
      <point x="203.5925925925926" y="1219.7407407407406" type="line"/>
      <point x="339.7407407407407" y="1272.1358024691358" type="line"/>
      <point x="156.04938271604937" y="1756.3456790123457"/>
      <point x="87.40740740740739" y="1814.20987654321"/>
      <point x="-207.87654320987656" y="1814.20987654321" type="curve" smooth="yes"/>
      <point x="-255.60493827160494" y="1814.20987654321"/>
      <point x="-299.8395061728395" y="1810.20987654321"/>
      <point x="-367.61728395061726" y="1795.2839506172838" type="curve"/>
      <point x="-341.7283950617284" y="1644.0987654320988" type="line"/>
      <point x="-300.14814814814815" y="1649.79012345679"/>
      <point x="-255.83950617283952" y="1655.0987654320988"/>
      <point x="-200.30864197530863" y="1655.0987654320988" type="curve" smooth="yes"/>
      <point x="-0.2345679012345645" y="1655.0987654320988"/>
      <point x="48.44444444444446" y="1572.432098765432"/>
      <point x="185.24691358024694" y="1261.3950617283951" type="curve" smooth="yes"/>
    </contour>
  </outline>
</glyph>
<glyph name="aiMatra-deva" format="2">
  <unicode hex="0948"/>
  <anchor x="243.24691358024694" y="1273.1728395061727" name="_top"/>
  <anchor x="462.08641975308643" y="1473.79012345679" name="candra"/>
  <anchor x="337.61728395061726" y="1273.1728395061727" name="top"/>
  <outline>
    <contour>
      <point x="195.3950617283951" y="1225.2469135802469" type="curve"/>
      <point x="290.14814814814815" y="1261.9876543209875" type="line"/>
      <point x="188.76543209876544" y="1737.7283950617284"/>
      <point x="63.43209876543209" y="1853.9629629629628"/>
      <point x="-224.25925925925927" y="1853.9629629629628" type="curve" smooth="yes"/>
      <point x="-321.7037037037037" y="1853.9629629629628"/>
      <point x="-388.3333333333333" y="1840.0740740740741"/>
      <point x="-433.4444444444444" y="1830.4197530864196" type="curve"/>
      <point x="-403.28395061728395" y="1690.8148148148148" type="line"/>
      <point x="-337.1975308641975" y="1704.7407407407406"/>
      <point x="-276.8024691358025" y="1715.9753086419753"/>
      <point x="-215.9135802469136" y="1715.9753086419753" type="curve" smooth="yes"/>
      <point x="-49.81481481481481" y="1715.9753086419753"/>
      <point x="71.56790123456791" y="1638.1481481481483"/>
      <point x="178.0987654320988" y="1331.469135802469" type="curve"/>
      <point x="209.37037037037038" y="1345.9382716049383" type="line"/>
      <point x="69.9135802469136" y="1509.7037037037037"/>
      <point x="-7.7160493827160295" y="1574.4444444444443"/>
      <point x="-155.03703703703704" y="1575.1358024691358" type="curve" smooth="yes"/>
      <point x="-231.41975308641975" y="1575.4814814814815"/>
      <point x="-314.32098765432096" y="1565.8271604938273"/>
      <point x="-389.02469135802465" y="1547.6296296296296" type="curve"/>
      <point x="-357.2098765432099" y="1420.2592592592594" type="line"/>
      <point x="-283.7037037037037" y="1434.530864197531"/>
      <point x="-222.0864197530864" y="1442.4938271604938"/>
      <point x="-154.16049382716048" y="1442.4938271604938" type="curve" smooth="yes"/>
      <point x="11.82716049382718" y="1442.4938271604938"/>
      <point x="90.06172839506175" y="1360.8395061728395"/>
    </contour>
  </outline>
</glyph>
<glyph name="halant-deva" format="2">
  <unicode hex="094D"/>
  <anchor x="163.1358024691358" y="0.0" name="_bottom"/>
  <anchor x="171.0" y="-351.2222222222222" name="bottom"/>
  <anchor x="151.92592592592592" y="-369.5061728395062" name="nukta"/>
  <outline>
    <contour>
      <point x="586.1851851851851" y="-487.8765432098765" type="curve"/>
      <point x="670.4320987654321" y="-404.9753086419753" type="line"/>
      <point x="410.5802469135802" y="-122.38271604938272"/>
      <point x="288.6049382716049" y="-61.987654320987666"/>
      <point x="120.0617283950617" y="-61.987654320987666" type="curve" smooth="yes"/>
      <point x="58.827160493827144" y="-61.987654320987666"/>
      <point x="15.209876543209862" y="-68.2962962962963"/>
      <point x="-46.09876543209878" y="-76.67901234567903" type="curve"/>
      <point x="-19.555555555555575" y="-241.4074074074074" type="line"/>
      <point x="41.44444444444443" y="-234.02469135802465"/>
      <point x="80.44444444444443" y="-230.06172839506172"/>
      <point x="134.44444444444443" y="-230.06172839506172" type="curve" smooth="yes"/>
      <point x="268.0617283950617" y="-230.06172839506172"/>
      <point x="344.02469135802465" y="-254.67901234567898"/>
    </contour>
  </outline>
</glyph>
<glyph name="awMatra-deva" format="2">
  <advance width="558.5802469135803"/>
  <unicode hex="094F"/>
  <anchor x="279.61728395061726" y="0.0" name="bottom"/>
  <anchor x="206.4074074074074" y="1273.1728395061727" name="candra"/>
  <anchor x="279.30864197530866" y="1273.1728395061727" name="top"/>
  <outline>
    <contour>
      <point x="306.0740740740741" y="1195.6172839506173" type="line"/>
      <point x="370.2469135802469" y="1286.5925925925926"/>
      <point x="394.4074074074074" y="1365.2592592592591"/>
      <point x="394.4074074074074" y="1436.5061728395062" type="curve" smooth="yes"/>
      <point x="394.4074074074074" y="1576.938271604938"/>
      <point x="291.2469135802469" y="1650.1728395061727"/>
      <point x="112.20987654320986" y="1679.9012345679012" type="curve" smooth="yes"/>
      <point x="-131.50617283950612" y="1719.0246913580247" type="line" smooth="yes"/>
      <point x="-269.72839506172835" y="1742.4444444444443"/>
      <point x="-304.4938271604938" y="1766.358024691358"/>
      <point x="-308.1111111111111" y="1813.7777777777778" type="curve" smooth="yes"/>
      <point x="-308.7654320987654" y="1821.8148148148148"/>
      <point x="-308.7654320987654" y="1830.5061728395062"/>
      <point x="-308.074074074074" y="1840.1975308641975" type="curve"/>
      <point x="-383.12345679012344" y="1854.8148148148148" type="line"/>
      <point x="-411.2839506172839" y="1824.888888888889"/>
      <point x="-423.5555555555555" y="1791.6543209876543"/>
      <point x="-423.5555555555555" y="1760.0740740740741" type="curve" smooth="yes"/>
      <point x="-423.5555555555555" y="1685.4197530864196"/>
      <point x="-357.9382716049382" y="1616.4567901234568"/>
      <point x="-232.70370370370364" y="1594.7654320987654" type="curve" smooth="yes"/>
      <point x="40.56790123456791" y="1550.4938271604938" type="line" smooth="yes"/>
      <point x="186.7530864197531" y="1524.7283950617284"/>
      <point x="272.38271604938274" y="1494.888888888889"/>
      <point x="272.38271604938274" y="1367.0987654320988" type="curve" smooth="yes"/>
      <point x="272.38271604938274" y="1332.2839506172838"/>
      <point x="270.03703703703707" y="1295.20987654321"/>
      <point x="244.1851851851852" y="1238.2469135802469" type="curve"/>
    </contour>
    <contour>
      <point x="247.06172839506175" y="1107.2469135802469" type="line"/>
      <point x="262.641975308642" y="1157.8271604938273"/>
      <point x="274.5679012345679" y="1208.9876543209875"/>
      <point x="274.5679012345679" y="1251.2222222222222" type="curve" smooth="yes"/>
      <point x="274.5679012345679" y="1382.9876543209875"/>
      <point x="212.88888888888889" y="1437.7283950617284"/>
      <point x="18.765432098765437" y="1468.3456790123457" type="curve" smooth="yes"/>
      <point x="-279.40740740740733" y="1514.7777777777778" type="line" smooth="yes"/>
      <point x="-427.4814814814814" y="1536.7777777777778"/>
      <point x="-459.2839506172839" y="1587.0"/>
      <point x="-460.9382716049382" y="1654.3456790123457" type="curve" smooth="yes"/>
      <point x="-461.59259259259255" y="1664.7283950617284"/>
      <point x="-461.2469135802469" y="1675.111111111111"/>
      <point x="-460.2098765432098" y="1685.4938271604938" type="curve"/>
      <point x="-544.5679012345679" y="1700.148148148148" type="line"/>
      <point x="-563.8024691358024" y="1664.567901234568"/>
      <point x="-573.074074074074" y="1627.679012345679"/>
      <point x="-573.074074074074" y="1592.4444444444443" type="curve" smooth="yes"/>
      <point x="-573.074074074074" y="1489.1728395061727"/>
      <point x="-496.49382716049377" y="1396.5925925925926"/>
      <point x="-323.40740740740733" y="1376.5555555555554" type="curve" smooth="yes"/>
      <point x="20.61728395061728" y="1336.9753086419753" type="line" smooth="yes"/>
      <point x="159.7530864197531" y="1318.5185185185185"/>
      <point x="191.2098765432099" y="1293.358024691358"/>
      <point x="191.2098765432099" y="1211.567901234568" type="curve" smooth="yes"/>
      <point x="191.2098765432099" y="1189.6049382716049"/>
      <point x="188.24691358024694" y="1161.3333333333333"/>
      <point x="185.5925925925926" y="1128.1358024691358" type="curve"/>
    </contour>
    <component base="aaMatra-deva"/>
  </outline>
</glyph>
<glyph name="anudatta-deva" format="2">
  <unicode hex="0952"/>
  <outline>
    <contour>
      <point x="-850.1728395061729" y="-447.2469135802469" type="line"/>
      <point x="-105.2098765432099" y="-447.2469135802469" type="line"/>
      <point x="-105.2098765432099" y="-301.0987654320988" type="line"/>
      <point x="-850.1728395061729" y="-301.0987654320988" type="line"/>
    </contour>
  </outline>
</glyph>
<glyph name="grave-deva" format="2">
  <unicode hex="0953"/>
  <outline>
    <contour>
      <point x="-347.0617283950617" y="1319.3456790123457" type="line"/>
      <point x="-259.85185185185185" y="1411.5555555555554" type="line"/>
      <point x="-652.6296296296296" y="1801.641975308642" type="line"/>
      <point x="-764.074074074074" y="1706.3950617283951" type="line"/>
    </contour>
  </outline>
</glyph>
<glyph name="acute-deva" format="2">
  <unicode hex="0954"/>
  <outline>
    <contour>
      <point x="-268.9259259259259" y="1319.3456790123457" type="line"/>
      <point x="148.74074074074073" y="1706.3950617283951" type="line"/>
      <point x="36.987654320987666" y="1801.641975308642" type="line"/>
      <point x="-355.7901234567901" y="1411.5555555555554" type="line"/>
    </contour>
  </outline>
</glyph>
<glyph name="oe-deva" format="2">
  <advance width="1394.5061728395062"/>
  <unicode hex="0973"/>
  <anchor x="1111.8148148148148" y="0.0" name="bottom"/>
  <anchor x="929.9012345679013" y="1273.1728395061727" name="candra"/>
  <anchor x="1138.0987654320988" y="1273.1728395061727" name="top"/>
  <outline>
    <contour>
      <point x="1022.9876543209876" y="1184.7777777777778" type="line"/>
      <point x="1203.6049382716049" y="1184.7777777777778" type="line"/>
      <point x="1203.6049382716049" y="1537.7037037037037" type="line"/>
      <point x="1022.9876543209876" y="1537.7037037037037" type="line"/>
    </contour>
    <component base="a-deva"/>
  </outline>
</glyph>
<glyph name="ooe-deva" format="2">
  <advance width="1959.2345679012346"/>
  <unicode hex="0974"/>
  <anchor x="1111.8148148148148" y="0.0" name="bottom_1"/>
  <anchor x="1670.7037037037037" y="0.0" name="bottom_2"/>
  <anchor x="929.9012345679013" y="1273.1728395061727" name="candra_1"/>
  <anchor x="1597.4938271604938" y="1273.1728395061727" name="candra_2"/>
  <anchor x="1138.0987654320988" y="1273.1728395061727" name="top_1"/>
  <anchor x="1670.3950617283951" y="1273.1728395061727" name="top_2"/>
  <outline>
    <contour>
      <point x="1581.9135802469136" y="1171.6913580246915" type="line"/>
      <point x="1762.530864197531" y="1171.6913580246915" type="line"/>
      <point x="1762.530864197531" y="1537.7037037037037" type="line"/>
      <point x="1581.9135802469136" y="1537.7037037037037" type="line"/>
    </contour>
    <component base="aa-deva"/>
  </outline>
</glyph>
<glyph name="aw-deva" format="2">
  <advance width="1949.6666666666667"/>
  <unicode hex="0975"/>
  <anchor x="1111.8148148148148" y="0.0" name="bottom_1"/>
  <anchor x="1670.7037037037037" y="0.0" name="bottom_2"/>
  <anchor x="929.9012345679013" y="1273.1728395061727" name="candra_1"/>
  <anchor x="1597.4938271604938" y="1273.1728395061727" name="candra_2"/>
  <anchor x="1138.0987654320988" y="1273.1728395061727" name="top_1"/>
  <anchor x="1670.3950617283951" y="1273.1728395061727" name="top_2"/>
  <outline>
    <contour>
      <point x="1721.9753086419753" y="1234.8765432098764" type="line"/>
      <point x="1786.148148148148" y="1325.8518518518517"/>
      <point x="1810.3086419753085" y="1404.5185185185185"/>
      <point x="1810.3086419753085" y="1475.7654320987654" type="curve" smooth="yes"/>
      <point x="1810.3086419753085" y="1614.1234567901233"/>
      <point x="1708.1851851851852" y="1687.358024691358"/>
      <point x="1528.4938271604938" y="1716.395061728395" type="curve" smooth="yes"/>
      <point x="1276.79012345679" y="1756.5555555555554" type="line" smooth="yes"/>
      <point x="1146.1728395061727" y="1778.2469135802469"/>
      <point x="1112.4074074074074" y="1802.8518518518517"/>
      <point x="1107.79012345679" y="1850.2716049382716" type="curve" smooth="yes"/>
      <point x="1107.1358024691358" y="1858.3086419753085"/>
      <point x="1107.4814814814815" y="1867.0"/>
      <point x="1108.1728395061727" y="1876.6913580246912" type="curve"/>
      <point x="1032.7777777777778" y="1891.3086419753085" type="line"/>
      <point x="1004.6172839506173" y="1861.3827160493827"/>
      <point x="992.3456790123457" y="1828.148148148148"/>
      <point x="992.3456790123457" y="1796.567901234568" type="curve" smooth="yes"/>
      <point x="992.3456790123457" y="1721.9135802469136"/>
      <point x="1057.962962962963" y="1650.9506172839506"/>
      <point x="1183.1975308641975" y="1631.2592592592591" type="curve" smooth="yes"/>
      <point x="1456.8148148148148" y="1587.679012345679" type="line" smooth="yes"/>
      <point x="1602.6543209876543" y="1564.2592592592591"/>
      <point x="1688.2839506172838" y="1532.074074074074"/>
      <point x="1688.2839506172838" y="1406.358024691358" type="curve" smooth="yes"/>
      <point x="1688.2839506172838" y="1371.5432098765432"/>
      <point x="1685.9382716049383" y="1334.469135802469"/>
      <point x="1660.0864197530864" y="1277.5061728395062" type="curve"/>
    </contour>
    <contour>
      <point x="1662.3086419753085" y="1120.3333333333333" type="line"/>
      <point x="1678.2345679012346" y="1170.9135802469136"/>
      <point x="1690.1604938271605" y="1222.0740740740741"/>
      <point x="1690.1604938271605" y="1264.3086419753085" type="curve" smooth="yes"/>
      <point x="1690.1604938271605" y="1396.0740740740741"/>
      <point x="1628.4814814814815" y="1451.469135802469"/>
      <point x="1434.358024691358" y="1481.432098765432" type="curve" smooth="yes"/>
      <point x="1136.1851851851852" y="1527.8641975308642" type="line" smooth="yes"/>
      <point x="987.7654320987655" y="1550.5185185185185"/>
      <point x="954.6543209876544" y="1600.0864197530864"/>
      <point x="954.6543209876544" y="1667.432098765432" type="curve" smooth="yes"/>
      <point x="954.3086419753087" y="1677.8148148148148"/>
      <point x="954.3456790123457" y="1688.1975308641975"/>
      <point x="955.3827160493828" y="1698.5802469135801" type="curve"/>
      <point x="871.0246913580247" y="1713.2345679012346" type="line"/>
      <point x="851.7901234567902" y="1677.6543209876543"/>
      <point x="842.5185185185186" y="1640.7654320987654"/>
      <point x="842.5185185185186" y="1605.530864197531" type="curve" smooth="yes"/>
      <point x="842.5185185185186" y="1502.2592592592591"/>
      <point x="918.7530864197531" y="1409.679012345679"/>
      <point x="1092.1851851851852" y="1389.641975308642" type="curve" smooth="yes"/>
      <point x="1436.20987654321" y="1350.0617283950617" type="line" smooth="yes"/>
      <point x="1575.3456790123457" y="1332.2592592592591"/>
      <point x="1606.8024691358025" y="1306.4444444444443"/>
      <point x="1606.8024691358025" y="1224.6543209876543" type="curve" smooth="yes"/>
      <point x="1606.8024691358025" y="1202.6913580246912"/>
      <point x="1603.8395061728395" y="1174.4197530864196"/>
      <point x="1601.1851851851852" y="1141.2222222222222" type="curve"/>
    </contour>
    <component base="aa-deva"/>
  </outline>
</glyph>
<glyph name="ue-deva" format="2">
  <advance width="1394.5061728395062"/>
  <unicode hex="0976"/>
  <anchor x="1111.8148148148148" y="0.0" name="bottom"/>
  <anchor x="929.9012345679013" y="1273.1728395061727" name="candra"/>
  <anchor x="1138.0987654320988" y="1273.1728395061727" name="top"/>
  <outline>
    <contour>
      <point x="640.2469135802469" y="-315.62962962962956" type="curve" smooth="yes"/>
      <point x="809.4567901234568" y="-315.62962962962956"/>
      <point x="921.3086419753085" y="-233.1975308641975"/>
      <point x="990.8148148148148" y="-83.67901234567898" type="curve"/>
      <point x="875.8641975308642" y="-18.358024691358015" type="line"/>
      <point x="833.8641975308642" y="-85.66666666666666"/>
      <point x="763.9012345679013" y="-158.1728395061728"/>
      <point x="629.358024691358" y="-158.1728395061728" type="curve" smooth="yes"/>
      <point x="491.77777777777777" y="-158.1728395061728"/>
      <point x="425.8148148148148" y="-96.93827160493825"/>
      <point x="381.4691358024691" y="-22.320987654320977" type="curve"/>
      <point x="285.3703703703704" y="-89.29629629629628" type="line"/>
      <point x="334.33333333333337" y="-203.96296296296293"/>
      <point x="449.34567901234567" y="-315.62962962962956"/>
    </contour>
    <component base="a-deva"/>
  </outline>
</glyph>
<glyph name="uue-deva" format="2">
  <advance width="1394.5061728395062"/>
  <unicode hex="0977"/>
  <anchor x="1111.8148148148148" y="0.0" name="bottom"/>
  <anchor x="929.9012345679013" y="1273.1728395061727" name="candra"/>
  <anchor x="1138.0987654320988" y="1273.1728395061727" name="top"/>
  <outline>
    <contour>
      <point x="626.7901234567901" y="-291.8024691358024" type="curve" smooth="yes"/>
      <point x="806.0" y="-291.8024691358024"/>
      <point x="917.8518518518518" y="-209.37037037037032"/>
      <point x="987.358024691358" y="-59.85185185185181" type="curve"/>
      <point x="872.4074074074074" y="5.469135802469161" type="line"/>
      <point x="830.4074074074074" y="-61.83950617283948"/>
      <point x="760.4444444444445" y="-134.34567901234564"/>
      <point x="615.9012345679013" y="-134.34567901234564" type="curve" smooth="yes"/>
      <point x="468.32098765432096" y="-134.34567901234564"/>
      <point x="402.358024691358" y="-73.11111111111109"/>
      <point x="358.01234567901236" y="1.506172839506199" type="curve"/>
      <point x="261.91358024691357" y="-65.4691358024691" type="line"/>
      <point x="310.87654320987656" y="-180.13580246913574"/>
      <point x="425.88888888888886" y="-291.8024691358024"/>
    </contour>
    <contour>
      <point x="638.9876543209876" y="-594.9876543209875" type="curve" smooth="yes"/>
      <point x="818.1975308641975" y="-594.9876543209875"/>
      <point x="930.0493827160493" y="-512.5555555555554"/>
      <point x="999.5555555555555" y="-363.03703703703695" type="curve"/>
      <point x="884.604938271605" y="-297.716049382716" type="line"/>
      <point x="842.604938271605" y="-365.02469135802465"/>
      <point x="772.6419753086419" y="-436.8765432098765"/>
      <point x="628.0987654320987" y="-436.8765432098765" type="curve" smooth="yes"/>
      <point x="480.5185185185185" y="-436.8765432098765"/>
      <point x="414.55555555555554" y="-375.6419753086419"/>
      <point x="370.2098765432099" y="-301.679012345679" type="curve"/>
      <point x="274.11111111111114" y="-368.6543209876543" type="line"/>
      <point x="323.0740740740741" y="-482.6666666666666"/>
      <point x="438.08641975308643" y="-594.9876543209875"/>
    </contour>
    <component base="a-deva"/>
  </outline>
</glyph>
<glyph name="gga-deva" format="2">
  <advance width="1142.888888888889"/>
  <unicode hex="097B"/>
  <anchor x="863.2716049382716" y="0.0" name="bottom"/>
  <anchor x="774.4074074074074" y="1273.1728395061727" name="candra"/>
  <anchor x="316.1975308641975" y="111.01234567901237" name="nukta"/>
  <anchor x="863.6172839506173" y="1273.1728395061727" name="top"/>
  <outline>
    <contour>
      <point x="74.2962962962963" y="-80.7901234567901" type="line"/>
      <point x="953.7530864197531" y="-80.7901234567901" type="line"/>
      <point x="953.7530864197531" y="65.7037037037037" type="line"/>
      <point x="74.2962962962963" y="65.7037037037037" type="line"/>
    </contour>
    <component base="ga-deva"/>
  </outline>
</glyph>
<glyph name="jja-deva" format="2">
  <advance width="1420.6172839506173"/>
  <unicode hex="097C"/>
  <anchor x="1145.6172839506173" y="0.0" name="bottom"/>
  <anchor x="1027.0" y="1273.1728395061727" name="candra"/>
  <anchor x="135.76543209876544" y="83.0864197530864" name="nukta"/>
  <anchor x="1144.3456790123457" y="1273.1728395061727" name="top"/>
  <outline>
    <contour>
      <point x="135.59259259259258" y="-80.7901234567901" type="line"/>
      <point x="1232.1358024691358" y="-80.7901234567901" type="line"/>
      <point x="1232.1358024691358" y="65.35802469135801" type="line"/>
      <point x="135.59259259259258" y="65.35802469135801" type="line"/>
    </contour>
    <component base="ja-deva"/>
  </outline>
</glyph>
<glyph name="ddda-deva" format="2">
  <advance width="1031.8024691358025"/>
  <unicode hex="097E"/>
  <anchor x="544.4444444444445" y="-85.61728395061728" name="bottom"/>
  <anchor x="660.4197530864197" y="1273.1728395061727" name="candra"/>
  <anchor x="549.679012345679" y="-232.7037037037037" name="nukta"/>
  <anchor x="748.283950617284" y="1273.1728395061727" name="top"/>
  <outline>
    <contour>
      <point x="99.41975308641976" y="-312.3827160493827" type="line"/>
      <point x="950.7654320987654" y="-312.3827160493827" type="line"/>
      <point x="950.7654320987654" y="-166.23456790123456" type="line"/>
      <point x="99.41975308641976" y="-166.23456790123456" type="line"/>
    </contour>
    <component base="dda-deva"/>
  </outline>
</glyph>
<glyph name="bba-deva" format="2">
  <advance width="1116.0864197530864"/>
  <unicode hex="097F"/>
  <anchor x="837.1234567901234" y="0.0" name="bottom"/>
  <anchor x="722.0617283950618" y="1273.1728395061727" name="candra"/>
  <anchor x="162.283950617284" y="42.03703703703704" name="nukta"/>
  <anchor x="837.1234567901234" y="1273.1728395061727" name="top"/>
  <outline>
    <contour>
      <point x="74.95061728395063" y="-80.7901234567901" type="line"/>
      <point x="927.604938271605" y="-80.7901234567901" type="line"/>
      <point x="927.604938271605" y="65.7037037037037" type="line"/>
      <point x="74.95061728395063" y="65.7037037037037" type="line"/>
    </contour>
    <component base="ba-deva"/>
  </outline>
</glyph>
<glyph name="endash" format="2">
  <advance width="983.0"/>
  <unicode hex="2013"/>
  <outline>
    <contour>
      <point x="84.96296296296296" y="450.91358024691357" type="line"/>
      <point x="898.0370370370371" y="450.91358024691357" type="line"/>
      <point x="898.0370370370371" y="580.0123456790124" type="line"/>
      <point x="84.96296296296296" y="580.0123456790124" type="line"/>
    </contour>
  </outline>
</glyph>
<glyph name="horizontalbar" format="2">
  <advance width="1638.0"/>
  <unicode hex="2015"/>
  <outline>
    <contour>
      <point x="84.96296296296296" y="450.91358024691357" type="line"/>
      <point x="1553.037037037037" y="450.91358024691357" type="line"/>
      <point x="1553.037037037037" y="580.0123456790124" type="line"/>
      <point x="84.96296296296296" y="580.0123456790124" type="line"/>
    </contour>
  </outline>
</glyph>
<glyph name="guilsinglleft" format="2">
  <advance width="562.0123456790124"/>
  <unicode hex="2039"/>
  <outline>
    <contour>
      <point x="371.96296296296293" y="131.49382716049382" type="line"/>
      <point x="451.01234567901236" y="195.23456790123456" type="line"/>
      <point x="212.55555555555554" y="516.0" type="line"/>
      <point x="451.01234567901236" y="834.7283950617284" type="line"/>
      <point x="371.96296296296293" y="900.5061728395061" type="line"/>
      <point x="93.27160493827161" y="587.0123456790124" type="line"/>
      <point x="93.27160493827161" y="445.98765432098764" type="line"/>
    </contour>
  </outline>
</glyph>
<glyph name="i.sups" format="2">
  <advance width="347.32098765432096"/>
  <unicode hex="2071"/>
  <outline>
    <contour>
      <point x="102.49382716049384" y="532.0" type="line"/>
      <point x="243.82716049382714" y="532.0" type="line"/>
      <point x="243.82716049382714" y="1194.2345679012346" type="line"/>
      <point x="102.49382716049384" y="1194.2345679012346" type="line"/>
    </contour>
    <contour>
      <point x="175.50617283950618" y="1315.4938271604938" type="curve" smooth="yes"/>
      <point x="228.01234567901233" y="1315.4938271604938"/>
      <point x="266.9012345679012" y="1350.7283950617284"/>
      <point x="266.9012345679012" y="1400.2716049382716" type="curve" smooth="yes"/>
      <point x="266.9012345679012" y="1449.1604938271605"/>
      <point x="228.01234567901233" y="1484.3950617283951"/>
      <point x="175.50617283950618" y="1484.3950617283951" type="curve" smooth="yes"/>
      <point x="122.34567901234568" y="1484.3950617283951"/>
      <point x="83.76543209876543" y="1449.1604938271605"/>
      <point x="83.76543209876543" y="1400.2716049382716" type="curve" smooth="yes"/>
      <point x="83.76543209876543" y="1350.7283950617284"/>
      <point x="122.34567901234568" y="1315.4938271604938"/>
    </contour>
  </outline>
</glyph>
<glyph name="product" format="2">
  <advance width="1390.7530864197531"/>
  <unicode hex="220F"/>
  <outline>
    <contour>
      <point x="179.14814814814815" y="-246.0" type="line"/>
      <point x="370.8024691358024" y="-246.0" type="line"/>
      <point x="370.8024691358024" y="1137.5802469135804" type="line"/>
      <point x="1018.2592592592592" y="1137.5802469135804" type="line"/>
      <point x="1018.2592592592592" y="-246.0" type="line"/>
      <point x="1212.9506172839506" y="-246.0" type="line"/>
      <point x="1212.9506172839506" y="1305.3827160493827" type="line"/>
      <point x="179.14814814814815" y="1305.3827160493827" type="line"/>
    </contour>
  </outline>
</glyph>
<glyph name="minus" format="2">
  <advance width="1028.5185185185185"/>
  <unicode hex="2212"/>
  <outline>
    <contour>
      <point x="70.0" y="604.9876543209876" type="line"/>
      <point x="958.5185185185185" y="604.9876543209876" type="line"/>
      <point x="958.5185185185185" y="746.0123456790124" type="line"/>
      <point x="70.0" y="746.0123456790124" type="line"/>
    </contour>
  </outline>
</glyph>
<glyph name="acutecomb.cap" format="2">
  <anchor x="102.44444444444443" y="1342.0740740740741" name="_top"/>
  <anchor x="205.57407407407405" y="1676.2716049382716" name="top"/>
  <outline>
    <contour>
      <point x="10.0" y="1474.7283950617284" type="line"/>
      <point x="167.56790123456787" y="1474.7283950617284" type="line"/>
      <point x="401.1481481481481" y="1706.2716049382716" type="line"/>
      <point x="188.11111111111111" y="1706.2716049382716" type="line"/>
    </contour>
  </outline>
</glyph>
<glyph name="aiMatra_reph-deva" format="2">
  <advance width="540.0"/>
  <anchor x="228.97530864197535" y="1273.1728395061727" name="_top"/>
  <anchor x="230.59259259259258" y="1663.7530864197531" name="candra"/>
  <anchor x="227.66666666666666" y="1660.0987654320988" name="top"/>
  <outline>
    <contour>
      <point x="242.27160493827165" y="1235.79012345679" type="curve"/>
      <point x="300.8641975308642" y="1263.7530864197531" type="line"/>
      <point x="277.641975308642" y="1313.0617283950617"/>
      <point x="263.2962962962963" y="1379.3333333333333"/>
      <point x="263.2962962962963" y="1437.9753086419753" type="curve" smooth="yes"/>
      <point x="263.2962962962963" y="1538.5802469135801"/>
      <point x="317.5555555555556" y="1616.2345679012346"/>
      <point x="431.2098765432099" y="1616.2345679012346" type="curve" smooth="yes"/>
      <point x="513.1728395061729" y="1616.2345679012346"/>
      <point x="570.5925925925926" y="1594.8518518518517"/>
      <point x="628.0617283950618" y="1562.6172839506173" type="curve"/>
      <point x="668.9135802469136" y="1701.8395061728395" type="line"/>
      <point x="609.3703703703704" y="1739.8395061728395"/>
      <point x="524.679012345679" y="1772.037037037037"/>
      <point x="415.5925925925926" y="1772.037037037037" type="curve" smooth="yes"/>
      <point x="239.6913580246914" y="1772.037037037037"/>
      <point x="142.93827160493828" y="1644.9876543209875"/>
      <point x="142.93827160493828" y="1490.9012345679012" type="curve" smooth="yes"/>
      <point x="142.93827160493828" y="1424.0246913580247"/>
      <point x="161.1604938271605" y="1322.5185185185185"/>
    </contour>
    <contour>
      <point x="198.85185185185188" y="1210.4814814814815" type="curve"/>
      <point x="293.60493827160496" y="1247.2222222222222" type="line"/>
      <point x="192.22222222222223" y="1722.9629629629628"/>
      <point x="66.88888888888889" y="1839.1975308641975"/>
      <point x="-220.80246913580248" y="1839.1975308641975" type="curve" smooth="yes"/>
      <point x="-318.2469135802469" y="1839.1975308641975"/>
      <point x="-384.8765432098765" y="1825.3086419753085"/>
      <point x="-429.98765432098764" y="1815.6543209876543" type="curve"/>
      <point x="-399.82716049382714" y="1676.0493827160494" type="line"/>
      <point x="-333.7407407407407" y="1689.9753086419753"/>
      <point x="-273.34567901234567" y="1701.20987654321"/>
      <point x="-212.45679012345678" y="1701.20987654321" type="curve" smooth="yes"/>
      <point x="-46.35802469135801" y="1701.20987654321"/>
      <point x="75.02469135802471" y="1623.3827160493827"/>
      <point x="181.55555555555557" y="1316.7037037037037" type="curve"/>
      <point x="212.8271604938272" y="1331.1728395061727" type="line"/>
      <point x="73.37037037037038" y="1494.9382716049383"/>
      <point x="-4.259259259259231" y="1559.679012345679"/>
      <point x="-151.58024691358025" y="1560.3703703703704" type="curve" smooth="yes"/>
      <point x="-227.96296296296296" y="1560.716049382716"/>
      <point x="-310.8641975308642" y="1551.0617283950617"/>
      <point x="-385.5679012345679" y="1532.8641975308642" type="curve"/>
      <point x="-353.75308641975306" y="1405.4938271604938" type="line"/>
      <point x="-280.2469135802469" y="1419.7654320987654"/>
      <point x="-218.62962962962962" y="1427.7283950617284"/>
      <point x="-150.7037037037037" y="1427.7283950617284" type="curve" smooth="yes"/>
      <point x="15.28395061728397" y="1427.7283950617284"/>
      <point x="93.51851851851853" y="1346.0740740740741"/>
    </contour>
  </outline>
</glyph>
<glyph name="aiMatra_reph_anusvara-deva" format="2">
  <advance width="540.0"/>
  <outline>
    <contour>
      <point x="449.4938271604938" y="1360.7777777777778" type="curve" smooth="yes"/>
      <point x="510.11111111111114" y="1360.7777777777778"/>
      <point x="536.0740740740741" y="1386.0864197530864"/>
      <point x="536.0740740740741" y="1445.7037037037037" type="curve" smooth="yes"/>
      <point x="536.0740740740741" y="1505.9753086419753"/>
      <point x="510.11111111111114" y="1531.2839506172838"/>
      <point x="449.4938271604938" y="1531.2839506172838" type="curve" smooth="yes"/>
      <point x="389.22222222222223" y="1531.2839506172838"/>
      <point x="362.91358024691357" y="1505.9753086419753"/>
      <point x="362.91358024691357" y="1445.7037037037037" type="curve" smooth="yes"/>
      <point x="362.91358024691357" y="1386.0864197530864"/>
      <point x="389.22222222222223" y="1360.7777777777778"/>
    </contour>
    <component base="aiMatra_reph-deva"/>
  </outline>
</glyph>
<glyph name="anusvara-deva.001" format="2">
  <anchor x="177.7037037037037" y="1273.1728395061727" name="_candra"/>
  <outline>
    <contour>
      <point x="390.12345679012344" y="1553.7654320987654" type="curve" smooth="yes"/>
      <point x="463.82716049382714" y="1553.7654320987654"/>
      <point x="495.02469135802465" y="1584.3086419753085"/>
      <point x="495.02469135802465" y="1657.0123456790122" type="curve" smooth="yes"/>
      <point x="495.02469135802465" y="1730.3703703703702"/>
      <point x="463.82716049382714" y="1760.9135802469134"/>
      <point x="390.12345679012344" y="1760.9135802469134" type="curve" smooth="yes"/>
      <point x="316.7654320987654" y="1760.9135802469134"/>
      <point x="285.2222222222222" y="1730.3703703703702"/>
      <point x="285.2222222222222" y="1657.0123456790122" type="curve" smooth="yes"/>
      <point x="285.2222222222222" y="1584.3086419753085"/>
      <point x="316.7654320987654" y="1553.7654320987654"/>
    </contour>
  </outline>
</glyph>
<glyph name="b_ra-deva" format="2">
  <advance width="606.679012345679"/>
  <outline>
    <contour>
      <point x="241.80246913580248" y="-82.25925925925924" type="line"/>
      <point x="814.4814814814814" y="344.1851851851852" type="line"/>
      <point x="753.0370370370371" y="442.55555555555554" type="line"/>
      <point x="140.35802469135805" y="49.382716049382715" type="line"/>
    </contour>
    <component base="b-deva"/>
  </outline>
</glyph>
<glyph name="bh_la-deva.loclMAR" format="2">
  <advance width="1257.9135802469136"/>
  <anchor x="911.395061728395" y="-482.4567901234568" name="bottom"/>
  <anchor x="612.0370370370371" y="1273.5185185185185" name="candra"/>
  <anchor x="971.3703703703703" y="1287.3456790123457" name="top"/>
  <outline>
    <contour>
      <point x="303.34567901234567" y="577.3086419753087" type="line"/>
      <point x="484.3086419753086" y="577.3086419753087" type="line"/>
      <point x="484.3086419753086" y="1033.7283950617284" type="line" smooth="yes"/>
      <point x="484.3086419753086" y="1159.7037037037037"/>
      <point x="464.3456790123456" y="1293.8641975308642"/>
      <point x="250.06172839506172" y="1293.8641975308642" type="curve" smooth="yes"/>
      <point x="186.1358024691358" y="1293.8641975308642"/>
      <point x="138.09876543209873" y="1284.8271604938273"/>
      <point x="93.2469135802469" y="1267.8641975308642" type="curve"/>
      <point x="116.20987654320986" y="1117.4444444444446" type="line"/>
      <point x="147.09876543209873" y="1124.4444444444446"/>
      <point x="182.5185185185185" y="1131.8271604938273"/>
      <point x="216.35802469135803" y="1131.8271604938273" type="curve" smooth="yes"/>
      <point x="272.30864197530866" y="1132.4814814814815"/>
      <point x="303.34567901234567" y="1110.4074074074074"/>
      <point x="303.34567901234567" y="1037.0740740740741" type="curve" smooth="yes"/>
    </contour>
    <contour>
      <point x="336.04938271604937" y="323.5308641975309" type="line"/>
      <point x="458.1111111111111" y="325.22222222222223"/>
      <point x="483.3086419753086" y="386.0"/>
      <point x="483.3086419753086" y="459.04938271604937" type="curve" smooth="yes"/>
      <point x="483.3086419753086" y="671.2962962962963" type="line"/>
      <point x="336.66666666666663" y="671.2962962962963" type="line"/>
      <point x="156.23456790123456" y="649.3333333333333" type="line"/>
      <point x="156.23456790123456" y="523.6543209876543" type="line"/>
    </contour>
    <contour>
      <point x="308.69135802469134" y="504.8395061728395" type="line"/>
      <point x="1024.6172839506173" y="504.8395061728395" type="line"/>
      <point x="1024.6172839506173" y="665.2592592592592" type="line"/>
      <point x="308.69135802469134" y="665.2592592592592" type="line"/>
    </contour>
    <contour>
      <point x="881.8888888888889" y="34.85185185185188" type="line"/>
      <point x="1062.8518518518517" y="34.85185185185188" type="line"/>
      <point x="1062.8518518518517" y="1209.0864197530864" type="line"/>
      <point x="881.8888888888889" y="1209.0864197530864" type="line"/>
    </contour>
    <contour>
      <point x="701.6296296296296" y="1117.4814814814815" type="line"/>
      <point x="1275.4938271604938" y="1117.4814814814815" type="line"/>
      <point x="1275.4938271604938" y="1273.1728395061727" type="line"/>
      <point x="701.6296296296296" y="1273.1728395061727" type="line"/>
    </contour>
    <component base="add" xOffset="80.9135802469136"/>
  </outline>
</glyph>
<glyph name="bh_r_ya-deva" format="2">
  <advance width="1967.6049382716049"/>
  <anchor x="1691.3333333333333" y="1.1728395061728563" name="bottom"/>
  <anchor x="1373.3703703703704" y="1273.5185185185185" name="candra"/>
  <anchor x="1095.4567901234568" y="55.77777777777777" name="nukta"/>
  <anchor x="1691.3333333333333" y="1287.3456790123457" name="top"/>
  <outline>
    <contour>
      <point x="496.28395061728384" y="-89.58024691358021" type="line"/>
      <point x="1088.8024691358023" y="427.7530864197531" type="line"/>
      <point x="982.8765432098766" y="532.1111111111111" type="line"/>
      <point x="386.8765432098765" y="41.67901234567903" type="line"/>
    </contour>
    <contour>
      <point x="328.1975308641975" y="295.91358024691357" type="line"/>
      <point x="450.25925925925924" y="296.95061728395063"/>
      <point x="475.45679012345676" y="358.38271604938274"/>
      <point x="475.45679012345676" y="430.77777777777777" type="curve" smooth="yes"/>
      <point x="475.45679012345676" y="643.0246913580247" type="line"/>
      <point x="328.8148148148148" y="643.0246913580247" type="line"/>
      <point x="148.3827160493827" y="621.716049382716" type="line"/>
      <point x="148.3827160493827" y="496.03703703703707" type="line"/>
    </contour>
    <contour>
      <point x="295.4938271604938" y="549.0370370370371" type="line"/>
      <point x="476.45679012345676" y="549.0370370370371" type="line"/>
      <point x="476.45679012345676" y="1033.7283950617284" type="line" smooth="yes"/>
      <point x="476.45679012345676" y="1159.7037037037037"/>
      <point x="456.4938271604938" y="1293.8641975308642"/>
      <point x="242.20987654320987" y="1293.8641975308642" type="curve" smooth="yes"/>
      <point x="178.28395061728395" y="1293.8641975308642"/>
      <point x="130.2469135802469" y="1284.8271604938273"/>
      <point x="85.39506172839505" y="1267.8641975308642" type="curve"/>
      <point x="108.35802469135801" y="1117.4444444444446" type="line"/>
      <point x="139.2469135802469" y="1124.4444444444446"/>
      <point x="174.66666666666666" y="1131.8271604938273"/>
      <point x="208.50617283950618" y="1131.8271604938273" type="curve" smooth="yes"/>
      <point x="264.4567901234568" y="1132.4814814814815"/>
      <point x="295.4938271604938" y="1110.4074074074074"/>
      <point x="295.4938271604938" y="1037.0740740740741" type="curve" smooth="yes"/>
    </contour>
    <contour>
      <point x="300.8395061728395" y="477.22222222222223" type="line"/>
      <point x="1016.7654320987654" y="477.22222222222223" type="line"/>
      <point x="1016.7654320987654" y="637.6419753086419" type="line"/>
      <point x="300.8395061728395" y="637.6419753086419" type="line"/>
    </contour>
    <contour>
      <point x="693.7777777777777" y="1117.4814814814815" type="line"/>
      <point x="860.716049382716" y="1117.4814814814815" type="line"/>
      <point x="860.716049382716" y="1273.1728395061727" type="line"/>
      <point x="693.7777777777777" y="1273.1728395061727" type="line"/>
    </contour>
    <component base="ya-deva" xOffset="812.2469135802469"/>
  </outline>
</glyph>
<glyph name="bha_ra-deva" format="2">
  <advance width="1226.7530864197531"/>
  <anchor x="954.4074074074074" y="27.34567901234568" name="bottom"/>
  <anchor x="616.4320987654321" y="1273.5185185185185" name="candra"/>
  <anchor x="953.716049382716" y="1287.3456790123457" name="top"/>
  <anchor x="367.96296296296293" y="68.86419753086417" name="nukta"/>
  <outline>
    <contour>
      <point x="381.09876543209873" y="-56.86419753086418" type="line"/>
      <point x="993.2469135802469" y="427.7530864197531" type="line"/>
      <point x="913.4938271604939" y="532.1111111111111" type="line"/>
      <point x="271.69135802469134" y="74.39506172839505" type="line"/>
    </contour>
    <component base="bha-deva" xOffset="-6.567901234567909"/>
  </outline>
</glyph>
<glyph name="brevecomb_acutecomb.cap" format="2">
  <anchor x="264.4320987654321" y="1342.0740740740741" name="_top"/>
  <anchor x="264.4320987654321" y="1864.7037037037037" name="top"/>
  <outline>
    <contour>
      <point x="264.4320987654321" y="1447.4197530864199" type="curve" smooth="yes"/>
      <point x="425.28395061728395" y="1447.4197530864199"/>
      <point x="505.2098765432099" y="1552.4938271604938"/>
      <point x="518.8641975308642" y="1671.2345679012346" type="curve"/>
      <point x="419.88888888888886" y="1671.2345679012346" type="line"/>
      <point x="403.2345679012346" y="1602.1975308641975"/>
      <point x="361.1604938271605" y="1544.0864197530864"/>
      <point x="264.4320987654321" y="1544.0864197530864" type="curve" smooth="yes"/>
      <point x="167.7037037037037" y="1544.0864197530864"/>
      <point x="125.62962962962962" y="1602.1975308641975"/>
      <point x="108.97530864197529" y="1671.2345679012346" type="curve"/>
      <point x="10.0" y="1671.2345679012346" type="line"/>
      <point x="23.65432098765432" y="1552.4938271604938"/>
      <point x="103.58024691358024" y="1447.4197530864199"/>
    </contour>
    <contour>
      <point x="182.19753086419752" y="1644.5802469135801" type="line"/>
      <point x="290.7901234567901" y="1644.5802469135801" type="line"/>
      <point x="491.0617283950617" y="1864.7037037037037" type="line"/>
      <point x="330.34567901234567" y="1864.7037037037037" type="line"/>
    </contour>
  </outline>
</glyph>
<glyph name="brevecomb_acutecomb" format="2">
  <anchor x="272.4691358024691" y="998.5061728395061" name="_top"/>
  <anchor x="272.4691358024691" y="1623.0123456790122" name="top"/>
  <outline>
    <contour>
      <point x="200.1851851851852" y="1391.0864197530864" type="line"/>
      <point x="308.12345679012344" y="1391.0864197530864" type="line"/>
      <point x="481.5185185185185" y="1623.0123456790122" type="line"/>
      <point x="328.7654320987654" y="1623.0123456790122" type="line"/>
    </contour>
    <contour>
      <point x="275.2345679012346" y="1154.6049382716049" type="curve" smooth="yes"/>
      <point x="453.4691358024691" y="1154.6049382716049"/>
      <point x="528.6296296296296" y="1285.6913580246915"/>
      <point x="536.6666666666666" y="1400.4444444444443" type="curve"/>
      <point x="440.30864197530866" y="1400.4444444444443" type="line"/>
      <point x="425.69135802469134" y="1333.469135802469"/>
      <point x="375.0" y="1258.1604938271605"/>
      <point x="275.2345679012346" y="1258.1604938271605" type="curve" smooth="yes"/>
      <point x="174.16049382716048" y="1258.1604938271605"/>
      <point x="122.1604938271605" y="1330.8518518518517"/>
      <point x="110.1604938271605" y="1400.4444444444443" type="curve"/>
      <point x="13.802469135802474" y="1400.4444444444443" type="line"/>
      <point x="21.839506172839513" y="1285.6913580246915"/>
      <point x="97.0" y="1154.6049382716049"/>
    </contour>
  </outline>
</glyph>
<glyph name="brevecomb_hookabovecomb.cap" format="2">
  <anchor x="264.4320987654321" y="1342.0740740740741" name="_top"/>
  <anchor x="264.4320987654321" y="1957.320987654321" name="top"/>
  <outline>
    <contour>
      <point x="264.4320987654321" y="1447.4197530864199" type="curve" smooth="yes"/>
      <point x="425.28395061728395" y="1447.4197530864199"/>
      <point x="505.2098765432099" y="1552.4938271604938"/>
      <point x="518.8641975308642" y="1671.2345679012346" type="curve"/>
      <point x="419.88888888888886" y="1671.2345679012346" type="line"/>
      <point x="403.2345679012346" y="1602.1975308641975"/>
      <point x="361.1604938271605" y="1544.0864197530864"/>
      <point x="264.4320987654321" y="1544.0864197530864" type="curve" smooth="yes"/>
      <point x="167.7037037037037" y="1544.0864197530864"/>
      <point x="125.62962962962962" y="1602.1975308641975"/>
      <point x="108.97530864197529" y="1671.2345679012346" type="curve"/>
      <point x="10.0" y="1671.2345679012346" type="line"/>
      <point x="23.65432098765432" y="1552.4938271604938"/>
      <point x="103.58024691358024" y="1447.4197530864199"/>
    </contour>
    <contour>
      <point x="214.58024691358025" y="1640.5802469135801" type="line"/>
      <point x="318.32098765432096" y="1655.962962962963"/>
      <point x="411.55555555555554" y="1698.5802469135801"/>
      <point x="411.55555555555554" y="1804.7777777777778" type="curve" smooth="yes"/>
      <point x="411.55555555555554" y="1899.8148148148148"/>
      <point x="325.7901234567901" y="1951.0123456790122"/>
      <point x="155.96296296296296" y="1957.320987654321" type="curve"/>
      <point x="137.3827160493827" y="1864.962962962963" type="line"/>
      <point x="238.34567901234567" y="1858.962962962963"/>
      <point x="279.4567901234568" y="1837.962962962963"/>
      <point x="279.4567901234568" y="1787.1975308641975" type="curve" smooth="yes"/>
      <point x="279.4567901234568" y="1745.469135802469"/>
      <point x="240.69135802469137" y="1728.0864197530864"/>
      <point x="192.92592592592592" y="1716.0493827160494" type="curve"/>
    </contour>
  </outline>
</glyph>
<glyph name="brevecomb_hookabovecomb" format="2">
  <anchor x="272.4691358024691" y="998.5061728395061" name="_top"/>
  <anchor x="272.4691358024691" y="1729.1728395061727" name="top"/>
  <outline>
    <contour>
      <point x="214.92592592592592" y="1404.432098765432" type="line"/>
      <point x="318.01234567901236" y="1425.469135802469"/>
      <point x="414.55555555555554" y="1464.1234567901236"/>
      <point x="414.55555555555554" y="1577.2839506172838" type="curve" smooth="yes"/>
      <point x="414.55555555555554" y="1674.9382716049383"/>
      <point x="326.48148148148147" y="1724.5185185185185"/>
      <point x="156.30864197530863" y="1729.1728395061727" type="curve"/>
      <point x="140.07407407407408" y="1638.1604938271605" type="line"/>
      <point x="240.3827160493827" y="1632.8518518518517"/>
      <point x="279.4567901234568" y="1608.1604938271605"/>
      <point x="279.4567901234568" y="1556.7037037037037" type="curve" smooth="yes"/>
      <point x="279.4567901234568" y="1514.320987654321"/>
      <point x="245.3827160493827" y="1494.2469135802469"/>
      <point x="197.6172839506173" y="1480.8641975308642" type="curve"/>
    </contour>
    <contour>
      <point x="275.2345679012346" y="1154.6049382716049" type="curve" smooth="yes"/>
      <point x="453.4691358024691" y="1154.6049382716049"/>
      <point x="528.6296296296296" y="1285.6913580246915"/>
      <point x="536.6666666666666" y="1400.4444444444443" type="curve"/>
      <point x="440.30864197530866" y="1400.4444444444443" type="line"/>
      <point x="428.30864197530866" y="1330.8518518518517"/>
      <point x="376.30864197530866" y="1258.1604938271605"/>
      <point x="275.2345679012346" y="1258.1604938271605" type="curve" smooth="yes"/>
      <point x="174.16049382716048" y="1258.1604938271605"/>
      <point x="122.1604938271605" y="1330.8518518518517"/>
      <point x="110.1604938271605" y="1400.4444444444443" type="curve"/>
      <point x="13.802469135802474" y="1400.4444444444443" type="line"/>
      <point x="21.839506172839513" y="1285.6913580246915"/>
      <point x="97.0" y="1154.6049382716049"/>
    </contour>
  </outline>
</glyph>
<glyph name="brevecomb_tildecomb.cap" format="2">
  <anchor x="285.7407407407407" y="1342.0740740740741" name="_top"/>
  <anchor x="285.7407407407407" y="1932.2469135802469" name="top"/>
  <outline>
    <contour>
      <point x="285.7407407407407" y="1447.4197530864199" type="curve" smooth="yes"/>
      <point x="446.59259259259255" y="1447.4197530864199"/>
      <point x="526.5185185185185" y="1552.4938271604938"/>
      <point x="540.1728395061729" y="1671.2345679012346" type="curve"/>
      <point x="441.1975308641975" y="1671.2345679012346" type="line"/>
      <point x="424.5432098765432" y="1602.1975308641975"/>
      <point x="382.4691358024691" y="1544.0864197530864"/>
      <point x="285.7407407407407" y="1544.0864197530864" type="curve" smooth="yes"/>
      <point x="189.01234567901233" y="1544.0864197530864"/>
      <point x="146.93827160493825" y="1602.1975308641975"/>
      <point x="130.28395061728395" y="1671.2345679012346" type="curve"/>
      <point x="31.308641975308642" y="1671.2345679012346" type="line"/>
      <point x="44.96296296296296" y="1552.4938271604938"/>
      <point x="124.88888888888889" y="1447.4197530864199"/>
    </contour>
    <contour>
      <point x="10.0" y="1735.2345679012346" type="curve"/>
      <point x="104.32098765432097" y="1735.2345679012346" type="line"/>
      <point x="113.97530864197529" y="1793.2716049382716"/>
      <point x="144.320987654321" y="1824.6913580246915"/>
      <point x="184.7037037037037" y="1824.6913580246915" type="curve" smooth="yes"/>
      <point x="247.77777777777777" y="1824.6913580246915"/>
      <point x="297.01234567901236" y="1735.2345679012346"/>
      <point x="396.01234567901236" y="1735.2345679012346" type="curve" smooth="yes"/>
      <point x="489.7037037037037" y="1735.2345679012346"/>
      <point x="550.5185185185185" y="1817.3086419753085"/>
      <point x="561.4814814814814" y="1932.2469135802469" type="curve"/>
      <point x="467.1604938271605" y="1932.2469135802469" type="line"/>
      <point x="457.5061728395062" y="1875.5555555555554"/>
      <point x="427.1604938271605" y="1842.4814814814815"/>
      <point x="386.77777777777777" y="1842.4814814814815" type="curve" smooth="yes"/>
      <point x="323.7037037037037" y="1842.4814814814815"/>
      <point x="274.4691358024691" y="1932.2469135802469"/>
      <point x="175.46913580246914" y="1932.2469135802469" type="curve" smooth="yes"/>
      <point x="81.77777777777777" y="1932.2469135802469"/>
      <point x="20.962962962962962" y="1851.5185185185185"/>
    </contour>
  </outline>
</glyph>
<glyph name="brevecomb_tildecomb" format="2">
  <anchor x="283.08641975308643" y="998.5061728395061" name="_top"/>
  <anchor x="283.08641975308643" y="1652.8271604938273" name="top"/>
  <outline>
    <contour>
      <point x="283.08641975308643" y="1174.2345679012346" type="curve" smooth="yes"/>
      <point x="461.32098765432096" y="1174.2345679012346"/>
      <point x="535.8271604938271" y="1288.3086419753085"/>
      <point x="543.8641975308642" y="1393.2469135802469" type="curve"/>
      <point x="443.58024691358025" y="1393.2469135802469" type="line"/>
      <point x="431.58024691358025" y="1336.7407407407406"/>
      <point x="383.5061728395062" y="1274.5185185185185"/>
      <point x="283.08641975308643" y="1274.5185185185185" type="curve" smooth="yes"/>
      <point x="182.66666666666666" y="1274.5185185185185"/>
      <point x="134.59259259259258" y="1336.7407407407406"/>
      <point x="122.59259259259258" y="1393.2469135802469" type="curve"/>
      <point x="22.308641975308642" y="1393.2469135802469" type="line"/>
      <point x="30.34567901234568" y="1288.3086419753085"/>
      <point x="104.85185185185185" y="1174.2345679012346"/>
    </contour>
    <contour>
      <point x="10.0" y="1466.111111111111" type="curve"/>
      <point x="103.32098765432097" y="1466.111111111111" type="line"/>
      <point x="113.32098765432097" y="1524.8024691358025"/>
      <point x="142.320987654321" y="1552.1851851851852"/>
      <point x="182.04938271604937" y="1552.1851851851852" type="curve" smooth="yes"/>
      <point x="247.12345679012344" y="1552.1851851851852"/>
      <point x="287.08641975308643" y="1466.111111111111"/>
      <point x="390.7037037037037" y="1466.111111111111" type="curve" smooth="yes"/>
      <point x="484.39506172839504" y="1466.111111111111"/>
      <point x="544.9012345679013" y="1543.1481481481483"/>
      <point x="556.1728395061729" y="1659.7407407407406" type="curve"/>
      <point x="462.85185185185185" y="1659.7407407407406" type="line"/>
      <point x="452.85185185185185" y="1601.7037037037037"/>
      <point x="423.85185185185185" y="1573.6666666666667"/>
      <point x="384.12345679012344" y="1573.6666666666667" type="curve" smooth="yes"/>
      <point x="319.04938271604937" y="1573.6666666666667"/>
      <point x="279.08641975308643" y="1659.7407407407406"/>
      <point x="175.46913580246914" y="1659.7407407407406" type="curve" smooth="yes"/>
      <point x="81.77777777777777" y="1659.7407407407406"/>
      <point x="21.2716049382716" y="1583.7037037037037"/>
    </contour>
  </outline>
</glyph>
<glyph name="ca_ra-deva" format="2">
  <advance width="1246.8271604938273"/>
  <anchor x="970.4444444444445" y="27.34567901234568" name="bottom"/>
  <anchor x="630.7530864197531" y="1273.1728395061727" name="candra"/>
  <anchor x="970.8271604938271" y="1287.3456790123457" name="top"/>
  <anchor x="251.79012345679018" y="68.86419753086417" name="nukta"/>
  <outline>
    <contour>
      <point x="318.39506172839504" y="-101.72839506172836" type="line"/>
      <point x="940.320987654321" y="344.1851851851852" type="line"/>
      <point x="879.5308641975308" y="442.55555555555554" type="line"/>
      <point x="218.64197530864197" y="29.950617283950628" type="line"/>
    </contour>
    <component base="ca-deva"/>
  </outline>
</glyph>
<glyph name="candraBindu-deva.imatra" format="2">
  <anchor x="270.30864197530866" y="1429.530864197531" name="_candra"/>
  <anchor x="273.65432098765433" y="1846.1234567901236" name="top"/>
  <outline>
    <contour>
      <point x="269.69135802469134" y="1644.6666666666667" type="curve" smooth="yes"/>
      <point x="428.9012345679012" y="1644.6666666666667"/>
      <point x="540.4074074074074" y="1726.7530864197531"/>
      <point x="610.2592592592592" y="1876.2716049382716" type="curve"/>
      <point x="495.96296296296293" y="1941.5925925925926" type="line"/>
      <point x="453.96296296296293" y="1874.6296296296296"/>
      <point x="397.5061728395062" y="1802.432098765432"/>
      <point x="275.9259259259259" y="1802.432098765432" type="curve" smooth="yes"/>
      <point x="162.2716049382716" y="1802.432098765432"/>
      <point x="96.30864197530865" y="1863.358024691358"/>
      <point x="51.96296296296296" y="1937.6296296296296" type="curve"/>
      <point x="-67.95061728395059" y="1866.6913580246915" type="line"/>
      <point x="-18.98765432098763" y="1752.0246913580247"/>
      <point x="88.44444444444446" y="1644.6666666666667"/>
    </contour>
    <contour>
      <point x="267.96296296296293" y="1878.6296296296296" type="curve" smooth="yes"/>
      <point x="341.66666666666663" y="1878.6296296296296"/>
      <point x="372.8641975308642" y="1909.1728395061727"/>
      <point x="372.8641975308642" y="1981.8765432098764" type="curve" smooth="yes"/>
      <point x="372.8641975308642" y="2055.2345679012346"/>
      <point x="341.66666666666663" y="2085.777777777778"/>
      <point x="267.96296296296293" y="2085.777777777778" type="curve" smooth="yes"/>
      <point x="194.60493827160494" y="2085.777777777778"/>
      <point x="163.06172839506175" y="2055.2345679012346"/>
      <point x="163.06172839506175" y="1981.8765432098764" type="curve" smooth="yes"/>
      <point x="163.06172839506175" y="1909.1728395061727"/>
      <point x="194.60493827160494" y="1878.6296296296296"/>
    </contour>
  </outline>
</glyph>
<glyph name="caronvertical" format="2">
  <advance width="254.0"/>
  <guideline x="-159.0" y="1551.0" angle="0.0"/>
  <anchor x="156.0987654320988" y="1023.5061728395061" name="_car"/>
  <outline>
    <contour>
      <point x="109.2098765432099" y="1113.4938271604938" type="line"/>
      <point x="199.1851851851852" y="1113.4938271604938" type="line"/>
      <point x="231.03703703703704" y="1429.8765432098764" type="line"/>
      <point x="234.0" y="1551.0" type="line"/>
      <point x="101.55555555555557" y="1551.0" type="line"/>
    </contour>
  </outline>
</glyph>
<glyph name="circumflexcomb_acutecomb" format="2">
  <anchor x="255.9753086419753" y="998.5061728395061" name="_top"/>
  <anchor x="256.32098765432096" y="1547.5061728395062" name="top"/>
  <outline>
    <contour>
      <point x="10.0" y="1174.3086419753085" type="line"/>
      <point x="136.7901234567901" y="1174.3086419753085" type="line"/>
      <point x="251.9753086419753" y="1320.7654320987654" type="line"/>
      <point x="259.9753086419753" y="1320.7654320987654" type="line"/>
      <point x="375.1604938271605" y="1174.3086419753085" type="line"/>
      <point x="501.9506172839506" y="1174.3086419753085" type="line"/>
      <point x="333.91358024691357" y="1420.5061728395062" type="line"/>
      <point x="178.03703703703704" y="1420.5061728395062" type="line"/>
    </contour>
    <contour>
      <point x="444.02469135802465" y="1313.5802469135801" type="line"/>
      <point x="559.1975308641975" y="1313.5802469135801" type="line"/>
      <point x="748.8148148148148" y="1547.5061728395062" type="line"/>
      <point x="592.4444444444445" y="1547.5061728395062" type="line"/>
    </contour>
  </outline>
</glyph>
<glyph name="circumflexcomb_brevecomb.cap" format="2">
  <advance width="565.7283950617284"/>
  <anchor x="282.8641975308642" y="1342.0740740740741" name="_top"/>
  <anchor x="282.8641975308642" y="1929.9012345679012" name="top"/>
  <outline>
    <contour>
      <point x="10.0" y="1444.7283950617284" type="line"/>
      <point x="153.02469135802465" y="1444.7283950617284" type="line"/>
      <point x="278.8641975308642" y="1569.1851851851852" type="line"/>
      <point x="286.8641975308642" y="1569.1851851851852" type="line"/>
      <point x="412.7037037037037" y="1444.7283950617284" type="line"/>
      <point x="555.7283950617284" y="1444.7283950617284" type="line"/>
      <point x="365.7654320987654" y="1664.2716049382716" type="line"/>
      <point x="199.96296296296296" y="1664.2716049382716" type="line"/>
    </contour>
    <contour>
      <point x="282.8641975308642" y="1725.1975308641975" type="curve" smooth="yes"/>
      <point x="443.71604938271605" y="1725.1975308641975"/>
      <point x="523.6419753086419" y="1815.1975308641975"/>
      <point x="537.2962962962963" y="1929.9012345679012" type="curve"/>
      <point x="438.32098765432096" y="1929.9012345679012" type="line"/>
      <point x="421.66666666666663" y="1867.5555555555554"/>
      <point x="379.59259259259255" y="1822.5185185185185"/>
      <point x="282.8641975308642" y="1822.5185185185185" type="curve" smooth="yes"/>
      <point x="186.1358024691358" y="1822.5185185185185"/>
      <point x="144.06172839506172" y="1867.5555555555554"/>
      <point x="127.40740740740739" y="1929.9012345679012" type="curve"/>
      <point x="28.43209876543209" y="1929.9012345679012" type="line"/>
      <point x="42.08641975308641" y="1815.1975308641975"/>
      <point x="122.01234567901233" y="1725.1975308641975"/>
    </contour>
  </outline>
</glyph>
<glyph name="circumflexcomb_brevecomb" format="2">
  <advance width="543.9506172839506"/>
  <anchor x="271.9753086419753" y="998.5061728395061" name="_top"/>
  <anchor x="271.9753086419753" y="1652.8271604938273" name="top"/>
  <outline>
    <contour>
      <point x="10.0" y="1169.962962962963" type="line"/>
      <point x="141.4074074074074" y="1169.962962962963" type="line"/>
      <point x="267.9753086419753" y="1301.7283950617284" type="line"/>
      <point x="275.9753086419753" y="1301.7283950617284" type="line"/>
      <point x="402.5432098765432" y="1169.962962962963" type="line"/>
      <point x="533.9506172839506" y="1169.962962962963" type="line"/>
      <point x="359.8395061728395" y="1385.1975308641975" type="line"/>
      <point x="184.11111111111111" y="1385.1975308641975" type="line"/>
    </contour>
    <contour>
      <point x="271.9753086419753" y="1448.7777777777778" type="curve" smooth="yes"/>
      <point x="430.82716049382714" y="1448.7777777777778"/>
      <point x="504.4074074074074" y="1546.7037037037037"/>
      <point x="512.7530864197531" y="1652.8271604938273" type="curve"/>
      <point x="411.4691358024691" y="1652.8271604938273" type="line"/>
      <point x="401.4691358024691" y="1594.4444444444443"/>
      <point x="359.39506172839504" y="1549.4074074074074"/>
      <point x="271.9753086419753" y="1549.4074074074074" type="curve" smooth="yes"/>
      <point x="184.55555555555554" y="1549.4074074074074"/>
      <point x="142.48148148148147" y="1594.4444444444443"/>
      <point x="132.48148148148147" y="1652.8271604938273" type="curve"/>
      <point x="31.197530864197525" y="1652.8271604938273" type="line"/>
      <point x="39.5432098765432" y="1546.7037037037037"/>
      <point x="113.12345679012346" y="1448.7777777777778"/>
    </contour>
  </outline>
</glyph>
<glyph name="circumflexcomb_gravecomb.cap" format="2">
  <anchor x="283.2098765432099" y="1342.0740740740741" name="_top"/>
  <anchor x="283.2098765432099" y="1807.1975308641975" name="top"/>
  <outline>
    <contour>
      <point x="10.0" y="1444.7283950617284" type="line"/>
      <point x="153.02469135802465" y="1444.7283950617284" type="line"/>
      <point x="278.8641975308642" y="1569.1851851851852" type="line"/>
      <point x="286.8641975308642" y="1569.1851851851852" type="line"/>
      <point x="412.7037037037037" y="1444.7283950617284" type="line"/>
      <point x="555.7283950617284" y="1444.7283950617284" type="line"/>
      <point x="365.7654320987654" y="1664.2716049382716" type="line"/>
      <point x="199.96296296296296" y="1664.2716049382716" type="line"/>
    </contour>
    <contour>
      <point x="560.1851851851851" y="1577.0" type="line"/>
      <point x="678.0123456790122" y="1577.0" type="line"/>
      <point x="533.3209876543209" y="1807.1975308641975" type="line"/>
      <point x="372.29629629629625" y="1807.1975308641975" type="line"/>
    </contour>
  </outline>
</glyph>
<glyph name="circumflexcomb_gravecomb" format="2">
  <anchor x="255.66666666666666" y="998.5061728395061" name="_top"/>
  <anchor x="255.66666666666666" y="1547.5061728395062" name="top"/>
  <outline>
    <contour>
      <point x="10.0" y="1174.3086419753085" type="line"/>
      <point x="136.7901234567901" y="1174.3086419753085" type="line"/>
      <point x="251.9753086419753" y="1320.7654320987654" type="line"/>
      <point x="259.9753086419753" y="1320.7654320987654" type="line"/>
      <point x="375.1604938271605" y="1174.3086419753085" type="line"/>
      <point x="501.9506172839506" y="1174.3086419753085" type="line"/>
      <point x="333.91358024691357" y="1420.5061728395062" type="line"/>
      <point x="178.03703703703704" y="1420.5061728395062" type="line"/>
    </contour>
    <contour>
      <point x="568.716049382716" y="1313.5802469135801" type="line"/>
      <point x="683.8888888888888" y="1313.5802469135801" type="line"/>
      <point x="534.469135802469" y="1547.5061728395062" type="line"/>
      <point x="379.4074074074074" y="1547.5061728395062" type="line"/>
    </contour>
  </outline>
</glyph>
<glyph name="circumflexcomb_hookabovecomb.cap" format="2">
  <anchor x="282.2098765432099" y="1342.0740740740741" name="_top"/>
  <anchor x="282.2098765432099" y="1858.8148148148148" name="top"/>
  <outline>
    <contour>
      <point x="10.0" y="1444.7283950617284" type="line"/>
      <point x="153.02469135802465" y="1444.7283950617284" type="line"/>
      <point x="278.8641975308642" y="1569.1851851851852" type="line"/>
      <point x="286.8641975308642" y="1569.1851851851852" type="line"/>
      <point x="412.7037037037037" y="1444.7283950617284" type="line"/>
      <point x="555.7283950617284" y="1444.7283950617284" type="line"/>
      <point x="365.7654320987654" y="1664.2716049382716" type="line"/>
      <point x="199.96296296296296" y="1664.2716049382716" type="line"/>
    </contour>
    <contour>
      <point x="526.1851851851851" y="1542.7283950617284" type="line"/>
      <point x="630.5802469135803" y="1558.111111111111"/>
      <point x="722.8148148148148" y="1600.7283950617284"/>
      <point x="722.8148148148148" y="1707.2716049382716" type="curve" smooth="yes"/>
      <point x="722.8148148148148" y="1800.962962962963"/>
      <point x="638.0493827160493" y="1852.8148148148148"/>
      <point x="467.2222222222222" y="1858.8148148148148" type="curve"/>
      <point x="447.641975308642" y="1767.111111111111" type="line"/>
      <point x="549.9506172839506" y="1760.8024691358025"/>
      <point x="590.716049382716" y="1740.4567901234568"/>
      <point x="590.716049382716" y="1689.6913580246915" type="curve" smooth="yes"/>
      <point x="590.716049382716" y="1647.962962962963"/>
      <point x="552.2962962962963" y="1630.2345679012346"/>
      <point x="503.53086419753083" y="1618.5432098765432" type="curve"/>
    </contour>
  </outline>
</glyph>
<glyph name="circumflexcomb_hookabovecomb" format="2">
  <anchor x="255.9753086419753" y="998.5061728395061" name="_top"/>
  <anchor x="255.9753086419753" y="1611.3950617283951" name="top"/>
  <outline>
    <contour>
      <point x="10.0" y="1174.3086419753085" type="line"/>
      <point x="136.7901234567901" y="1174.3086419753085" type="line"/>
      <point x="251.9753086419753" y="1320.7654320987654" type="line"/>
      <point x="259.9753086419753" y="1320.7654320987654" type="line"/>
      <point x="375.1604938271605" y="1174.3086419753085" type="line"/>
      <point x="501.9506172839506" y="1174.3086419753085" type="line"/>
      <point x="333.91358024691357" y="1420.5061728395062" type="line"/>
      <point x="178.03703703703704" y="1420.5061728395062" type="line"/>
    </contour>
    <contour>
      <point x="501.29629629629625" y="1286.0" type="line"/>
      <point x="603.037037037037" y="1308.037037037037"/>
      <point x="698.9259259259259" y="1345.6913580246915"/>
      <point x="698.9259259259259" y="1459.8148148148148" type="curve" smooth="yes"/>
      <point x="698.9259259259259" y="1555.5061728395062"/>
      <point x="611.5061728395061" y="1605.0864197530864"/>
      <point x="441.3333333333333" y="1611.3950617283951" type="curve"/>
      <point x="424.4444444444444" y="1520.7283950617284" type="line"/>
      <point x="525.4074074074074" y="1514.7283950617284"/>
      <point x="564.1728395061729" y="1490.037037037037"/>
      <point x="564.1728395061729" y="1439.2716049382716" type="curve" smooth="yes"/>
      <point x="564.1728395061729" y="1397.1975308641975"/>
      <point x="530.7530864197531" y="1376.469135802469"/>
      <point x="481.98765432098764" y="1362.7407407407406" type="curve"/>
    </contour>
  </outline>
</glyph>
<glyph name="circumflexcomb_tildecomb.cap" format="2">
  <anchor x="287.7037037037037" y="1342.0740740740741" name="_top"/>
  <anchor x="287.7037037037037" y="1932.2469135802469" name="top"/>
  <outline>
    <contour>
      <point x="14.839506172839512" y="1474.7283950617284" type="line"/>
      <point x="157.86419753086417" y="1474.7283950617284" type="line"/>
      <point x="283.7037037037037" y="1599.1851851851852" type="line"/>
      <point x="291.7037037037037" y="1599.1851851851852" type="line"/>
      <point x="417.5432098765432" y="1474.7283950617284" type="line"/>
      <point x="560.5679012345679" y="1474.7283950617284" type="line"/>
      <point x="370.6049382716049" y="1694.2716049382716" type="line"/>
      <point x="204.80246913580248" y="1694.2716049382716" type="line"/>
    </contour>
    <contour>
      <point x="11.962962962962962" y="1765.2345679012346" type="curve"/>
      <point x="106.28395061728394" y="1765.2345679012346" type="line"/>
      <point x="115.93827160493825" y="1823.2716049382716"/>
      <point x="146.28395061728395" y="1854.6913580246915"/>
      <point x="186.66666666666666" y="1854.6913580246915" type="curve" smooth="yes"/>
      <point x="249.74074074074073" y="1854.6913580246915"/>
      <point x="298.9753086419753" y="1765.2345679012346"/>
      <point x="397.9753086419753" y="1765.2345679012346" type="curve" smooth="yes"/>
      <point x="491.66666666666663" y="1765.2345679012346"/>
      <point x="552.4814814814814" y="1847.3086419753085"/>
      <point x="563.4444444444445" y="1962.2469135802469" type="curve"/>
      <point x="469.12345679012344" y="1962.2469135802469" type="line"/>
      <point x="459.4691358024691" y="1905.5555555555554"/>
      <point x="429.12345679012344" y="1872.4814814814815"/>
      <point x="388.7407407407407" y="1872.4814814814815" type="curve" smooth="yes"/>
      <point x="325.66666666666663" y="1872.4814814814815"/>
      <point x="276.4320987654321" y="1962.2469135802469"/>
      <point x="177.4320987654321" y="1962.2469135802469" type="curve" smooth="yes"/>
      <point x="83.74074074074073" y="1962.2469135802469"/>
      <point x="22.925925925925924" y="1881.5185185185185"/>
    </contour>
  </outline>
</glyph>
<glyph name="circumflexcomb_tildecomb" format="2">
  <anchor x="283.08641975308643" y="998.5061728395061" name="_top"/>
  <anchor x="283.08641975308643" y="1652.8271604938273" name="top"/>
  <outline>
    <contour>
      <point x="21.111111111111114" y="1169.962962962963" type="line"/>
      <point x="152.5185185185185" y="1169.962962962963" type="line"/>
      <point x="279.08641975308643" y="1301.7283950617284" type="line"/>
      <point x="287.08641975308643" y="1301.7283950617284" type="line"/>
      <point x="413.65432098765433" y="1169.962962962963" type="line"/>
      <point x="545.0617283950617" y="1169.962962962963" type="line"/>
      <point x="370.9506172839506" y="1385.1975308641975" type="line"/>
      <point x="195.22222222222223" y="1385.1975308641975" type="line"/>
    </contour>
    <contour>
      <point x="10.0" y="1459.1975308641975" type="curve"/>
      <point x="103.32098765432097" y="1459.1975308641975" type="line"/>
      <point x="113.32098765432097" y="1517.888888888889"/>
      <point x="142.320987654321" y="1545.2716049382716"/>
      <point x="182.04938271604937" y="1545.2716049382716" type="curve" smooth="yes"/>
      <point x="247.12345679012344" y="1545.2716049382716"/>
      <point x="287.08641975308643" y="1459.1975308641975"/>
      <point x="390.7037037037037" y="1459.1975308641975" type="curve" smooth="yes"/>
      <point x="484.39506172839504" y="1459.1975308641975"/>
      <point x="544.9012345679013" y="1536.2345679012346"/>
      <point x="556.1728395061729" y="1652.8271604938273" type="curve"/>
      <point x="462.85185185185185" y="1652.8271604938273" type="line"/>
      <point x="452.85185185185185" y="1594.79012345679"/>
      <point x="423.85185185185185" y="1566.7530864197531"/>
      <point x="384.12345679012344" y="1566.7530864197531" type="curve" smooth="yes"/>
      <point x="319.04938271604937" y="1566.7530864197531"/>
      <point x="279.08641975308643" y="1652.8271604938273"/>
      <point x="175.46913580246914" y="1652.8271604938273" type="curve" smooth="yes"/>
      <point x="81.77777777777777" y="1652.8271604938273"/>
      <point x="21.2716049382716" y="1576.79012345679"/>
    </contour>
  </outline>
</glyph>
<glyph name="d_g_ra-deva" format="2">
  <advance width="1055.2839506172838"/>
  <anchor x="977.0370370370371" y="-49.2469135802469" name="bottom"/>
  <anchor x="618.4814814814815" y="1273.1728395061727" name="candra"/>
  <anchor x="113.32098765432097" y="-47.7654320987654" name="nukta"/>
  <anchor x="720.6543209876543" y="1273.1728395061727" name="top"/>
  <outline>
    <contour>
      <point x="609.5555555555555" y="-459.90123456790116" type="line"/>
      <point x="836.641975308642" y="125.7530864197531" type="line"/>
      <point x="719.1481481481482" y="168.1604938271605" type="line"/>
      <point x="459.40740740740745" y="-403.9753086419753" type="line"/>
    </contour>
    <contour>
      <point x="263.81481481481484" y="-317.18518518518516" type="line"/>
      <point x="386.5308641975309" y="-315.4938271604938"/>
      <point x="403.4567901234568" y="-255.71604938271602"/>
      <point x="403.4567901234568" y="-198.48148148148147" type="curve" smooth="yes"/>
      <point x="403.4567901234568" y="-15.197530864197526" type="line"/>
      <point x="251.54320987654324" y="-31.012345679012334" type="line"/>
      <point x="111.58024691358028" y="-65.09876543209874" type="line"/>
      <point x="111.58024691358028" y="-168.037037037037" type="line"/>
    </contour>
    <contour>
      <point x="237.34567901234573" y="-88.58024691358024" type="line"/>
      <point x="403.11111111111114" y="-72.76543209876543" type="line"/>
      <point x="403.11111111111114" y="236.01234567901233" type="line"/>
      <point x="237.34567901234573" y="236.01234567901233" type="line"/>
    </contour>
    <component base="da-deva"/>
  </outline>
</glyph>
<glyph name="d_ra-deva" format="2">
  <advance width="1035.6543209876543"/>
  <anchor x="795.1358024691358" y="-550.8765432098764" name="bottom"/>
  <anchor x="618.4814814814815" y="1273.1728395061727" name="candra"/>
  <anchor x="113.32098765432097" y="-47.7654320987654" name="nukta"/>
  <anchor x="720.6543209876543" y="1273.1728395061727" name="top"/>
  <outline>
    <contour>
      <point x="337.6913580246914" y="-253.33333333333326" type="line" smooth="yes"/>
      <point x="819.9135802469136" y="146.27160493827165" type="line"/>
      <point x="772.5925925925926" y="228.62962962962965" type="line"/>
      <point x="232.59259259259267" y="-128.65432098765427" type="line"/>
    </contour>
    <component base="da-deva"/>
    <component base="halant-deva" xOffset="624.1358024691358" yOffset="-199.65432098765427"/>
  </outline>
</glyph>
<glyph name="d_ya-deva" format="2">
  <advance width="1244.8765432098764"/>
  <anchor x="965.2592592592592" y="27.34567901234568" name="bottom"/>
  <anchor x="623.8148148148149" y="1273.5185185185185" name="candra"/>
  <anchor x="965.2592592592592" y="1287.3456790123457" name="top"/>
  <outline>
    <contour>
      <point x="-16.580246913580243" y="1117.4814814814815" type="line"/>
      <point x="1261.8024691358025" y="1117.4814814814815" type="line"/>
      <point x="1261.8024691358025" y="1273.1728395061727" type="line"/>
      <point x="-16.580246913580243" y="1273.1728395061727" type="line"/>
    </contour>
    <contour>
      <point x="435.67901234567904" y="837.6666666666667" type="line"/>
      <point x="614.679012345679" y="837.6666666666667" type="line"/>
      <point x="614.0246913580247" y="1198.3827160493827" type="line"/>
      <point x="435.67901234567904" y="1198.3827160493827" type="line"/>
    </contour>
    <contour>
      <point x="256.5061728395062" y="499.91358024691357" type="curve"/>
      <point x="317.28395061728395" y="595.358024691358" type="line"/>
      <point x="250.7037037037037" y="635.4320987654321"/>
      <point x="221.75308641975306" y="703.0493827160494"/>
      <point x="221.75308641975306" y="757.8395061728395" type="curve" smooth="yes"/>
      <point x="221.75308641975306" y="802.3703703703704"/>
      <point x="239.1358024691358" y="837.6666666666667"/>
      <point x="392.7037037037037" y="837.6666666666667" type="curve" smooth="yes"/>
      <point x="549.395061728395" y="837.6666666666667" type="line"/>
      <point x="531.5802469135803" y="998.0864197530864" type="line"/>
      <point x="334.2716049382716" y="997.0864197530864" type="line" smooth="yes"/>
      <point x="141.49382716049382" y="996.0864197530864"/>
      <point x="62.56790123456791" y="920.1975308641976"/>
      <point x="62.56790123456791" y="792.0370370370371" type="curve" smooth="yes"/>
      <point x="62.56790123456791" y="677.1851851851852"/>
      <point x="150.58024691358025" y="558.9876543209876"/>
    </contour>
    <contour>
      <point x="459.12345679012344" y="58.530864197530875" type="curve" smooth="yes"/>
      <point x="688.283950617284" y="58.530864197530875"/>
      <point x="847.5185185185185" y="190.76543209876544"/>
      <point x="937.8641975308642" y="295.7283950617284" type="curve"/>
      <point x="915.5925925925926" y="479.96296296296293" type="line"/>
      <point x="821.9753086419753" y="338.9506172839506"/>
      <point x="650.8888888888889" y="213.98765432098764"/>
      <point x="455.8148148148148" y="213.98765432098764" type="curve" smooth="yes"/>
      <point x="339.641975308642" y="213.98765432098764"/>
      <point x="288.037037037037" y="266.9382716049383"/>
      <point x="288.037037037037" y="339.7283950617284" type="curve" smooth="yes"/>
      <point x="288.037037037037" y="443.87654320987656"/>
      <point x="364.3827160493827" y="495.1358024691358"/>
      <point x="560.8765432098766" y="505.5555555555556" type="curve"/>
      <point x="549.604938271605" y="655.6666666666666" type="line"/>
      <point x="197.16049382716048" y="650.9382716049382"/>
      <point x="107.03703703703704" y="491.7407407407407"/>
      <point x="107.03703703703704" y="355.61728395061726" type="curve" smooth="yes"/>
      <point x="107.03703703703704" y="189.45679012345678"/>
      <point x="226.96296296296296" y="58.530864197530875"/>
    </contour>
    <contour>
      <point x="874.4320987654321" y="-12.851851851851848" type="line"/>
      <point x="1055.7407407407406" y="-12.851851851851848" type="line"/>
      <point x="1055.7407407407406" y="1215.6666666666667" type="line"/>
      <point x="874.4320987654321" y="1215.6666666666667" type="line"/>
    </contour>
  </outline>
</glyph>
<glyph name="dblgravecomb.cap" format="2">
  <anchor x="329.6358024691358" y="1342.0740740740741" name="_top"/>
  <anchor x="329.6358024691358" y="1676.2716049382716" name="top"/>
  <outline>
    <contour>
      <point x="184.23456790123456" y="1444.7283950617284" type="line"/>
      <point x="318.6049382716049" y="1444.7283950617284" type="line"/>
      <point x="183.91358024691357" y="1676.2716049382716" type="line"/>
      <point x="10.0" y="1676.2716049382716" type="line"/>
    </contour>
    <contour>
      <point x="513.5555555555555" y="1444.7283950617284" type="line"/>
      <point x="649.2716049382716" y="1444.7283950617284" type="line"/>
      <point x="515.2345679012345" y="1676.2716049382716" type="line"/>
      <point x="341.32098765432096" y="1676.2716049382716" type="line"/>
    </contour>
  </outline>
</glyph>
<glyph name="dieresiscomb_acutecomb.cap" format="2">
  <anchor x="289.8641975308642" y="1342.0740740740741" name="_top"/>
  <anchor x="289.8641975308642" y="1953.9382716049383" name="top"/>
  <outline>
    <contour>
      <point x="177.23456790123456" y="1723.0864197530864" type="line"/>
      <point x="332.8024691358024" y="1723.0864197530864" type="line"/>
      <point x="564.3827160493827" y="1953.9382716049383" type="line"/>
      <point x="357.03703703703707" y="1953.9382716049383" type="line"/>
    </contour>
    <contour>
      <point x="109.39506172839505" y="1459.9135802469136" type="curve" smooth="yes"/>
      <point x="165.9012345679012" y="1459.9135802469136"/>
      <point x="207.1358024691358" y="1500.7654320987654"/>
      <point x="207.1358024691358" y="1559.3086419753085" type="curve" smooth="yes"/>
      <point x="207.1358024691358" y="1615.1975308641975"/>
      <point x="165.9012345679012" y="1656.3950617283951"/>
      <point x="109.39506172839505" y="1656.3950617283951" type="curve" smooth="yes"/>
      <point x="52.888888888888886" y="1656.3950617283951"/>
      <point x="10.0" y="1615.1975308641975"/>
      <point x="10.0" y="1559.3086419753085" type="curve" smooth="yes"/>
      <point x="10.0" y="1500.7654320987654"/>
      <point x="52.888888888888886" y="1459.9135802469136"/>
    </contour>
    <contour>
      <point x="470.3333333333333" y="1459.9135802469136" type="curve" smooth="yes"/>
      <point x="526.8395061728395" y="1459.9135802469136"/>
      <point x="569.7283950617284" y="1500.7654320987654"/>
      <point x="569.7283950617284" y="1559.3086419753085" type="curve" smooth="yes"/>
      <point x="569.7283950617284" y="1615.1975308641975"/>
      <point x="526.8395061728395" y="1656.3950617283951"/>
      <point x="470.3333333333333" y="1656.3950617283951" type="curve" smooth="yes"/>
      <point x="413.82716049382714" y="1656.3950617283951"/>
      <point x="372.59259259259255" y="1615.1975308641975"/>
      <point x="372.59259259259255" y="1559.3086419753085" type="curve" smooth="yes"/>
      <point x="372.59259259259255" y="1500.7654320987654"/>
      <point x="413.82716049382714" y="1459.9135802469136"/>
    </contour>
  </outline>
</glyph>
<glyph name="dieresiscomb_caroncomb.cap" format="2">
  <advance width="599.6543209876543"/>
  <anchor x="299.82716049382714" y="1342.0740740740741" name="_top"/>
  <anchor x="299.82716049382714" y="1953.9382716049383" name="top"/>
  <outline>
    <contour>
      <point x="207.0" y="1723.0864197530864" type="line"/>
      <point x="392.6543209876543" y="1723.0864197530864" type="line"/>
      <point x="589.6543209876543" y="1953.9382716049383" type="line"/>
      <point x="436.04938271604937" y="1953.9382716049383" type="line"/>
      <point x="303.82716049382714" y="1816.8271604938273" type="line"/>
      <point x="295.82716049382714" y="1816.8271604938273" type="line"/>
      <point x="163.6049382716049" y="1953.9382716049383" type="line"/>
      <point x="10.0" y="1953.9382716049383" type="line"/>
    </contour>
    <contour>
      <point x="119.35802469135801" y="1459.9135802469136" type="curve" smooth="yes"/>
      <point x="175.86419753086417" y="1459.9135802469136"/>
      <point x="217.09876543209873" y="1500.7654320987654"/>
      <point x="217.09876543209873" y="1559.3086419753085" type="curve" smooth="yes"/>
      <point x="217.09876543209873" y="1615.1975308641975"/>
      <point x="175.86419753086417" y="1656.3950617283951"/>
      <point x="119.35802469135801" y="1656.3950617283951" type="curve" smooth="yes"/>
      <point x="62.85185185185185" y="1656.3950617283951"/>
      <point x="19.962962962962962" y="1615.1975308641975"/>
      <point x="19.962962962962962" y="1559.3086419753085" type="curve" smooth="yes"/>
      <point x="19.962962962962962" y="1500.7654320987654"/>
      <point x="62.85185185185185" y="1459.9135802469136"/>
    </contour>
    <contour>
      <point x="480.29629629629625" y="1459.9135802469136" type="curve" smooth="yes"/>
      <point x="536.8024691358024" y="1459.9135802469136"/>
      <point x="579.6913580246913" y="1500.7654320987654"/>
      <point x="579.6913580246913" y="1559.3086419753085" type="curve" smooth="yes"/>
      <point x="579.6913580246913" y="1615.1975308641975"/>
      <point x="536.8024691358024" y="1656.3950617283951"/>
      <point x="480.29629629629625" y="1656.3950617283951" type="curve" smooth="yes"/>
      <point x="423.7901234567901" y="1656.3950617283951"/>
      <point x="382.55555555555554" y="1615.1975308641975"/>
      <point x="382.55555555555554" y="1559.3086419753085" type="curve" smooth="yes"/>
      <point x="382.55555555555554" y="1500.7654320987654"/>
      <point x="423.7901234567901" y="1459.9135802469136"/>
    </contour>
  </outline>
</glyph>
